<svg width="324" height="244" viewBox="0 0 324 244" fill="none" xmlns="http://www.w3.org/2000/svg">
<g filter="url(#filter0_d_1909_2032)">
<rect x="29" y="29" width="258" height="178" rx="15" fill="#1B2028"/>
</g>
<path d="M265.009 72.485L262.602 70.0775L261.132 68.6C260.509 67.9775 259.497 67.9775 258.874 68.6L254.989 72.485C254.479 72.995 254.847 73.865 255.559 73.865H259.767H264.439C265.159 73.865 265.519 72.995 265.009 72.485Z" fill="#1ECB4F"/>
<path d="M56.288 171.87H53.642V174.586H51.794V171.87H49.148V170.162H51.794V167.446H53.642V170.162H56.288V171.87ZM58.4556 170.764C58.4556 169.149 58.7449 167.885 59.3236 166.97C59.9116 166.055 60.8823 165.598 62.2356 165.598C63.5889 165.598 64.5549 166.055 65.1336 166.97C65.7216 167.885 66.0156 169.149 66.0156 170.764C66.0156 172.388 65.7216 173.662 65.1336 174.586C64.5549 175.51 63.5889 175.972 62.2356 175.972C60.8823 175.972 59.9116 175.51 59.3236 174.586C58.7449 173.662 58.4556 172.388 58.4556 170.764ZM64.0836 170.764C64.0836 170.073 64.0369 169.495 63.9436 169.028C63.8596 168.552 63.6823 168.165 63.4116 167.866C63.1503 167.567 62.7583 167.418 62.2356 167.418C61.7129 167.418 61.3163 167.567 61.0456 167.866C60.7843 168.165 60.6069 168.552 60.5136 169.028C60.4296 169.495 60.3876 170.073 60.3876 170.764C60.3876 171.473 60.4296 172.071 60.5136 172.556C60.5976 173.032 60.7749 173.419 61.0456 173.718C61.3163 174.007 61.7129 174.152 62.2356 174.152C62.7583 174.152 63.1549 174.007 63.4256 173.718C63.6963 173.419 63.8736 173.032 63.9576 172.556C64.0416 172.071 64.0836 171.473 64.0836 170.764ZM68.8784 176.098C68.5237 176.098 68.2297 175.991 67.9964 175.776C67.7724 175.552 67.6604 175.277 67.6604 174.95C67.6604 174.623 67.7724 174.353 67.9964 174.138C68.2297 173.914 68.5237 173.802 68.8784 173.802C69.2237 173.802 69.5084 173.914 69.7324 174.138C69.9564 174.353 70.0684 174.623 70.0684 174.95C70.0684 175.277 69.9564 175.552 69.7324 175.776C69.5084 175.991 69.2237 176.098 68.8784 176.098ZM72.3191 173.788C73.2151 173.041 73.9291 172.421 74.4611 171.926C74.9931 171.422 75.4364 170.899 75.7911 170.358C76.1458 169.817 76.3231 169.285 76.3231 168.762C76.3231 168.286 76.2111 167.913 75.9871 167.642C75.7631 167.371 75.4178 167.236 74.9511 167.236C74.4844 167.236 74.1251 167.395 73.8731 167.712C73.6211 168.02 73.4904 168.445 73.4811 168.986H71.5771C71.6144 167.866 71.9458 167.017 72.5711 166.438C73.2058 165.859 74.0084 165.57 74.9791 165.57C76.0431 165.57 76.8598 165.855 77.4291 166.424C77.9984 166.984 78.2831 167.726 78.2831 168.65C78.2831 169.378 78.0871 170.073 77.6951 170.736C77.3031 171.399 76.8551 171.977 76.3511 172.472C75.8471 172.957 75.1891 173.545 74.3771 174.236H78.5071V175.86H71.5911V174.404L72.3191 173.788ZM86.8822 167.488H82.3462V169.882C82.5422 169.639 82.8222 169.443 83.1862 169.294C83.5502 169.135 83.9375 169.056 84.3482 169.056C85.0948 169.056 85.7062 169.219 86.1822 169.546C86.6582 169.873 87.0035 170.293 87.2182 170.806C87.4328 171.31 87.5402 171.851 87.5402 172.43C87.5402 173.503 87.2322 174.367 86.6162 175.02C86.0095 175.673 85.1415 176 84.0122 176C82.9482 176 82.0988 175.734 81.4642 175.202C80.8295 174.67 80.4702 173.975 80.3862 173.116H82.2902C82.3742 173.489 82.5608 173.788 82.8502 174.012C83.1488 174.236 83.5268 174.348 83.9842 174.348C84.5348 174.348 84.9502 174.175 85.2302 173.83C85.5102 173.485 85.6502 173.027 85.6502 172.458C85.6502 171.879 85.5055 171.441 85.2162 171.142C84.9362 170.834 84.5208 170.68 83.9702 170.68C83.5782 170.68 83.2515 170.778 82.9902 170.974C82.7288 171.17 82.5422 171.431 82.4302 171.758H80.5542V165.766H86.8822V167.488ZM89.0879 168.3C89.0879 167.591 89.2933 167.035 89.7039 166.634C90.1239 166.233 90.6606 166.032 91.3139 166.032C91.9673 166.032 92.4993 166.233 92.9099 166.634C93.3299 167.035 93.5399 167.591 93.5399 168.3C93.5399 169.019 93.3299 169.579 92.9099 169.98C92.4993 170.381 91.9673 170.582 91.3139 170.582C90.6606 170.582 90.1239 170.381 89.7039 169.98C89.2933 169.579 89.0879 169.019 89.0879 168.3ZM98.0759 166.2L92.5739 176H90.6699L96.1579 166.2H98.0759ZM91.2999 167.208C90.7866 167.208 90.5299 167.572 90.5299 168.3C90.5299 169.037 90.7866 169.406 91.2999 169.406C91.5519 169.406 91.7479 169.317 91.8879 169.14C92.0279 168.953 92.0979 168.673 92.0979 168.3C92.0979 167.572 91.8319 167.208 91.2999 167.208ZM95.2339 173.886C95.2339 173.167 95.4393 172.612 95.8499 172.22C96.2699 171.819 96.8066 171.618 97.4599 171.618C98.1133 171.618 98.6406 171.819 99.0419 172.22C99.4526 172.612 99.6579 173.167 99.6579 173.886C99.6579 174.605 99.4526 175.165 99.0419 175.566C98.6406 175.967 98.1133 176.168 97.4599 176.168C96.7973 176.168 96.2606 175.967 95.8499 175.566C95.4393 175.165 95.2339 174.605 95.2339 173.886ZM97.4459 172.794C96.9139 172.794 96.6479 173.158 96.6479 173.886C96.6479 174.623 96.9139 174.992 97.4459 174.992C97.9686 174.992 98.2299 174.623 98.2299 173.886C98.2299 173.158 97.9686 172.794 97.4459 172.794Z" fill="#1ECB4F"/>
<path d="M60.907 134.779C60.907 135.507 60.718 136.193 60.34 136.837C59.976 137.467 59.43 137.992 58.702 138.412C57.988 138.818 57.141 139.056 56.161 139.126V140.827H54.817V139.105C53.417 138.979 52.29 138.559 51.436 137.845C50.582 137.117 50.141 136.137 50.113 134.905H53.263C53.347 135.913 53.865 136.522 54.817 136.732V132.721C53.809 132.469 52.997 132.217 52.381 131.965C51.765 131.713 51.233 131.307 50.785 130.747C50.337 130.187 50.113 129.424 50.113 128.458C50.113 127.24 50.547 126.246 51.415 125.476C52.297 124.706 53.431 124.265 54.817 124.153V122.452H56.161V124.153C57.505 124.265 58.576 124.671 59.374 125.371C60.186 126.071 60.641 127.037 60.739 128.269H57.568C57.526 127.863 57.379 127.513 57.127 127.219C56.889 126.911 56.567 126.694 56.161 126.568V130.537C57.211 130.803 58.037 131.062 58.639 131.314C59.255 131.552 59.787 131.951 60.235 132.511C60.683 133.057 60.907 133.813 60.907 134.779ZM53.179 128.311C53.179 128.773 53.319 129.151 53.599 129.445C53.879 129.725 54.285 129.956 54.817 130.138V126.505C54.313 126.575 53.914 126.764 53.62 127.072C53.326 127.38 53.179 127.793 53.179 128.311ZM56.161 136.774C56.693 136.676 57.106 136.459 57.4 136.123C57.708 135.787 57.862 135.381 57.862 134.905C57.862 134.443 57.715 134.072 57.421 133.792C57.127 133.512 56.707 133.281 56.161 133.099V136.774ZM74.5632 126.232H67.7592V129.823C68.0532 129.459 68.4732 129.165 69.0192 128.941C69.5652 128.703 70.1462 128.584 70.7622 128.584C71.8822 128.584 72.7992 128.829 73.5132 129.319C74.2272 129.809 74.7452 130.439 75.0672 131.209C75.3892 131.965 75.5502 132.777 75.5502 133.645C75.5502 135.255 75.0882 136.55 74.1642 137.53C73.2542 138.51 71.9522 139 70.2582 139C68.6622 139 67.3882 138.601 66.4362 137.803C65.4842 137.005 64.9452 135.962 64.8192 134.674H67.6752C67.8012 135.234 68.0812 135.682 68.5152 136.018C68.9632 136.354 69.5302 136.522 70.2162 136.522C71.0422 136.522 71.6652 136.263 72.0852 135.745C72.5052 135.227 72.7152 134.541 72.7152 133.687C72.7152 132.819 72.4982 132.161 72.0642 131.713C71.6442 131.251 71.0212 131.02 70.1952 131.02C69.6072 131.02 69.1172 131.167 68.7252 131.461C68.3332 131.755 68.0532 132.147 67.8852 132.637H65.0712V123.649H74.5632V126.232ZM79.1319 135.682C80.4759 134.562 81.5469 133.631 82.3449 132.889C83.1429 132.133 83.8079 131.349 84.3399 130.537C84.8719 129.725 85.1379 128.927 85.1379 128.143C85.1379 127.429 84.9699 126.869 84.6339 126.463C84.2979 126.057 83.7799 125.854 83.0799 125.854C82.3799 125.854 81.8409 126.092 81.4629 126.568C81.0849 127.03 80.8889 127.667 80.8749 128.479H78.0189C78.0749 126.799 78.5719 125.525 79.5099 124.657C80.4619 123.789 81.6659 123.355 83.1219 123.355C84.7179 123.355 85.9429 123.782 86.7969 124.636C87.6509 125.476 88.0779 126.589 88.0779 127.975C88.0779 129.067 87.7839 130.11 87.1959 131.104C86.6079 132.098 85.9359 132.966 85.1799 133.708C84.4239 134.436 83.4369 135.318 82.2189 136.354H88.4139V138.79H78.0399V136.606L79.1319 135.682ZM94.2355 135.913L91.7785 141.814H89.8885L91.2535 135.913H94.2355ZM97.3625 135.682C98.7065 134.562 99.7775 133.631 100.576 132.889C101.374 132.133 102.039 131.349 102.571 130.537C103.103 129.725 103.369 128.927 103.369 128.143C103.369 127.429 103.201 126.869 102.865 126.463C102.529 126.057 102.011 125.854 101.311 125.854C100.611 125.854 100.072 126.092 99.6935 126.568C99.3155 127.03 99.1195 127.667 99.1055 128.479H96.2495C96.3055 126.799 96.8025 125.525 97.7405 124.657C98.6925 123.789 99.8965 123.355 101.353 123.355C102.949 123.355 104.174 123.782 105.028 124.636C105.882 125.476 106.309 126.589 106.309 127.975C106.309 129.067 106.015 130.11 105.427 131.104C104.839 132.098 104.167 132.966 103.411 133.708C102.655 134.436 101.668 135.318 100.45 136.354H106.645V138.79H96.2705V136.606L97.3625 135.682ZM112.319 134.695C112.431 135.311 112.683 135.787 113.075 136.123C113.481 136.445 114.02 136.606 114.692 136.606C115.56 136.606 116.19 136.249 116.582 135.535C116.974 134.807 117.17 133.589 117.17 131.881C116.848 132.329 116.393 132.679 115.805 132.931C115.231 133.183 114.608 133.309 113.936 133.309C113.04 133.309 112.228 133.127 111.5 132.763C110.786 132.385 110.219 131.832 109.799 131.104C109.379 130.362 109.169 129.466 109.169 128.416C109.169 126.862 109.631 125.63 110.555 124.72C111.479 123.796 112.739 123.334 114.335 123.334C116.323 123.334 117.723 123.971 118.535 125.245C119.361 126.519 119.774 128.437 119.774 130.999C119.774 132.819 119.613 134.31 119.291 135.472C118.983 136.634 118.444 137.516 117.674 138.118C116.918 138.72 115.882 139.021 114.566 139.021C113.53 139.021 112.648 138.825 111.92 138.433C111.192 138.027 110.632 137.502 110.24 136.858C109.862 136.2 109.645 135.479 109.589 134.695H112.319ZM114.545 130.915C115.273 130.915 115.847 130.691 116.267 130.243C116.687 129.795 116.897 129.193 116.897 128.437C116.897 127.611 116.673 126.974 116.225 126.526C115.791 126.064 115.196 125.833 114.44 125.833C113.684 125.833 113.082 126.071 112.634 126.547C112.2 127.009 111.983 127.625 111.983 128.395C111.983 129.137 112.193 129.746 112.613 130.222C113.047 130.684 113.691 130.915 114.545 130.915ZM122.126 126.4V123.691H127.187V139H124.163V126.4H122.126Z" fill="white"/>
<path d="M118.44 64.272C119.069 64.3893 119.587 64.704 119.992 65.216C120.397 65.728 120.6 66.3147 120.6 66.976C120.6 67.5733 120.451 68.1013 120.152 68.56C119.864 69.008 119.443 69.36 118.888 69.616C118.333 69.872 117.677 70 116.92 70H112.104V58.832H116.712C117.469 58.832 118.12 58.9547 118.664 59.2C119.219 59.4453 119.635 59.7867 119.912 60.224C120.2 60.6613 120.344 61.1573 120.344 61.712C120.344 62.3627 120.168 62.9067 119.816 63.344C119.475 63.7813 119.016 64.0907 118.44 64.272ZM114.344 63.44H116.392C116.925 63.44 117.336 63.3227 117.624 63.088C117.912 62.8427 118.056 62.496 118.056 62.048C118.056 61.6 117.912 61.2533 117.624 61.008C117.336 60.7627 116.925 60.64 116.392 60.64H114.344V63.44ZM116.6 68.176C117.144 68.176 117.565 68.048 117.864 67.792C118.173 67.536 118.328 67.1733 118.328 66.704C118.328 66.224 118.168 65.8507 117.848 65.584C117.528 65.3067 117.096 65.168 116.552 65.168H114.344V68.176H116.6ZM123.521 60.08C123.127 60.08 122.796 59.9573 122.529 59.712C122.273 59.456 122.145 59.1413 122.145 58.768C122.145 58.3947 122.273 58.0853 122.529 57.84C122.796 57.584 123.127 57.456 123.521 57.456C123.916 57.456 124.241 57.584 124.497 57.84C124.764 58.0853 124.897 58.3947 124.897 58.768C124.897 59.1413 124.764 59.456 124.497 59.712C124.241 59.9573 123.916 60.08 123.521 60.08ZM124.625 61.136V70H122.385V61.136H124.625ZM129.446 62.976V67.264C129.446 67.5627 129.516 67.7813 129.654 67.92C129.804 68.048 130.049 68.112 130.39 68.112H131.43V70H130.022C128.134 70 127.19 69.0827 127.19 67.248V62.976H126.134V61.136H127.19V58.944H129.446V61.136H131.43V62.976H129.446ZM132.465 65.568C132.465 64.6507 132.652 63.8507 133.026 63.168C133.399 62.4747 133.916 61.9413 134.578 61.568C135.239 61.184 135.996 60.992 136.85 60.992C137.948 60.992 138.855 61.2693 139.57 61.824C140.295 62.368 140.78 63.136 141.026 64.128H138.61C138.482 63.744 138.263 63.4453 137.954 63.232C137.655 63.008 137.282 62.896 136.834 62.896C136.194 62.896 135.687 63.1307 135.314 63.6C134.94 64.0587 134.754 64.7147 134.754 65.568C134.754 66.4107 134.94 67.0667 135.314 67.536C135.687 67.9947 136.194 68.224 136.834 68.224C137.74 68.224 138.332 67.8187 138.61 67.008H141.026C140.78 67.968 140.295 68.7307 139.57 69.296C138.844 69.8613 137.938 70.144 136.85 70.144C135.996 70.144 135.239 69.9573 134.578 69.584C133.916 69.2 133.399 68.6667 133.026 67.984C132.652 67.2907 132.465 66.4853 132.465 65.568ZM146.603 70.144C145.749 70.144 144.981 69.9573 144.299 69.584C143.616 69.2 143.077 68.6613 142.683 67.968C142.299 67.2747 142.107 66.4747 142.107 65.568C142.107 64.6613 142.304 63.8613 142.699 63.168C143.104 62.4747 143.653 61.9413 144.347 61.568C145.04 61.184 145.813 60.992 146.667 60.992C147.52 60.992 148.293 61.184 148.987 61.568C149.68 61.9413 150.224 62.4747 150.619 63.168C151.024 63.8613 151.227 64.6613 151.227 65.568C151.227 66.4747 151.019 67.2747 150.602 67.968C150.197 68.6613 149.643 69.2 148.939 69.584C148.245 69.9573 147.467 70.144 146.603 70.144ZM146.603 68.192C147.008 68.192 147.387 68.096 147.739 67.904C148.101 67.7013 148.389 67.4027 148.603 67.008C148.816 66.6133 148.923 66.1333 148.923 65.568C148.923 64.7253 148.699 64.08 148.251 63.632C147.813 63.1733 147.275 62.944 146.635 62.944C145.995 62.944 145.456 63.1733 145.019 63.632C144.592 64.08 144.379 64.7253 144.379 65.568C144.379 66.4107 144.587 67.0613 145.003 67.52C145.429 67.968 145.963 68.192 146.603 68.192ZM154.006 60.08C153.611 60.08 153.28 59.9573 153.014 59.712C152.758 59.456 152.63 59.1413 152.63 58.768C152.63 58.3947 152.758 58.0853 153.014 57.84C153.28 57.584 153.611 57.456 154.006 57.456C154.4 57.456 154.726 57.584 154.982 57.84C155.248 58.0853 155.382 58.3947 155.382 58.768C155.382 59.1413 155.248 59.456 154.982 59.712C154.726 59.9573 154.4 60.08 154.006 60.08ZM155.11 61.136V70H152.87V61.136H155.11ZM162.235 61.008C163.291 61.008 164.144 61.344 164.795 62.016C165.445 62.6773 165.771 63.6053 165.771 64.8V70H163.531V65.104C163.531 64.4 163.355 63.8613 163.003 63.488C162.651 63.104 162.171 62.912 161.563 62.912C160.944 62.912 160.453 63.104 160.091 63.488C159.739 63.8613 159.563 64.4 159.563 65.104V70H157.323V61.136H159.563V62.24C159.861 61.856 160.24 61.5573 160.699 61.344C161.168 61.12 161.68 61.008 162.235 61.008Z" fill="white"/>
<path opacity="0.6" d="M116.112 90.692C116.416 90.74 116.692 90.864 116.94 91.064C117.196 91.264 117.396 91.512 117.54 91.808C117.692 92.104 117.768 92.42 117.768 92.756C117.768 93.18 117.66 93.564 117.444 93.908C117.228 94.244 116.912 94.512 116.496 94.712C116.088 94.904 115.604 95 115.044 95H111.924V86.636H114.924C115.492 86.636 115.976 86.732 116.376 86.924C116.776 87.108 117.076 87.36 117.276 87.68C117.476 88 117.576 88.36 117.576 88.76C117.576 89.256 117.44 89.668 117.168 89.996C116.904 90.316 116.552 90.548 116.112 90.692ZM113.016 90.248H114.852C115.364 90.248 115.76 90.128 116.04 89.888C116.32 89.648 116.46 89.316 116.46 88.892C116.46 88.468 116.32 88.136 116.04 87.896C115.76 87.656 115.356 87.536 114.828 87.536H113.016V90.248ZM114.948 94.1C115.492 94.1 115.916 93.972 116.22 93.716C116.524 93.46 116.676 93.104 116.676 92.648C116.676 92.184 116.516 91.82 116.196 91.556C115.876 91.284 115.448 91.148 114.912 91.148H113.016V94.1H114.948ZM124.431 86.636V87.524H122.151V95H121.059V87.524H118.767V86.636H124.431ZM125.368 90.812C125.368 89.996 125.552 89.264 125.92 88.616C126.288 87.96 126.788 87.448 127.42 87.08C128.06 86.712 128.768 86.528 129.544 86.528C130.456 86.528 131.252 86.748 131.932 87.188C132.612 87.628 133.108 88.252 133.42 89.06H132.112C131.88 88.556 131.544 88.168 131.104 87.896C130.672 87.624 130.152 87.488 129.544 87.488C128.96 87.488 128.436 87.624 127.972 87.896C127.508 88.168 127.144 88.556 126.88 89.06C126.616 89.556 126.484 90.14 126.484 90.812C126.484 91.476 126.616 92.06 126.88 92.564C127.144 93.06 127.508 93.444 127.972 93.716C128.436 93.988 128.96 94.124 129.544 94.124C130.152 94.124 130.672 93.992 131.104 93.728C131.544 93.456 131.88 93.068 132.112 92.564H133.42C133.108 93.364 132.612 93.984 131.932 94.424C131.252 94.856 130.456 95.072 129.544 95.072C128.768 95.072 128.06 94.892 127.42 94.532C126.788 94.164 126.288 93.656 125.92 93.008C125.552 92.36 125.368 91.628 125.368 90.812Z" fill="white"/>
<rect x="48" y="52" width="44" height="44" rx="10" fill="#31353F"/>
<path d="M72.9698 74.75H72.1998H67.5298V77.58H68.8398H72.9698C73.9198 77.58 74.6998 76.94 74.6998 76.16C74.6998 75.38 73.9198 74.75 72.9698 74.75Z" fill="#FFC01E"/>
<path d="M70 64C64.48 64 60 68.48 60 74C60 79.52 64.48 84 70 84C75.52 84 80 79.52 80 74C80 68.48 75.52 64 70 64ZM72.97 79.08H71.32V80.5C71.32 80.91 70.98 81.25 70.57 81.25C70.16 81.25 69.82 80.91 69.82 80.5V79.08H68.84H68.61V80.5C68.61 80.91 68.27 81.25 67.86 81.25C67.45 81.25 67.11 80.91 67.11 80.5V79.08H66.78H65.05C64.64 79.08 64.3 78.74 64.3 78.33C64.3 77.92 64.64 77.58 65.05 77.58H66.03V74V70.42H65.05C64.64 70.42 64.3 70.08 64.3 69.67C64.3 69.26 64.64 68.92 65.05 68.92H66.78H67.11V67.5C67.11 67.09 67.45 66.75 67.86 66.75C68.27 66.75 68.61 67.09 68.61 67.5V68.92H68.84H69.82V67.5C69.82 67.09 70.16 66.75 70.57 66.75C70.98 66.75 71.32 67.09 71.32 67.5V68.92H72.2C73.75 68.92 75.12 70.28 75.12 71.84C75.12 72.51 74.88 73.12 74.5 73.62C75.51 74.11 76.2 75.07 76.2 76.18C76.2 77.77 74.75 79.08 72.97 79.08Z" fill="#FFC01E"/>
<path d="M73.6198 71.83C73.6198 71.17 72.9998 70.41 72.1998 70.41H68.8398H67.5298V73.24H72.1998C72.9798 73.25 73.6198 72.61 73.6198 71.83Z" fill="#FFC01E"/>
<g filter="url(#filter1_f_1909_2032)">
<circle cx="264" cy="146" r="5" fill="#3A6FF8"/>
</g>
<path d="M158 175.5L165.5 152.5L174 163L179 145.5L188 163L201.5 129L214.5 152.5L229 145.5L240.5 157L250.5 132.5L258 145.5H265" stroke="#3A6FF8" stroke-width="2" stroke-linecap="round"/>
<defs>
<filter id="filter0_d_1909_2032" x="0" y="0" width="324" height="244" filterUnits="userSpaceOnUse" color-interpolation-filters="sRGB">
<feFlood flood-opacity="0" result="BackgroundImageFix"/>
<feColorMatrix in="SourceAlpha" type="matrix" values="0 0 0 0 0 0 0 0 0 0 0 0 0 0 0 0 0 0 127 0" result="hardAlpha"/>
<feOffset dx="4" dy="4"/>
<feGaussianBlur stdDeviation="16.5"/>
<feComposite in2="hardAlpha" operator="out"/>
<feColorMatrix type="matrix" values="0 0 0 0 0 0 0 0 0 0 0 0 0 0 0 0 0 0 0.05 0"/>
<feBlend mode="normal" in2="BackgroundImageFix" result="effect1_dropShadow_1909_2032"/>
<feBlend mode="normal" in="SourceGraphic" in2="effect1_dropShadow_1909_2032" result="shape"/>
</filter>
<filter id="filter1_f_1909_2032" x="254" y="136" width="20" height="20" filterUnits="userSpaceOnUse" color-interpolation-filters="sRGB">
<feFlood flood-opacity="0" result="BackgroundImageFix"/>
<feBlend mode="normal" in="SourceGraphic" in2="BackgroundImageFix" result="shape"/>
<feGaussianBlur stdDeviation="2.5" result="effect1_foregroundBlur_1909_2032"/>
</filter>
</defs>
</svg>
