<svg width="799" height="507" viewBox="0 0 799 507" fill="none" xmlns="http://www.w3.org/2000/svg">
<g filter="url(#filter0_d_1909_2110)">
<rect x="29" y="29" width="739" height="441" rx="15" fill="#1B2028"/>
</g>
<path d="M117 239.5L126.5 215L133 239.5L142 227.5L150 239.5L159 233L165 239.5L177.5 248.5L187.5 239.5L202 257L211.5 239.5L225 227.5L239.5 239.5L256.5 315L279.5 297.5L300 306.5L318 297.5L333.5 306.5L349.5 247.5L366.5 265L385 247.5L396 283L408.5 247.5L421 256.5L438 247.5L450.5 235.5L464 247.5L481 256.5L490.5 247.5L504 282.5L518.5 289L536.5 306.5L549.5 315L572 308.5L583 315L595.5 350.5L608.5 315L621.5 282.5L632 315H656L665 332.5L678.5 315L698 290.5L714.5 315L727 350.5L740 315" stroke="#3A6FF8" stroke-width="2" stroke-linecap="round"/>
<path opacity="0.02" d="M126.5 215L117 239.5V403H740V315L727 350.5L714.5 315L698 290.5L678.5 315L665 332.5L656 315H632L621.5 282.5L608.5 315L595.5 350.5L583 315L572 308.5L549.5 315L536.5 306.5L518.5 289L504 282.5L490.5 247.5L481 256.5L464 247.5L450.5 235.5L438 247.5L421 256.5L408.5 247.5L396 283L385 247.5L366.5 265L349.5 247.5L333.5 306.5L318 297.5L300 306.5L279.5 297.5L256.5 315L239.5 239.5L225 227.5L211.5 239.5L202 257L187.5 239.5L177.5 248.5L165 239.5L159 233L150 239.5L142 227.5L133 239.5L126.5 215Z" fill="#3A6FF8"/>
<path opacity="0.6" d="M64.964 124.974C65.3187 125.03 65.6407 125.175 65.93 125.408C66.2287 125.641 66.462 125.931 66.63 126.276C66.8073 126.621 66.896 126.99 66.896 127.382C66.896 127.877 66.77 128.325 66.518 128.726C66.266 129.118 65.8973 129.431 65.412 129.664C64.936 129.888 64.3713 130 63.718 130H60.078V120.242H63.578C64.2407 120.242 64.8053 120.354 65.272 120.578C65.7387 120.793 66.0887 121.087 66.322 121.46C66.5553 121.833 66.672 122.253 66.672 122.72C66.672 123.299 66.5133 123.779 66.196 124.162C65.888 124.535 65.4773 124.806 64.964 124.974ZM61.352 124.456H63.494C64.0913 124.456 64.5533 124.316 64.88 124.036C65.2067 123.756 65.37 123.369 65.37 122.874C65.37 122.379 65.2067 121.992 64.88 121.712C64.5533 121.432 64.082 121.292 63.466 121.292H61.352V124.456ZM63.606 128.95C64.2407 128.95 64.7353 128.801 65.09 128.502C65.4447 128.203 65.622 127.788 65.622 127.256C65.622 126.715 65.4353 126.29 65.062 125.982C64.6887 125.665 64.1893 125.506 63.564 125.506H61.352V128.95H63.606ZM69.3219 121.082C69.0793 121.082 68.8739 120.998 68.7059 120.83C68.5379 120.662 68.4539 120.457 68.4539 120.214C68.4539 119.971 68.5379 119.766 68.7059 119.598C68.8739 119.43 69.0793 119.346 69.3219 119.346C69.5553 119.346 69.7513 119.43 69.9099 119.598C70.0779 119.766 70.1619 119.971 70.1619 120.214C70.1619 120.457 70.0779 120.662 69.9099 120.83C69.7513 120.998 69.5553 121.082 69.3219 121.082ZM69.9379 122.328V130H68.6639V122.328H69.9379ZM73.6633 123.378V127.9C73.6633 128.273 73.7426 128.539 73.9013 128.698C74.0599 128.847 74.3353 128.922 74.7272 128.922H75.6653V130H74.5173C73.8079 130 73.2759 129.837 72.9213 129.51C72.5666 129.183 72.3893 128.647 72.3893 127.9V123.378H71.3953V122.328H72.3893V120.396H73.6633V122.328H75.6653V123.378H73.6633ZM76.7329 126.15C76.7329 125.357 76.8915 124.666 77.2089 124.078C77.5262 123.481 77.9649 123.019 78.5249 122.692C79.0942 122.365 79.7429 122.202 80.4709 122.202C81.4135 122.202 82.1882 122.431 82.7949 122.888C83.4109 123.345 83.8169 123.98 84.0129 124.792H82.6409C82.5102 124.325 82.2535 123.957 81.8709 123.686C81.4975 123.415 81.0309 123.28 80.4709 123.28C79.7429 123.28 79.1549 123.532 78.7069 124.036C78.2589 124.531 78.0349 125.235 78.0349 126.15C78.0349 127.074 78.2589 127.788 78.7069 128.292C79.1549 128.796 79.7429 129.048 80.4709 129.048C81.0309 129.048 81.4975 128.917 81.8709 128.656C82.2442 128.395 82.5009 128.021 82.6409 127.536H84.0129C83.8075 128.32 83.3969 128.95 82.7809 129.426C82.1649 129.893 81.3949 130.126 80.4709 130.126C79.7429 130.126 79.0942 129.963 78.5249 129.636C77.9649 129.309 77.5262 128.847 77.2089 128.25C76.8915 127.653 76.7329 126.953 76.7329 126.15ZM89.0588 130.126C88.3401 130.126 87.6868 129.963 87.0988 129.636C86.5201 129.309 86.0628 128.847 85.7268 128.25C85.4001 127.643 85.2368 126.943 85.2368 126.15C85.2368 125.366 85.4048 124.675 85.7408 124.078C86.0861 123.471 86.5528 123.009 87.1408 122.692C87.7288 122.365 88.3868 122.202 89.1148 122.202C89.8428 122.202 90.5008 122.365 91.0888 122.692C91.6768 123.009 92.1388 123.467 92.4748 124.064C92.8201 124.661 92.9928 125.357 92.9928 126.15C92.9928 126.943 92.8154 127.643 92.4608 128.25C92.1154 128.847 91.6441 129.309 91.0468 129.636C90.4494 129.963 89.7868 130.126 89.0588 130.126ZM89.0588 129.006C89.5161 129.006 89.9454 128.899 90.3468 128.684C90.7481 128.469 91.0701 128.147 91.3128 127.718C91.5648 127.289 91.6908 126.766 91.6908 126.15C91.6908 125.534 91.5694 125.011 91.3268 124.582C91.0841 124.153 90.7668 123.835 90.3748 123.63C89.9828 123.415 89.5581 123.308 89.1008 123.308C88.6341 123.308 88.2048 123.415 87.8128 123.63C87.4301 123.835 87.1221 124.153 86.8888 124.582C86.6554 125.011 86.5388 125.534 86.5388 126.15C86.5388 126.775 86.6508 127.303 86.8748 127.732C87.1081 128.161 87.4161 128.483 87.7988 128.698C88.1814 128.903 88.6014 129.006 89.0588 129.006ZM95.3258 121.082C95.0832 121.082 94.8778 120.998 94.7098 120.83C94.5418 120.662 94.4578 120.457 94.4578 120.214C94.4578 119.971 94.5418 119.766 94.7098 119.598C94.8778 119.43 95.0832 119.346 95.3258 119.346C95.5592 119.346 95.7552 119.43 95.9138 119.598C96.0818 119.766 96.1658 119.971 96.1658 120.214C96.1658 120.457 96.0818 120.662 95.9138 120.83C95.7552 120.998 95.5592 121.082 95.3258 121.082ZM95.9418 122.328V130H94.6678V122.328H95.9418ZM101.851 122.188C102.784 122.188 103.54 122.473 104.119 123.042C104.698 123.602 104.987 124.414 104.987 125.478V130H103.727V125.66C103.727 124.895 103.536 124.311 103.153 123.91C102.77 123.499 102.248 123.294 101.585 123.294C100.913 123.294 100.376 123.504 99.9752 123.924C99.5832 124.344 99.3872 124.955 99.3872 125.758V130H98.1132V122.328H99.3872V123.42C99.6392 123.028 99.9798 122.725 100.409 122.51C100.848 122.295 101.328 122.188 101.851 122.188ZM111.828 116.812L107.992 132.38H106.732L110.554 116.812H111.828ZM118.612 124.974C118.967 125.03 119.289 125.175 119.578 125.408C119.877 125.641 120.11 125.931 120.278 126.276C120.456 126.621 120.544 126.99 120.544 127.382C120.544 127.877 120.418 128.325 120.166 128.726C119.914 129.118 119.546 129.431 119.06 129.664C118.584 129.888 118.02 130 117.366 130H113.726V120.242H117.226C117.889 120.242 118.454 120.354 118.92 120.578C119.387 120.793 119.737 121.087 119.97 121.46C120.204 121.833 120.32 122.253 120.32 122.72C120.32 123.299 120.162 123.779 119.844 124.162C119.536 124.535 119.126 124.806 118.612 124.974ZM115 124.456H117.142C117.74 124.456 118.202 124.316 118.528 124.036C118.855 123.756 119.018 123.369 119.018 122.874C119.018 122.379 118.855 121.992 118.528 121.712C118.202 121.432 117.73 121.292 117.114 121.292H115V124.456ZM117.254 128.95C117.889 128.95 118.384 128.801 118.738 128.502C119.093 128.203 119.27 127.788 119.27 127.256C119.27 126.715 119.084 126.29 118.71 125.982C118.337 125.665 117.838 125.506 117.212 125.506H115V128.95H117.254ZM128.318 120.242V121.278H125.658V130H124.384V121.278H121.71V120.242H128.318ZM129.411 125.114C129.411 124.162 129.625 123.308 130.055 122.552C130.484 121.787 131.067 121.189 131.805 120.76C132.551 120.331 133.377 120.116 134.283 120.116C135.347 120.116 136.275 120.373 137.069 120.886C137.862 121.399 138.441 122.127 138.805 123.07H137.279C137.008 122.482 136.616 122.029 136.103 121.712C135.599 121.395 134.992 121.236 134.283 121.236C133.601 121.236 132.99 121.395 132.449 121.712C131.907 122.029 131.483 122.482 131.175 123.07C130.867 123.649 130.713 124.33 130.713 125.114C130.713 125.889 130.867 126.57 131.175 127.158C131.483 127.737 131.907 128.185 132.449 128.502C132.99 128.819 133.601 128.978 134.283 128.978C134.992 128.978 135.599 128.824 136.103 128.516C136.616 128.199 137.008 127.746 137.279 127.158H138.805C138.441 128.091 137.862 128.815 137.069 129.328C136.275 129.832 135.347 130.084 134.283 130.084C133.377 130.084 132.551 129.874 131.805 129.454C131.067 129.025 130.484 128.432 130.055 127.676C129.625 126.92 129.411 126.066 129.411 125.114Z" fill="#E4E4E4"/>
<path d="M159 127.682C158.858 127.682 158.715 127.63 158.603 127.517L155.955 124.87C155.738 124.652 155.738 124.292 155.955 124.075C156.173 123.857 156.533 123.857 156.75 124.075L159 126.325L161.25 124.075C161.468 123.857 161.828 123.857 162.045 124.075C162.263 124.292 162.263 124.652 162.045 124.87L159.398 127.517C159.285 127.63 159.143 127.682 159 127.682Z" fill="white"/>
<path d="M69.206 156.382C69.206 157.006 69.044 157.594 68.72 158.146C68.408 158.686 67.94 159.136 67.316 159.496C66.704 159.844 65.978 160.048 65.138 160.108V161.566H63.986V160.09C62.786 159.982 61.82 159.622 61.088 159.01C60.356 158.386 59.978 157.546 59.954 156.49H62.654C62.726 157.354 63.17 157.876 63.986 158.056V154.618C63.122 154.402 62.426 154.186 61.898 153.97C61.37 153.754 60.914 153.406 60.53 152.926C60.146 152.446 59.954 151.792 59.954 150.964C59.954 149.92 60.326 149.068 61.07 148.408C61.826 147.748 62.798 147.37 63.986 147.274V145.816H65.138V147.274C66.29 147.37 67.208 147.718 67.892 148.318C68.588 148.918 68.978 149.746 69.062 150.802H66.344C66.308 150.454 66.182 150.154 65.966 149.902C65.762 149.638 65.486 149.452 65.138 149.344V152.746C66.038 152.974 66.746 153.196 67.262 153.412C67.79 153.616 68.246 153.958 68.63 154.438C69.014 154.906 69.206 155.554 69.206 156.382ZM62.582 150.838C62.582 151.234 62.702 151.558 62.942 151.81C63.182 152.05 63.53 152.248 63.986 152.404V149.29C63.554 149.35 63.212 149.512 62.96 149.776C62.708 150.04 62.582 150.394 62.582 150.838ZM65.138 158.092C65.594 158.008 65.948 157.822 66.2 157.534C66.464 157.246 66.596 156.898 66.596 156.49C66.596 156.094 66.47 155.776 66.218 155.536C65.966 155.296 65.606 155.098 65.138 154.942V158.092ZM71.7673 150.334C71.8273 149.134 72.2473 148.21 73.0273 147.562C73.8193 146.902 74.8573 146.572 76.1413 146.572C77.0173 146.572 77.7673 146.728 78.3913 147.04C79.0153 147.34 79.4833 147.754 79.7953 148.282C80.1193 148.798 80.2813 149.386 80.2813 150.046C80.2813 150.802 80.0833 151.444 79.6873 151.972C79.3033 152.488 78.8413 152.836 78.3013 153.016V153.088C78.9973 153.304 79.5373 153.688 79.9213 154.24C80.3173 154.792 80.5153 155.5 80.5153 156.364C80.5153 157.084 80.3473 157.726 80.0113 158.29C79.6873 158.854 79.2013 159.298 78.5533 159.622C77.9173 159.934 77.1493 160.09 76.2493 160.09C74.8933 160.09 73.7893 159.748 72.9373 159.064C72.0853 158.38 71.6353 157.372 71.5873 156.04H74.0353C74.0593 156.628 74.2573 157.102 74.6293 157.462C75.0133 157.81 75.5353 157.984 76.1953 157.984C76.8073 157.984 77.2753 157.816 77.5993 157.48C77.9353 157.132 78.1033 156.688 78.1033 156.148C78.1033 155.428 77.8753 154.912 77.4193 154.6C76.9633 154.288 76.2553 154.132 75.2953 154.132H74.7733V152.062H75.2953C76.9993 152.062 77.8513 151.492 77.8513 150.352C77.8513 149.836 77.6953 149.434 77.3833 149.146C77.0833 148.858 76.6453 148.714 76.0693 148.714C75.5053 148.714 75.0673 148.87 74.7553 149.182C74.4553 149.482 74.2813 149.866 74.2333 150.334H71.7673ZM91.3267 149.056H85.4947V152.134C85.7467 151.822 86.1067 151.57 86.5747 151.378C87.0427 151.174 87.5407 151.072 88.0687 151.072C89.0287 151.072 89.8147 151.282 90.4267 151.702C91.0387 152.122 91.4827 152.662 91.7587 153.322C92.0347 153.97 92.1727 154.666 92.1727 155.41C92.1727 156.79 91.7767 157.9 90.9847 158.74C90.2047 159.58 89.0887 160 87.6367 160C86.2687 160 85.1767 159.658 84.3607 158.974C83.5447 158.29 83.0827 157.396 82.9747 156.292H85.4227C85.5307 156.772 85.7707 157.156 86.1427 157.444C86.5267 157.732 87.0127 157.876 87.6007 157.876C88.3087 157.876 88.8427 157.654 89.2027 157.21C89.5627 156.766 89.7427 156.178 89.7427 155.446C89.7427 154.702 89.5567 154.138 89.1847 153.754C88.8247 153.358 88.2907 153.16 87.5827 153.16C87.0787 153.16 86.6587 153.286 86.3227 153.538C85.9867 153.79 85.7467 154.126 85.6027 154.546H83.1907V146.842H91.3267V149.056ZM97.1327 157.354L95.0267 162.412H93.4067L94.5767 157.354H97.1327ZM98.697 150.334C98.757 149.134 99.177 148.21 99.957 147.562C100.749 146.902 101.787 146.572 103.071 146.572C103.947 146.572 104.697 146.728 105.321 147.04C105.945 147.34 106.413 147.754 106.725 148.282C107.049 148.798 107.211 149.386 107.211 150.046C107.211 150.802 107.013 151.444 106.617 151.972C106.233 152.488 105.771 152.836 105.231 153.016V153.088C105.927 153.304 106.467 153.688 106.851 154.24C107.247 154.792 107.445 155.5 107.445 156.364C107.445 157.084 107.277 157.726 106.941 158.29C106.617 158.854 106.131 159.298 105.483 159.622C104.847 159.934 104.079 160.09 103.179 160.09C101.823 160.09 100.719 159.748 99.867 159.064C99.015 158.38 98.565 157.372 98.517 156.04H100.965C100.989 156.628 101.187 157.102 101.559 157.462C101.943 157.81 102.465 157.984 103.125 157.984C103.737 157.984 104.205 157.816 104.529 157.48C104.865 157.132 105.033 156.688 105.033 156.148C105.033 155.428 104.805 154.912 104.349 154.6C103.893 154.288 103.185 154.132 102.225 154.132H101.703V152.062H102.225C103.929 152.062 104.781 151.492 104.781 150.352C104.781 149.836 104.625 149.434 104.313 149.146C104.013 148.858 103.575 148.714 102.999 148.714C102.435 148.714 101.997 148.87 101.685 149.182C101.385 149.482 101.211 149.866 101.163 150.334H98.697ZM118.256 149.056H112.424V152.134C112.676 151.822 113.036 151.57 113.504 151.378C113.972 151.174 114.47 151.072 114.998 151.072C115.958 151.072 116.744 151.282 117.356 151.702C117.968 152.122 118.412 152.662 118.688 153.322C118.964 153.97 119.102 154.666 119.102 155.41C119.102 156.79 118.706 157.9 117.914 158.74C117.134 159.58 116.018 160 114.566 160C113.198 160 112.106 159.658 111.29 158.974C110.474 158.29 110.012 157.396 109.904 156.292H112.352C112.46 156.772 112.7 157.156 113.072 157.444C113.456 157.732 113.942 157.876 114.53 157.876C115.238 157.876 115.772 157.654 116.132 157.21C116.492 156.766 116.672 156.178 116.672 155.446C116.672 154.702 116.486 154.138 116.114 153.754C115.754 153.358 115.22 153.16 114.512 153.16C114.008 153.16 113.588 153.286 113.252 153.538C112.916 153.79 112.676 154.126 112.532 154.546H110.12V146.842H118.256V149.056ZM121.812 157.156C122.964 156.196 123.882 155.398 124.566 154.762C125.25 154.114 125.82 153.442 126.276 152.746C126.732 152.05 126.96 151.366 126.96 150.694C126.96 150.082 126.816 149.602 126.528 149.254C126.24 148.906 125.796 148.732 125.196 148.732C124.596 148.732 124.134 148.936 123.81 149.344C123.486 149.74 123.318 150.286 123.306 150.982H120.858C120.906 149.542 121.332 148.45 122.136 147.706C122.952 146.962 123.984 146.59 125.232 146.59C126.6 146.59 127.65 146.956 128.382 147.688C129.114 148.408 129.48 149.362 129.48 150.55C129.48 151.486 129.228 152.38 128.724 153.232C128.22 154.084 127.644 154.828 126.996 155.464C126.348 156.088 125.502 156.844 124.458 157.732H129.768V159.82H120.876V157.948L121.812 157.156ZM132.76 160.126C132.304 160.126 131.926 159.988 131.626 159.712C131.338 159.424 131.194 159.07 131.194 158.65C131.194 158.23 131.338 157.882 131.626 157.606C131.926 157.318 132.304 157.174 132.76 157.174C133.204 157.174 133.57 157.318 133.858 157.606C134.146 157.882 134.29 158.23 134.29 158.65C134.29 159.07 134.146 159.424 133.858 159.712C133.57 159.988 133.204 160.126 132.76 160.126ZM136.032 153.268C136.032 151.192 136.404 149.566 137.148 148.39C137.904 147.214 139.152 146.626 140.892 146.626C142.632 146.626 143.874 147.214 144.618 148.39C145.374 149.566 145.752 151.192 145.752 153.268C145.752 155.356 145.374 156.994 144.618 158.182C143.874 159.37 142.632 159.964 140.892 159.964C139.152 159.964 137.904 159.37 137.148 158.182C136.404 156.994 136.032 155.356 136.032 153.268ZM143.268 153.268C143.268 152.38 143.208 151.636 143.088 151.036C142.98 150.424 142.752 149.926 142.404 149.542C142.068 149.158 141.564 148.966 140.892 148.966C140.22 148.966 139.71 149.158 139.362 149.542C139.026 149.926 138.798 150.424 138.678 151.036C138.57 151.636 138.516 152.38 138.516 153.268C138.516 154.18 138.57 154.948 138.678 155.572C138.786 156.184 139.014 156.682 139.362 157.066C139.71 157.438 140.22 157.624 140.892 157.624C141.564 157.624 142.074 157.438 142.422 157.066C142.77 156.682 142.998 156.184 143.106 155.572C143.214 154.948 143.268 154.18 143.268 153.268ZM148.461 157.156C149.613 156.196 150.531 155.398 151.215 154.762C151.899 154.114 152.469 153.442 152.925 152.746C153.381 152.05 153.609 151.366 153.609 150.694C153.609 150.082 153.465 149.602 153.177 149.254C152.889 148.906 152.445 148.732 151.845 148.732C151.245 148.732 150.783 148.936 150.459 149.344C150.135 149.74 149.967 150.286 149.955 150.982H147.507C147.555 149.542 147.981 148.45 148.785 147.706C149.601 146.962 150.633 146.59 151.881 146.59C153.249 146.59 154.299 146.956 155.031 147.688C155.763 148.408 156.129 149.362 156.129 150.55C156.129 151.486 155.877 152.38 155.373 153.232C154.869 154.084 154.293 154.828 153.645 155.464C152.997 156.088 152.151 156.844 151.107 157.732H156.417V159.82H147.525V157.948L148.461 157.156Z" fill="#E4E4E4"/>
<path d="M59.735 74.65C59.735 73.208 60.057 71.92 60.701 70.786C61.359 69.638 62.248 68.749 63.368 68.119C64.502 67.475 65.769 67.153 67.169 67.153C68.807 67.153 70.242 67.573 71.474 68.413C72.706 69.253 73.567 70.415 74.057 71.899H70.676C70.34 71.199 69.864 70.674 69.248 70.324C68.646 69.974 67.946 69.799 67.148 69.799C66.294 69.799 65.531 70.002 64.859 70.408C64.201 70.8 63.683 71.36 63.305 72.088C62.941 72.816 62.759 73.67 62.759 74.65C62.759 75.616 62.941 76.47 63.305 77.212C63.683 77.94 64.201 78.507 64.859 78.913C65.531 79.305 66.294 79.501 67.148 79.501C67.946 79.501 68.646 79.326 69.248 78.976C69.864 78.612 70.34 78.08 70.676 77.38H74.057C73.567 78.878 72.706 80.047 71.474 80.887C70.256 81.713 68.821 82.126 67.169 82.126C65.769 82.126 64.502 81.811 63.368 81.181C62.248 80.537 61.359 79.648 60.701 78.514C60.057 77.38 59.735 76.092 59.735 74.65ZM83.1201 70.198C84.0021 70.198 84.7861 70.394 85.4721 70.786C86.1581 71.164 86.6901 71.731 87.0681 72.487C87.4601 73.229 87.6561 74.125 87.6561 75.175V82H84.7161V75.574C84.7161 74.65 84.4851 73.943 84.0231 73.453C83.5611 72.949 82.9311 72.697 82.1331 72.697C81.3211 72.697 80.6771 72.949 80.2011 73.453C79.7391 73.943 79.5081 74.65 79.5081 75.574V82H76.5681V66.46H79.5081V71.815C79.8861 71.311 80.3901 70.919 81.0201 70.639C81.6501 70.345 82.3501 70.198 83.1201 70.198ZM89.6959 76.141C89.6959 74.965 89.9269 73.922 90.3889 73.012C90.8649 72.102 91.5019 71.402 92.2999 70.912C93.1119 70.422 94.0149 70.177 95.0089 70.177C95.8769 70.177 96.6329 70.352 97.2769 70.702C97.9349 71.052 98.4599 71.493 98.8519 72.025V70.366H101.813V82H98.8519V80.299C98.4739 80.845 97.9489 81.3 97.2769 81.664C96.6189 82.014 95.8559 82.189 94.9879 82.189C94.0079 82.189 93.1119 81.937 92.2999 81.433C91.5019 80.929 90.8649 80.222 90.3889 79.312C89.9269 78.388 89.6959 77.331 89.6959 76.141ZM98.8519 76.183C98.8519 75.469 98.7119 74.86 98.4319 74.356C98.1519 73.838 97.7739 73.446 97.2979 73.18C96.8219 72.9 96.3109 72.76 95.7649 72.76C95.2189 72.76 94.7149 72.893 94.2529 73.159C93.7909 73.425 93.4129 73.817 93.1189 74.335C92.8389 74.839 92.6989 75.441 92.6989 76.141C92.6989 76.841 92.8389 77.457 93.1189 77.989C93.4129 78.507 93.7909 78.906 94.2529 79.186C94.7289 79.466 95.2329 79.606 95.7649 79.606C96.3109 79.606 96.8219 79.473 97.2979 79.207C97.7739 78.927 98.1519 78.535 98.4319 78.031C98.7119 77.513 98.8519 76.897 98.8519 76.183ZM107.624 72.172C108.002 71.556 108.492 71.073 109.094 70.723C109.71 70.373 110.41 70.198 111.194 70.198V73.285H110.417C109.493 73.285 108.793 73.502 108.317 73.936C107.855 74.37 107.624 75.126 107.624 76.204V82H104.684V70.366H107.624V72.172ZM116.598 72.781V78.409C116.598 78.801 116.689 79.088 116.871 79.27C117.067 79.438 117.389 79.522 117.837 79.522H119.202V82H117.354C114.876 82 113.637 80.796 113.637 78.388V72.781H112.251V70.366H113.637V67.489H116.598V70.366H119.202V72.781H116.598Z" fill="white"/>
<path d="M118.456 430.32V429.324H120.712V438H119.608V430.32H118.456ZM123.992 435.672C124.072 436.128 124.256 436.48 124.544 436.728C124.84 436.976 125.236 437.1 125.732 437.1C126.396 437.1 126.884 436.84 127.196 436.32C127.516 435.8 127.668 434.924 127.652 433.692C127.484 434.052 127.204 434.336 126.812 434.544C126.42 434.744 125.984 434.844 125.504 434.844C124.968 434.844 124.488 434.736 124.064 434.52C123.648 434.296 123.32 433.972 123.08 433.548C122.84 433.124 122.72 432.612 122.72 432.012C122.72 431.156 122.968 430.468 123.464 429.948C123.96 429.42 124.664 429.156 125.576 429.156C126.696 429.156 127.48 429.52 127.928 430.248C128.384 430.976 128.612 432.06 128.612 433.5C128.612 434.508 128.52 435.34 128.336 435.996C128.16 436.652 127.856 437.152 127.424 437.496C127 437.84 126.416 438.012 125.672 438.012C124.856 438.012 124.22 437.792 123.764 437.352C123.308 436.912 123.048 436.352 122.984 435.672H123.992ZM125.684 433.92C126.22 433.92 126.66 433.756 127.004 433.428C127.348 433.092 127.52 432.64 127.52 432.072C127.52 431.472 127.352 430.988 127.016 430.62C126.68 430.252 126.208 430.068 125.6 430.068C125.04 430.068 124.592 430.244 124.256 430.596C123.928 430.948 123.764 431.412 123.764 431.988C123.764 432.572 123.928 433.04 124.256 433.392C124.584 433.744 125.06 433.92 125.684 433.92ZM130.674 438.072C130.466 438.072 130.29 438 130.146 437.856C130.002 437.712 129.93 437.536 129.93 437.328C129.93 437.12 130.002 436.944 130.146 436.8C130.29 436.656 130.466 436.584 130.674 436.584C130.874 436.584 131.042 436.656 131.178 436.8C131.322 436.944 131.394 437.12 131.394 437.328C131.394 437.536 131.322 437.712 131.178 437.856C131.042 438 130.874 438.072 130.674 438.072ZM130.674 432.936C130.466 432.936 130.29 432.864 130.146 432.72C130.002 432.576 129.93 432.4 129.93 432.192C129.93 431.984 130.002 431.808 130.146 431.664C130.29 431.52 130.466 431.448 130.674 431.448C130.874 431.448 131.042 431.52 131.178 431.664C131.322 431.808 131.394 431.984 131.394 432.192C131.394 432.4 131.322 432.576 131.178 432.72C131.042 432.864 130.874 432.936 130.674 432.936ZM132.701 433.572C132.701 432.196 132.925 431.124 133.373 430.356C133.821 429.58 134.605 429.192 135.725 429.192C136.837 429.192 137.617 429.58 138.065 430.356C138.513 431.124 138.737 432.196 138.737 433.572C138.737 434.972 138.513 436.06 138.065 436.836C137.617 437.612 136.837 438 135.725 438C134.605 438 133.821 437.612 133.373 436.836C132.925 436.06 132.701 434.972 132.701 433.572ZM137.657 433.572C137.657 432.876 137.609 432.288 137.513 431.808C137.425 431.32 137.237 430.928 136.949 430.632C136.669 430.336 136.261 430.188 135.725 430.188C135.181 430.188 134.765 430.336 134.477 430.632C134.197 430.928 134.009 431.32 133.913 431.808C133.825 432.288 133.781 432.876 133.781 433.572C133.781 434.292 133.825 434.896 133.913 435.384C134.009 435.872 134.197 436.264 134.477 436.56C134.765 436.856 135.181 437.004 135.725 437.004C136.261 437.004 136.669 436.856 136.949 436.56C137.237 436.264 137.425 435.872 137.513 435.384C137.609 434.896 137.657 434.292 137.657 433.572ZM140.236 433.572C140.236 432.196 140.46 431.124 140.908 430.356C141.356 429.58 142.14 429.192 143.26 429.192C144.372 429.192 145.152 429.58 145.6 430.356C146.048 431.124 146.272 432.196 146.272 433.572C146.272 434.972 146.048 436.06 145.6 436.836C145.152 437.612 144.372 438 143.26 438C142.14 438 141.356 437.612 140.908 436.836C140.46 436.06 140.236 434.972 140.236 433.572ZM145.192 433.572C145.192 432.876 145.144 432.288 145.048 431.808C144.96 431.32 144.772 430.928 144.484 430.632C144.204 430.336 143.796 430.188 143.26 430.188C142.716 430.188 142.3 430.336 142.012 430.632C141.732 430.928 141.544 431.32 141.448 431.808C141.36 432.288 141.316 432.876 141.316 433.572C141.316 434.292 141.36 434.896 141.448 435.384C141.544 435.872 141.732 436.264 142.012 436.56C142.3 436.856 142.716 437.004 143.26 437.004C143.796 437.004 144.204 436.856 144.484 436.56C144.772 436.264 144.96 435.872 145.048 435.384C145.144 434.896 145.192 434.292 145.192 433.572Z" fill="#9E9E9E"/>
<path d="M236.456 430.32V429.324H238.712V438H237.608V430.32H236.456ZM241.992 435.672C242.072 436.128 242.256 436.48 242.544 436.728C242.84 436.976 243.236 437.1 243.732 437.1C244.396 437.1 244.884 436.84 245.196 436.32C245.516 435.8 245.668 434.924 245.652 433.692C245.484 434.052 245.204 434.336 244.812 434.544C244.42 434.744 243.984 434.844 243.504 434.844C242.968 434.844 242.488 434.736 242.064 434.52C241.648 434.296 241.32 433.972 241.08 433.548C240.84 433.124 240.72 432.612 240.72 432.012C240.72 431.156 240.968 430.468 241.464 429.948C241.96 429.42 242.664 429.156 243.576 429.156C244.696 429.156 245.48 429.52 245.928 430.248C246.384 430.976 246.612 432.06 246.612 433.5C246.612 434.508 246.52 435.34 246.336 435.996C246.16 436.652 245.856 437.152 245.424 437.496C245 437.84 244.416 438.012 243.672 438.012C242.856 438.012 242.22 437.792 241.764 437.352C241.308 436.912 241.048 436.352 240.984 435.672H241.992ZM243.684 433.92C244.22 433.92 244.66 433.756 245.004 433.428C245.348 433.092 245.52 432.64 245.52 432.072C245.52 431.472 245.352 430.988 245.016 430.62C244.68 430.252 244.208 430.068 243.6 430.068C243.04 430.068 242.592 430.244 242.256 430.596C241.928 430.948 241.764 431.412 241.764 431.988C241.764 432.572 241.928 433.04 242.256 433.392C242.584 433.744 243.06 433.92 243.684 433.92ZM248.674 438.072C248.466 438.072 248.29 438 248.146 437.856C248.002 437.712 247.93 437.536 247.93 437.328C247.93 437.12 248.002 436.944 248.146 436.8C248.29 436.656 248.466 436.584 248.674 436.584C248.874 436.584 249.042 436.656 249.178 436.8C249.322 436.944 249.394 437.12 249.394 437.328C249.394 437.536 249.322 437.712 249.178 437.856C249.042 438 248.874 438.072 248.674 438.072ZM248.674 432.936C248.466 432.936 248.29 432.864 248.146 432.72C248.002 432.576 247.93 432.4 247.93 432.192C247.93 431.984 248.002 431.808 248.146 431.664C248.29 431.52 248.466 431.448 248.674 431.448C248.874 431.448 249.042 431.52 249.178 431.664C249.322 431.808 249.394 431.984 249.394 432.192C249.394 432.4 249.322 432.576 249.178 432.72C249.042 432.864 248.874 432.936 248.674 432.936ZM250.413 430.32V429.324H252.669V438H251.565V430.32H250.413ZM254.545 433.572C254.545 432.196 254.769 431.124 255.217 430.356C255.665 429.58 256.449 429.192 257.569 429.192C258.681 429.192 259.461 429.58 259.909 430.356C260.357 431.124 260.581 432.196 260.581 433.572C260.581 434.972 260.357 436.06 259.909 436.836C259.461 437.612 258.681 438 257.569 438C256.449 438 255.665 437.612 255.217 436.836C254.769 436.06 254.545 434.972 254.545 433.572ZM259.501 433.572C259.501 432.876 259.453 432.288 259.357 431.808C259.269 431.32 259.081 430.928 258.793 430.632C258.513 430.336 258.105 430.188 257.569 430.188C257.025 430.188 256.609 430.336 256.321 430.632C256.041 430.928 255.853 431.32 255.757 431.808C255.669 432.288 255.625 432.876 255.625 433.572C255.625 434.292 255.669 434.896 255.757 435.384C255.853 435.872 256.041 436.264 256.321 436.56C256.609 436.856 257.025 437.004 257.569 437.004C258.105 437.004 258.513 436.856 258.793 436.56C259.081 436.264 259.269 435.872 259.357 435.384C259.453 434.896 259.501 434.292 259.501 433.572Z" fill="#9E9E9E"/>
<path d="M350.456 430.32V429.324H352.712V438H351.608V430.32H350.456ZM355.992 435.672C356.072 436.128 356.256 436.48 356.544 436.728C356.84 436.976 357.236 437.1 357.732 437.1C358.396 437.1 358.884 436.84 359.196 436.32C359.516 435.8 359.668 434.924 359.652 433.692C359.484 434.052 359.204 434.336 358.812 434.544C358.42 434.744 357.984 434.844 357.504 434.844C356.968 434.844 356.488 434.736 356.064 434.52C355.648 434.296 355.32 433.972 355.08 433.548C354.84 433.124 354.72 432.612 354.72 432.012C354.72 431.156 354.968 430.468 355.464 429.948C355.96 429.42 356.664 429.156 357.576 429.156C358.696 429.156 359.48 429.52 359.928 430.248C360.384 430.976 360.612 432.06 360.612 433.5C360.612 434.508 360.52 435.34 360.336 435.996C360.16 436.652 359.856 437.152 359.424 437.496C359 437.84 358.416 438.012 357.672 438.012C356.856 438.012 356.22 437.792 355.764 437.352C355.308 436.912 355.048 436.352 354.984 435.672H355.992ZM357.684 433.92C358.22 433.92 358.66 433.756 359.004 433.428C359.348 433.092 359.52 432.64 359.52 432.072C359.52 431.472 359.352 430.988 359.016 430.62C358.68 430.252 358.208 430.068 357.6 430.068C357.04 430.068 356.592 430.244 356.256 430.596C355.928 430.948 355.764 431.412 355.764 431.988C355.764 432.572 355.928 433.04 356.256 433.392C356.584 433.744 357.06 433.92 357.684 433.92ZM362.674 438.072C362.466 438.072 362.29 438 362.146 437.856C362.002 437.712 361.93 437.536 361.93 437.328C361.93 437.12 362.002 436.944 362.146 436.8C362.29 436.656 362.466 436.584 362.674 436.584C362.874 436.584 363.042 436.656 363.178 436.8C363.322 436.944 363.394 437.12 363.394 437.328C363.394 437.536 363.322 437.712 363.178 437.856C363.042 438 362.874 438.072 362.674 438.072ZM362.674 432.936C362.466 432.936 362.29 432.864 362.146 432.72C362.002 432.576 361.93 432.4 361.93 432.192C361.93 431.984 362.002 431.808 362.146 431.664C362.29 431.52 362.466 431.448 362.674 431.448C362.874 431.448 363.042 431.52 363.178 431.664C363.322 431.808 363.394 431.984 363.394 432.192C363.394 432.4 363.322 432.576 363.178 432.72C363.042 432.864 362.874 432.936 362.674 432.936ZM364.569 437.124C365.585 436.308 366.381 435.64 366.957 435.12C367.533 434.592 368.017 434.044 368.409 433.476C368.809 432.9 369.009 432.336 369.009 431.784C369.009 431.264 368.881 430.856 368.625 430.56C368.377 430.256 367.973 430.104 367.413 430.104C366.869 430.104 366.445 430.276 366.141 430.62C365.845 430.956 365.685 431.408 365.661 431.976H364.605C364.637 431.08 364.909 430.388 365.421 429.9C365.933 429.412 366.593 429.168 367.401 429.168C368.225 429.168 368.877 429.396 369.357 429.852C369.845 430.308 370.089 430.936 370.089 431.736C370.089 432.4 369.889 433.048 369.489 433.68C369.097 434.304 368.649 434.856 368.145 435.336C367.641 435.808 366.997 436.36 366.213 436.992H370.341V437.904H364.569V437.124ZM371.603 433.572C371.603 432.196 371.827 431.124 372.275 430.356C372.723 429.58 373.507 429.192 374.627 429.192C375.739 429.192 376.519 429.58 376.967 430.356C377.415 431.124 377.639 432.196 377.639 433.572C377.639 434.972 377.415 436.06 376.967 436.836C376.519 437.612 375.739 438 374.627 438C373.507 438 372.723 437.612 372.275 436.836C371.827 436.06 371.603 434.972 371.603 433.572ZM376.559 433.572C376.559 432.876 376.511 432.288 376.415 431.808C376.327 431.32 376.139 430.928 375.851 430.632C375.571 430.336 375.163 430.188 374.627 430.188C374.083 430.188 373.667 430.336 373.379 430.632C373.099 430.928 372.911 431.32 372.815 431.808C372.727 432.288 372.683 432.876 372.683 433.572C372.683 434.292 372.727 434.896 372.815 435.384C372.911 435.872 373.099 436.264 373.379 436.56C373.667 436.856 374.083 437.004 374.627 437.004C375.163 437.004 375.571 436.856 375.851 436.56C376.139 436.264 376.327 435.872 376.415 435.384C376.511 434.896 376.559 434.292 376.559 433.572Z" fill="#9E9E9E"/>
<path d="M467.456 430.32V429.324H469.712V438H468.608V430.32H467.456ZM472.992 435.672C473.072 436.128 473.256 436.48 473.544 436.728C473.84 436.976 474.236 437.1 474.732 437.1C475.396 437.1 475.884 436.84 476.196 436.32C476.516 435.8 476.668 434.924 476.652 433.692C476.484 434.052 476.204 434.336 475.812 434.544C475.42 434.744 474.984 434.844 474.504 434.844C473.968 434.844 473.488 434.736 473.064 434.52C472.648 434.296 472.32 433.972 472.08 433.548C471.84 433.124 471.72 432.612 471.72 432.012C471.72 431.156 471.968 430.468 472.464 429.948C472.96 429.42 473.664 429.156 474.576 429.156C475.696 429.156 476.48 429.52 476.928 430.248C477.384 430.976 477.612 432.06 477.612 433.5C477.612 434.508 477.52 435.34 477.336 435.996C477.16 436.652 476.856 437.152 476.424 437.496C476 437.84 475.416 438.012 474.672 438.012C473.856 438.012 473.22 437.792 472.764 437.352C472.308 436.912 472.048 436.352 471.984 435.672H472.992ZM474.684 433.92C475.22 433.92 475.66 433.756 476.004 433.428C476.348 433.092 476.52 432.64 476.52 432.072C476.52 431.472 476.352 430.988 476.016 430.62C475.68 430.252 475.208 430.068 474.6 430.068C474.04 430.068 473.592 430.244 473.256 430.596C472.928 430.948 472.764 431.412 472.764 431.988C472.764 432.572 472.928 433.04 473.256 433.392C473.584 433.744 474.06 433.92 474.684 433.92ZM479.674 438.072C479.466 438.072 479.29 438 479.146 437.856C479.002 437.712 478.93 437.536 478.93 437.328C478.93 437.12 479.002 436.944 479.146 436.8C479.29 436.656 479.466 436.584 479.674 436.584C479.874 436.584 480.042 436.656 480.178 436.8C480.322 436.944 480.394 437.12 480.394 437.328C480.394 437.536 480.322 437.712 480.178 437.856C480.042 438 479.874 438.072 479.674 438.072ZM479.674 432.936C479.466 432.936 479.29 432.864 479.146 432.72C479.002 432.576 478.93 432.4 478.93 432.192C478.93 431.984 479.002 431.808 479.146 431.664C479.29 431.52 479.466 431.448 479.674 431.448C479.874 431.448 480.042 431.52 480.178 431.664C480.322 431.808 480.394 431.984 480.394 432.192C480.394 432.4 480.322 432.576 480.178 432.72C480.042 432.864 479.874 432.936 479.674 432.936ZM481.677 431.508C481.733 430.772 482.017 430.196 482.529 429.78C483.041 429.364 483.705 429.156 484.521 429.156C485.065 429.156 485.533 429.256 485.925 429.456C486.325 429.648 486.625 429.912 486.825 430.248C487.033 430.584 487.137 430.964 487.137 431.388C487.137 431.884 486.993 432.312 486.705 432.672C486.425 433.032 486.057 433.264 485.601 433.368V433.428C486.121 433.556 486.533 433.808 486.837 434.184C487.141 434.56 487.293 435.052 487.293 435.66C487.293 436.116 487.189 436.528 486.981 436.896C486.773 437.256 486.461 437.54 486.045 437.748C485.629 437.956 485.129 438.06 484.545 438.06C483.697 438.06 483.001 437.84 482.457 437.4C481.913 436.952 481.609 436.32 481.545 435.504H482.601C482.657 435.984 482.853 436.376 483.189 436.68C483.525 436.984 483.973 437.136 484.533 437.136C485.093 437.136 485.517 436.992 485.805 436.704C486.101 436.408 486.249 436.028 486.249 435.564C486.249 434.964 486.049 434.532 485.649 434.268C485.249 434.004 484.645 433.872 483.837 433.872H483.561V432.96H483.849C484.585 432.952 485.141 432.832 485.517 432.6C485.893 432.36 486.081 431.992 486.081 431.496C486.081 431.072 485.941 430.732 485.661 430.476C485.389 430.22 484.997 430.092 484.485 430.092C483.989 430.092 483.589 430.22 483.285 430.476C482.981 430.732 482.801 431.076 482.745 431.508H481.677ZM488.767 433.572C488.767 432.196 488.991 431.124 489.439 430.356C489.887 429.58 490.671 429.192 491.791 429.192C492.903 429.192 493.683 429.58 494.131 430.356C494.579 431.124 494.803 432.196 494.803 433.572C494.803 434.972 494.579 436.06 494.131 436.836C493.683 437.612 492.903 438 491.791 438C490.671 438 489.887 437.612 489.439 436.836C488.991 436.06 488.767 434.972 488.767 433.572ZM493.723 433.572C493.723 432.876 493.675 432.288 493.579 431.808C493.491 431.32 493.303 430.928 493.015 430.632C492.735 430.336 492.327 430.188 491.791 430.188C491.247 430.188 490.831 430.336 490.543 430.632C490.263 430.928 490.075 431.32 489.979 431.808C489.891 432.288 489.847 432.876 489.847 433.572C489.847 434.292 489.891 434.896 489.979 435.384C490.075 435.872 490.263 436.264 490.543 436.56C490.831 436.856 491.247 437.004 491.791 437.004C492.327 437.004 492.735 436.856 493.015 436.56C493.303 436.264 493.491 435.872 493.579 435.384C493.675 434.896 493.723 434.292 493.723 433.572Z" fill="#9E9E9E"/>
<path d="M584.456 430.32V429.324H586.712V438H585.608V430.32H584.456ZM589.992 435.672C590.072 436.128 590.256 436.48 590.544 436.728C590.84 436.976 591.236 437.1 591.732 437.1C592.396 437.1 592.884 436.84 593.196 436.32C593.516 435.8 593.668 434.924 593.652 433.692C593.484 434.052 593.204 434.336 592.812 434.544C592.42 434.744 591.984 434.844 591.504 434.844C590.968 434.844 590.488 434.736 590.064 434.52C589.648 434.296 589.32 433.972 589.08 433.548C588.84 433.124 588.72 432.612 588.72 432.012C588.72 431.156 588.968 430.468 589.464 429.948C589.96 429.42 590.664 429.156 591.576 429.156C592.696 429.156 593.48 429.52 593.928 430.248C594.384 430.976 594.612 432.06 594.612 433.5C594.612 434.508 594.52 435.34 594.336 435.996C594.16 436.652 593.856 437.152 593.424 437.496C593 437.84 592.416 438.012 591.672 438.012C590.856 438.012 590.22 437.792 589.764 437.352C589.308 436.912 589.048 436.352 588.984 435.672H589.992ZM591.684 433.92C592.22 433.92 592.66 433.756 593.004 433.428C593.348 433.092 593.52 432.64 593.52 432.072C593.52 431.472 593.352 430.988 593.016 430.62C592.68 430.252 592.208 430.068 591.6 430.068C591.04 430.068 590.592 430.244 590.256 430.596C589.928 430.948 589.764 431.412 589.764 431.988C589.764 432.572 589.928 433.04 590.256 433.392C590.584 433.744 591.06 433.92 591.684 433.92ZM596.674 438.072C596.466 438.072 596.29 438 596.146 437.856C596.002 437.712 595.93 437.536 595.93 437.328C595.93 437.12 596.002 436.944 596.146 436.8C596.29 436.656 596.466 436.584 596.674 436.584C596.874 436.584 597.042 436.656 597.178 436.8C597.322 436.944 597.394 437.12 597.394 437.328C597.394 437.536 597.322 437.712 597.178 437.856C597.042 438 596.874 438.072 596.674 438.072ZM596.674 432.936C596.466 432.936 596.29 432.864 596.146 432.72C596.002 432.576 595.93 432.4 595.93 432.192C595.93 431.984 596.002 431.808 596.146 431.664C596.29 431.52 596.466 431.448 596.674 431.448C596.874 431.448 597.042 431.52 597.178 431.664C597.322 431.808 597.394 431.984 597.394 432.192C597.394 432.4 597.322 432.576 597.178 432.72C597.042 432.864 596.874 432.936 596.674 432.936ZM598.437 436.068V435.24L602.649 429.408H603.957V435.12H605.157V436.068H603.957V438H602.877V436.068H598.437ZM602.925 430.548L599.697 435.12H602.925V430.548ZM606.248 433.572C606.248 432.196 606.472 431.124 606.92 430.356C607.368 429.58 608.152 429.192 609.272 429.192C610.384 429.192 611.164 429.58 611.612 430.356C612.06 431.124 612.284 432.196 612.284 433.572C612.284 434.972 612.06 436.06 611.612 436.836C611.164 437.612 610.384 438 609.272 438C608.152 438 607.368 437.612 606.92 436.836C606.472 436.06 606.248 434.972 606.248 433.572ZM611.204 433.572C611.204 432.876 611.156 432.288 611.06 431.808C610.972 431.32 610.784 430.928 610.496 430.632C610.216 430.336 609.808 430.188 609.272 430.188C608.728 430.188 608.312 430.336 608.024 430.632C607.744 430.928 607.556 431.32 607.46 431.808C607.372 432.288 607.328 432.876 607.328 433.572C607.328 434.292 607.372 434.896 607.46 435.384C607.556 435.872 607.744 436.264 608.024 436.56C608.312 436.856 608.728 437.004 609.272 437.004C609.808 437.004 610.216 436.856 610.496 436.56C610.784 436.264 610.972 435.872 611.06 435.384C611.156 434.896 611.204 434.292 611.204 433.572Z" fill="#9E9E9E"/>
<path d="M702.456 430.32V429.324H704.712V438H703.608V430.32H702.456ZM707.992 435.672C708.072 436.128 708.256 436.48 708.544 436.728C708.84 436.976 709.236 437.1 709.732 437.1C710.396 437.1 710.884 436.84 711.196 436.32C711.516 435.8 711.668 434.924 711.652 433.692C711.484 434.052 711.204 434.336 710.812 434.544C710.42 434.744 709.984 434.844 709.504 434.844C708.968 434.844 708.488 434.736 708.064 434.52C707.648 434.296 707.32 433.972 707.08 433.548C706.84 433.124 706.72 432.612 706.72 432.012C706.72 431.156 706.968 430.468 707.464 429.948C707.96 429.42 708.664 429.156 709.576 429.156C710.696 429.156 711.48 429.52 711.928 430.248C712.384 430.976 712.612 432.06 712.612 433.5C712.612 434.508 712.52 435.34 712.336 435.996C712.16 436.652 711.856 437.152 711.424 437.496C711 437.84 710.416 438.012 709.672 438.012C708.856 438.012 708.22 437.792 707.764 437.352C707.308 436.912 707.048 436.352 706.984 435.672H707.992ZM709.684 433.92C710.22 433.92 710.66 433.756 711.004 433.428C711.348 433.092 711.52 432.64 711.52 432.072C711.52 431.472 711.352 430.988 711.016 430.62C710.68 430.252 710.208 430.068 709.6 430.068C709.04 430.068 708.592 430.244 708.256 430.596C707.928 430.948 707.764 431.412 707.764 431.988C707.764 432.572 707.928 433.04 708.256 433.392C708.584 433.744 709.06 433.92 709.684 433.92ZM714.674 438.072C714.466 438.072 714.29 438 714.146 437.856C714.002 437.712 713.93 437.536 713.93 437.328C713.93 437.12 714.002 436.944 714.146 436.8C714.29 436.656 714.466 436.584 714.674 436.584C714.874 436.584 715.042 436.656 715.178 436.8C715.322 436.944 715.394 437.12 715.394 437.328C715.394 437.536 715.322 437.712 715.178 437.856C715.042 438 714.874 438.072 714.674 438.072ZM714.674 432.936C714.466 432.936 714.29 432.864 714.146 432.72C714.002 432.576 713.93 432.4 713.93 432.192C713.93 431.984 714.002 431.808 714.146 431.664C714.29 431.52 714.466 431.448 714.674 431.448C714.874 431.448 715.042 431.52 715.178 431.664C715.322 431.808 715.394 431.984 715.394 432.192C715.394 432.4 715.322 432.576 715.178 432.72C715.042 432.864 714.874 432.936 714.674 432.936ZM722.233 430.272H718.021V433.008C718.205 432.752 718.477 432.544 718.837 432.384C719.197 432.216 719.585 432.132 720.001 432.132C720.665 432.132 721.205 432.272 721.621 432.552C722.037 432.824 722.333 433.18 722.509 433.62C722.693 434.052 722.785 434.512 722.785 435C722.785 435.576 722.677 436.092 722.461 436.548C722.245 437.004 721.913 437.364 721.465 437.628C721.025 437.892 720.477 438.024 719.821 438.024C718.981 438.024 718.301 437.808 717.781 437.376C717.261 436.944 716.945 436.368 716.833 435.648H717.901C718.005 436.104 718.225 436.46 718.561 436.716C718.897 436.972 719.321 437.1 719.833 437.1C720.465 437.1 720.941 436.912 721.261 436.536C721.581 436.152 721.741 435.648 721.741 435.024C721.741 434.4 721.581 433.92 721.261 433.584C720.941 433.24 720.469 433.068 719.845 433.068C719.421 433.068 719.049 433.172 718.729 433.38C718.417 433.58 718.189 433.856 718.045 434.208H717.013V429.312H722.233V430.272ZM724.236 433.572C724.236 432.196 724.46 431.124 724.908 430.356C725.356 429.58 726.14 429.192 727.26 429.192C728.372 429.192 729.152 429.58 729.6 430.356C730.048 431.124 730.272 432.196 730.272 433.572C730.272 434.972 730.048 436.06 729.6 436.836C729.152 437.612 728.372 438 727.26 438C726.14 438 725.356 437.612 724.908 436.836C724.46 436.06 724.236 434.972 724.236 433.572ZM729.192 433.572C729.192 432.876 729.144 432.288 729.048 431.808C728.96 431.32 728.772 430.928 728.484 430.632C728.204 430.336 727.796 430.188 727.26 430.188C726.716 430.188 726.3 430.336 726.012 430.632C725.732 430.928 725.544 431.32 725.448 431.808C725.36 432.288 725.316 432.876 725.316 433.572C725.316 434.292 725.36 434.896 725.448 435.384C725.544 435.872 725.732 436.264 726.012 436.56C726.3 436.856 726.716 437.004 727.26 437.004C727.796 437.004 728.204 436.856 728.484 436.56C728.772 436.264 728.96 435.872 729.048 435.384C729.144 434.896 729.192 434.292 729.192 433.572Z" fill="#9E9E9E"/>
<path d="M65.276 196.272H61.064V199.008C61.248 198.752 61.52 198.544 61.88 198.384C62.24 198.216 62.628 198.132 63.044 198.132C63.708 198.132 64.248 198.272 64.664 198.552C65.08 198.824 65.376 199.18 65.552 199.62C65.736 200.052 65.828 200.512 65.828 201C65.828 201.576 65.72 202.092 65.504 202.548C65.288 203.004 64.956 203.364 64.508 203.628C64.068 203.892 63.52 204.024 62.864 204.024C62.024 204.024 61.344 203.808 60.824 203.376C60.304 202.944 59.988 202.368 59.876 201.648H60.944C61.048 202.104 61.268 202.46 61.604 202.716C61.94 202.972 62.364 203.1 62.876 203.1C63.508 203.1 63.984 202.912 64.304 202.536C64.624 202.152 64.784 201.648 64.784 201.024C64.784 200.4 64.624 199.92 64.304 199.584C63.984 199.24 63.512 199.068 62.888 199.068C62.464 199.068 62.092 199.172 61.772 199.38C61.46 199.58 61.232 199.856 61.088 200.208H60.056V195.312H65.276V196.272ZM67.2792 199.572C67.2792 198.196 67.5032 197.124 67.9512 196.356C68.3992 195.58 69.1832 195.192 70.3032 195.192C71.4152 195.192 72.1952 195.58 72.6432 196.356C73.0912 197.124 73.3152 198.196 73.3152 199.572C73.3152 200.972 73.0912 202.06 72.6432 202.836C72.1952 203.612 71.4152 204 70.3032 204C69.1832 204 68.3992 203.612 67.9512 202.836C67.5032 202.06 67.2792 200.972 67.2792 199.572ZM72.2352 199.572C72.2352 198.876 72.1872 198.288 72.0912 197.808C72.0032 197.32 71.8152 196.928 71.5272 196.632C71.2472 196.336 70.8392 196.188 70.3032 196.188C69.7592 196.188 69.3432 196.336 69.0552 196.632C68.7752 196.928 68.5872 197.32 68.4912 197.808C68.4032 198.288 68.3592 198.876 68.3592 199.572C68.3592 200.292 68.4032 200.896 68.4912 201.384C68.5872 201.872 68.7752 202.264 69.0552 202.56C69.3432 202.856 69.7592 203.004 70.3032 203.004C70.8392 203.004 71.2472 202.856 71.5272 202.56C71.8152 202.264 72.0032 201.872 72.0912 201.384C72.1872 200.896 72.2352 200.292 72.2352 199.572ZM75.3423 204.072C75.1343 204.072 74.9583 204 74.8143 203.856C74.6703 203.712 74.5983 203.536 74.5983 203.328C74.5983 203.12 74.6703 202.944 74.8143 202.8C74.9583 202.656 75.1343 202.584 75.3423 202.584C75.5423 202.584 75.7103 202.656 75.8463 202.8C75.9903 202.944 76.0623 203.12 76.0623 203.328C76.0623 203.536 75.9903 203.712 75.8463 203.856C75.7103 204 75.5423 204.072 75.3423 204.072ZM77.3338 199.572C77.3338 198.196 77.5578 197.124 78.0058 196.356C78.4538 195.58 79.2378 195.192 80.3578 195.192C81.4698 195.192 82.2498 195.58 82.6978 196.356C83.1458 197.124 83.3698 198.196 83.3698 199.572C83.3698 200.972 83.1458 202.06 82.6978 202.836C82.2498 203.612 81.4698 204 80.3578 204C79.2378 204 78.4538 203.612 78.0058 202.836C77.5578 202.06 77.3338 200.972 77.3338 199.572ZM82.2898 199.572C82.2898 198.876 82.2418 198.288 82.1458 197.808C82.0578 197.32 81.8698 196.928 81.5818 196.632C81.3018 196.336 80.8938 196.188 80.3578 196.188C79.8138 196.188 79.3978 196.336 79.1098 196.632C78.8298 196.928 78.6418 197.32 78.5458 197.808C78.4578 198.288 78.4138 198.876 78.4138 199.572C78.4138 200.292 78.4578 200.896 78.5458 201.384C78.6418 201.872 78.8298 202.264 79.1098 202.56C79.3978 202.856 79.8138 203.004 80.3578 203.004C80.8938 203.004 81.3018 202.856 81.5818 202.56C81.8698 202.264 82.0578 201.872 82.1458 201.384C82.2418 200.896 82.2898 200.292 82.2898 199.572ZM84.869 199.572C84.869 198.196 85.093 197.124 85.541 196.356C85.989 195.58 86.773 195.192 87.893 195.192C89.005 195.192 89.785 195.58 90.233 196.356C90.681 197.124 90.905 198.196 90.905 199.572C90.905 200.972 90.681 202.06 90.233 202.836C89.785 203.612 89.005 204 87.893 204C86.773 204 85.989 203.612 85.541 202.836C85.093 202.06 84.869 200.972 84.869 199.572ZM89.825 199.572C89.825 198.876 89.777 198.288 89.681 197.808C89.593 197.32 89.405 196.928 89.117 196.632C88.837 196.336 88.429 196.188 87.893 196.188C87.349 196.188 86.933 196.336 86.645 196.632C86.365 196.928 86.177 197.32 86.081 197.808C85.993 198.288 85.949 198.876 85.949 199.572C85.949 200.292 85.993 200.896 86.081 201.384C86.177 201.872 86.365 202.264 86.645 202.56C86.933 202.856 87.349 203.004 87.893 203.004C88.429 203.004 88.837 202.856 89.117 202.56C89.405 202.264 89.593 201.872 89.681 201.384C89.777 200.896 89.825 200.292 89.825 199.572ZM92.4042 199.572C92.4042 198.196 92.6282 197.124 93.0762 196.356C93.5242 195.58 94.3082 195.192 95.4282 195.192C96.5402 195.192 97.3202 195.58 97.7682 196.356C98.2162 197.124 98.4402 198.196 98.4402 199.572C98.4402 200.972 98.2162 202.06 97.7682 202.836C97.3202 203.612 96.5402 204 95.4282 204C94.3082 204 93.5242 203.612 93.0762 202.836C92.6282 202.06 92.4042 200.972 92.4042 199.572ZM97.3602 199.572C97.3602 198.876 97.3122 198.288 97.2162 197.808C97.1282 197.32 96.9402 196.928 96.6522 196.632C96.3722 196.336 95.9642 196.188 95.4282 196.188C94.8842 196.188 94.4682 196.336 94.1802 196.632C93.9002 196.928 93.7122 197.32 93.6162 197.808C93.5282 198.288 93.4842 198.876 93.4842 199.572C93.4842 200.292 93.5282 200.896 93.6162 201.384C93.7122 201.872 93.9002 202.264 94.1802 202.56C94.4682 202.856 94.8842 203.004 95.4282 203.004C95.9642 203.004 96.3722 202.856 96.6522 202.56C96.9402 202.264 97.1282 201.872 97.2162 201.384C97.3122 200.896 97.3602 200.292 97.3602 199.572Z" fill="#9E9E9E"/>
<path d="M59.48 253.068V252.24L63.692 246.408H65V252.12H66.2V253.068H65V255H63.92V253.068H59.48ZM63.968 247.548L60.74 252.12H63.968V247.548ZM67.2909 250.572C67.2909 249.196 67.5149 248.124 67.9629 247.356C68.4109 246.58 69.1949 246.192 70.3149 246.192C71.4269 246.192 72.2069 246.58 72.6549 247.356C73.1029 248.124 73.3269 249.196 73.3269 250.572C73.3269 251.972 73.1029 253.06 72.6549 253.836C72.2069 254.612 71.4269 255 70.3149 255C69.1949 255 68.4109 254.612 67.9629 253.836C67.5149 253.06 67.2909 251.972 67.2909 250.572ZM72.2469 250.572C72.2469 249.876 72.1989 249.288 72.1029 248.808C72.0149 248.32 71.8269 247.928 71.5389 247.632C71.2589 247.336 70.8509 247.188 70.3149 247.188C69.7709 247.188 69.3549 247.336 69.0669 247.632C68.7869 247.928 68.5989 248.32 68.5029 248.808C68.4149 249.288 68.3709 249.876 68.3709 250.572C68.3709 251.292 68.4149 251.896 68.5029 252.384C68.5989 252.872 68.7869 253.264 69.0669 253.56C69.3549 253.856 69.7709 254.004 70.3149 254.004C70.8509 254.004 71.2589 253.856 71.5389 253.56C71.8269 253.264 72.0149 252.872 72.1029 252.384C72.1989 251.896 72.2469 251.292 72.2469 250.572ZM75.354 255.072C75.146 255.072 74.97 255 74.826 254.856C74.682 254.712 74.61 254.536 74.61 254.328C74.61 254.12 74.682 253.944 74.826 253.8C74.97 253.656 75.146 253.584 75.354 253.584C75.554 253.584 75.722 253.656 75.858 253.8C76.002 253.944 76.074 254.12 76.074 254.328C76.074 254.536 76.002 254.712 75.858 254.856C75.722 255 75.554 255.072 75.354 255.072ZM77.3456 250.572C77.3456 249.196 77.5696 248.124 78.0176 247.356C78.4656 246.58 79.2496 246.192 80.3696 246.192C81.4816 246.192 82.2616 246.58 82.7096 247.356C83.1576 248.124 83.3816 249.196 83.3816 250.572C83.3816 251.972 83.1576 253.06 82.7096 253.836C82.2616 254.612 81.4816 255 80.3696 255C79.2496 255 78.4656 254.612 78.0176 253.836C77.5696 253.06 77.3456 251.972 77.3456 250.572ZM82.3016 250.572C82.3016 249.876 82.2536 249.288 82.1576 248.808C82.0696 248.32 81.8816 247.928 81.5936 247.632C81.3136 247.336 80.9056 247.188 80.3696 247.188C79.8256 247.188 79.4096 247.336 79.1216 247.632C78.8416 247.928 78.6536 248.32 78.5576 248.808C78.4696 249.288 78.4256 249.876 78.4256 250.572C78.4256 251.292 78.4696 251.896 78.5576 252.384C78.6536 252.872 78.8416 253.264 79.1216 253.56C79.4096 253.856 79.8256 254.004 80.3696 254.004C80.9056 254.004 81.3136 253.856 81.5936 253.56C81.8816 253.264 82.0696 252.872 82.1576 252.384C82.2536 251.896 82.3016 251.292 82.3016 250.572ZM84.8807 250.572C84.8807 249.196 85.1047 248.124 85.5527 247.356C86.0007 246.58 86.7847 246.192 87.9047 246.192C89.0167 246.192 89.7967 246.58 90.2447 247.356C90.6927 248.124 90.9167 249.196 90.9167 250.572C90.9167 251.972 90.6927 253.06 90.2447 253.836C89.7967 254.612 89.0167 255 87.9047 255C86.7847 255 86.0007 254.612 85.5527 253.836C85.1047 253.06 84.8807 251.972 84.8807 250.572ZM89.8367 250.572C89.8367 249.876 89.7887 249.288 89.6927 248.808C89.6047 248.32 89.4167 247.928 89.1287 247.632C88.8487 247.336 88.4407 247.188 87.9047 247.188C87.3607 247.188 86.9447 247.336 86.6567 247.632C86.3767 247.928 86.1887 248.32 86.0927 248.808C86.0047 249.288 85.9607 249.876 85.9607 250.572C85.9607 251.292 86.0047 251.896 86.0927 252.384C86.1887 252.872 86.3767 253.264 86.6567 253.56C86.9447 253.856 87.3607 254.004 87.9047 254.004C88.4407 254.004 88.8487 253.856 89.1287 253.56C89.4167 253.264 89.6047 252.872 89.6927 252.384C89.7887 251.896 89.8367 251.292 89.8367 250.572ZM92.4159 250.572C92.4159 249.196 92.6399 248.124 93.0879 247.356C93.5359 246.58 94.3199 246.192 95.4399 246.192C96.5519 246.192 97.3319 246.58 97.7799 247.356C98.2279 248.124 98.4519 249.196 98.4519 250.572C98.4519 251.972 98.2279 253.06 97.7799 253.836C97.3319 254.612 96.5519 255 95.4399 255C94.3199 255 93.5359 254.612 93.0879 253.836C92.6399 253.06 92.4159 251.972 92.4159 250.572ZM97.3719 250.572C97.3719 249.876 97.3239 249.288 97.2279 248.808C97.1399 248.32 96.9519 247.928 96.6639 247.632C96.3839 247.336 95.9759 247.188 95.4399 247.188C94.8959 247.188 94.4799 247.336 94.1919 247.632C93.9119 247.928 93.7239 248.32 93.6279 248.808C93.5399 249.288 93.4959 249.876 93.4959 250.572C93.4959 251.292 93.5399 251.896 93.6279 252.384C93.7239 252.872 93.9119 253.264 94.1919 253.56C94.4799 253.856 94.8959 254.004 95.4399 254.004C95.9759 254.004 96.3839 253.856 96.6639 253.56C96.9519 253.264 97.1399 252.872 97.2279 252.384C97.3239 251.896 97.3719 251.292 97.3719 250.572Z" fill="#9E9E9E"/>
<path d="M59.72 299.508C59.776 298.772 60.06 298.196 60.572 297.78C61.084 297.364 61.748 297.156 62.564 297.156C63.108 297.156 63.576 297.256 63.968 297.456C64.368 297.648 64.668 297.912 64.868 298.248C65.076 298.584 65.18 298.964 65.18 299.388C65.18 299.884 65.036 300.312 64.748 300.672C64.468 301.032 64.1 301.264 63.644 301.368V301.428C64.164 301.556 64.576 301.808 64.88 302.184C65.184 302.56 65.336 303.052 65.336 303.66C65.336 304.116 65.232 304.528 65.024 304.896C64.816 305.256 64.504 305.54 64.088 305.748C63.672 305.956 63.172 306.06 62.588 306.06C61.74 306.06 61.044 305.84 60.5 305.4C59.956 304.952 59.652 304.32 59.588 303.504H60.644C60.7 303.984 60.896 304.376 61.232 304.68C61.568 304.984 62.016 305.136 62.576 305.136C63.136 305.136 63.56 304.992 63.848 304.704C64.144 304.408 64.292 304.028 64.292 303.564C64.292 302.964 64.092 302.532 63.692 302.268C63.292 302.004 62.688 301.872 61.88 301.872H61.604V300.96H61.892C62.628 300.952 63.184 300.832 63.56 300.6C63.936 300.36 64.124 299.992 64.124 299.496C64.124 299.072 63.984 298.732 63.704 298.476C63.432 298.22 63.04 298.092 62.528 298.092C62.032 298.092 61.632 298.22 61.328 298.476C61.024 298.732 60.844 299.076 60.788 299.508H59.72ZM66.8104 301.572C66.8104 300.196 67.0344 299.124 67.4824 298.356C67.9304 297.58 68.7144 297.192 69.8344 297.192C70.9464 297.192 71.7264 297.58 72.1744 298.356C72.6224 299.124 72.8464 300.196 72.8464 301.572C72.8464 302.972 72.6224 304.06 72.1744 304.836C71.7264 305.612 70.9464 306 69.8344 306C68.7144 306 67.9304 305.612 67.4824 304.836C67.0344 304.06 66.8104 302.972 66.8104 301.572ZM71.7664 301.572C71.7664 300.876 71.7184 300.288 71.6224 299.808C71.5344 299.32 71.3464 298.928 71.0584 298.632C70.7784 298.336 70.3704 298.188 69.8344 298.188C69.2904 298.188 68.8744 298.336 68.5864 298.632C68.3064 298.928 68.1184 299.32 68.0224 299.808C67.9344 300.288 67.8904 300.876 67.8904 301.572C67.8904 302.292 67.9344 302.896 68.0224 303.384C68.1184 303.872 68.3064 304.264 68.5864 304.56C68.8744 304.856 69.2904 305.004 69.8344 305.004C70.3704 305.004 70.7784 304.856 71.0584 304.56C71.3464 304.264 71.5344 303.872 71.6224 303.384C71.7184 302.896 71.7664 302.292 71.7664 301.572ZM74.8736 306.072C74.6656 306.072 74.4896 306 74.3456 305.856C74.2016 305.712 74.1296 305.536 74.1296 305.328C74.1296 305.12 74.2016 304.944 74.3456 304.8C74.4896 304.656 74.6656 304.584 74.8736 304.584C75.0736 304.584 75.2416 304.656 75.3776 304.8C75.5216 304.944 75.5936 305.12 75.5936 305.328C75.5936 305.536 75.5216 305.712 75.3776 305.856C75.2416 306 75.0736 306.072 74.8736 306.072ZM76.8651 301.572C76.8651 300.196 77.0891 299.124 77.5371 298.356C77.9851 297.58 78.7691 297.192 79.8891 297.192C81.0011 297.192 81.7811 297.58 82.2291 298.356C82.6771 299.124 82.9011 300.196 82.9011 301.572C82.9011 302.972 82.6771 304.06 82.2291 304.836C81.7811 305.612 81.0011 306 79.8891 306C78.7691 306 77.9851 305.612 77.5371 304.836C77.0891 304.06 76.8651 302.972 76.8651 301.572ZM81.8211 301.572C81.8211 300.876 81.7731 300.288 81.6771 299.808C81.5891 299.32 81.4011 298.928 81.1131 298.632C80.8331 298.336 80.4251 298.188 79.8891 298.188C79.3451 298.188 78.9291 298.336 78.6411 298.632C78.3611 298.928 78.1731 299.32 78.0771 299.808C77.9891 300.288 77.9451 300.876 77.9451 301.572C77.9451 302.292 77.9891 302.896 78.0771 303.384C78.1731 303.872 78.3611 304.264 78.6411 304.56C78.9291 304.856 79.3451 305.004 79.8891 305.004C80.4251 305.004 80.8331 304.856 81.1131 304.56C81.4011 304.264 81.5891 303.872 81.6771 303.384C81.7731 302.896 81.8211 302.292 81.8211 301.572ZM84.4003 301.572C84.4003 300.196 84.6243 299.124 85.0723 298.356C85.5203 297.58 86.3043 297.192 87.4243 297.192C88.5363 297.192 89.3163 297.58 89.7643 298.356C90.2122 299.124 90.4362 300.196 90.4362 301.572C90.4362 302.972 90.2122 304.06 89.7643 304.836C89.3163 305.612 88.5363 306 87.4243 306C86.3043 306 85.5203 305.612 85.0723 304.836C84.6243 304.06 84.4003 302.972 84.4003 301.572ZM89.3563 301.572C89.3563 300.876 89.3083 300.288 89.2123 299.808C89.1243 299.32 88.9363 298.928 88.6483 298.632C88.3683 298.336 87.9603 298.188 87.4243 298.188C86.8803 298.188 86.4643 298.336 86.1763 298.632C85.8963 298.928 85.7083 299.32 85.6123 299.808C85.5243 300.288 85.4803 300.876 85.4803 301.572C85.4803 302.292 85.5243 302.896 85.6123 303.384C85.7083 303.872 85.8963 304.264 86.1763 304.56C86.4643 304.856 86.8803 305.004 87.4243 305.004C87.9603 305.004 88.3683 304.856 88.6483 304.56C88.9363 304.264 89.1243 303.872 89.2123 303.384C89.3083 302.896 89.3563 302.292 89.3563 301.572ZM91.9354 301.572C91.9354 300.196 92.1594 299.124 92.6074 298.356C93.0554 297.58 93.8394 297.192 94.9594 297.192C96.0714 297.192 96.8514 297.58 97.2994 298.356C97.7474 299.124 97.9714 300.196 97.9714 301.572C97.9714 302.972 97.7474 304.06 97.2994 304.836C96.8514 305.612 96.0714 306 94.9594 306C93.8394 306 93.0554 305.612 92.6074 304.836C92.1594 304.06 91.9354 302.972 91.9354 301.572ZM96.8914 301.572C96.8914 300.876 96.8434 300.288 96.7474 299.808C96.6594 299.32 96.4714 298.928 96.1834 298.632C95.9034 298.336 95.4954 298.188 94.9594 298.188C94.4154 298.188 93.9994 298.336 93.7114 298.632C93.4314 298.928 93.2434 299.32 93.1474 299.808C93.0594 300.288 93.0154 300.876 93.0154 301.572C93.0154 302.292 93.0594 302.896 93.1474 303.384C93.2434 303.872 93.4314 304.264 93.7114 304.56C93.9994 304.856 94.4154 305.004 94.9594 305.004C95.4954 305.004 95.9034 304.856 96.1834 304.56C96.4714 304.264 96.6594 303.872 96.7474 303.384C96.8434 302.896 96.8914 302.292 96.8914 301.572Z" fill="#9E9E9E"/>
<path d="M59.612 356.124C60.628 355.308 61.424 354.64 62 354.12C62.576 353.592 63.06 353.044 63.452 352.476C63.852 351.9 64.052 351.336 64.052 350.784C64.052 350.264 63.924 349.856 63.668 349.56C63.42 349.256 63.016 349.104 62.456 349.104C61.912 349.104 61.488 349.276 61.184 349.62C60.888 349.956 60.728 350.408 60.704 350.976H59.648C59.68 350.08 59.952 349.388 60.464 348.9C60.976 348.412 61.636 348.168 62.444 348.168C63.268 348.168 63.92 348.396 64.4 348.852C64.888 349.308 65.132 349.936 65.132 350.736C65.132 351.4 64.932 352.048 64.532 352.68C64.14 353.304 63.692 353.856 63.188 354.336C62.684 354.808 62.04 355.36 61.256 355.992H65.384V356.904H59.612V356.124ZM66.6463 352.572C66.6463 351.196 66.8703 350.124 67.3183 349.356C67.7663 348.58 68.5503 348.192 69.6703 348.192C70.7823 348.192 71.5623 348.58 72.0103 349.356C72.4583 350.124 72.6823 351.196 72.6823 352.572C72.6823 353.972 72.4583 355.06 72.0103 355.836C71.5623 356.612 70.7823 357 69.6703 357C68.5503 357 67.7663 356.612 67.3183 355.836C66.8703 355.06 66.6463 353.972 66.6463 352.572ZM71.6023 352.572C71.6023 351.876 71.5543 351.288 71.4583 350.808C71.3703 350.32 71.1823 349.928 70.8943 349.632C70.6143 349.336 70.2063 349.188 69.6703 349.188C69.1263 349.188 68.7103 349.336 68.4223 349.632C68.1423 349.928 67.9543 350.32 67.8583 350.808C67.7703 351.288 67.7263 351.876 67.7263 352.572C67.7263 353.292 67.7703 353.896 67.8583 354.384C67.9543 354.872 68.1423 355.264 68.4223 355.56C68.7103 355.856 69.1263 356.004 69.6703 356.004C70.2063 356.004 70.6143 355.856 70.8943 355.56C71.1823 355.264 71.3703 354.872 71.4583 354.384C71.5543 353.896 71.6023 353.292 71.6023 352.572ZM74.7095 357.072C74.5015 357.072 74.3255 357 74.1815 356.856C74.0375 356.712 73.9655 356.536 73.9655 356.328C73.9655 356.12 74.0375 355.944 74.1815 355.8C74.3255 355.656 74.5015 355.584 74.7095 355.584C74.9095 355.584 75.0775 355.656 75.2135 355.8C75.3575 355.944 75.4295 356.12 75.4295 356.328C75.4295 356.536 75.3575 356.712 75.2135 356.856C75.0775 357 74.9095 357.072 74.7095 357.072ZM76.701 352.572C76.701 351.196 76.925 350.124 77.373 349.356C77.821 348.58 78.605 348.192 79.725 348.192C80.837 348.192 81.617 348.58 82.065 349.356C82.513 350.124 82.737 351.196 82.737 352.572C82.737 353.972 82.513 355.06 82.065 355.836C81.617 356.612 80.837 357 79.725 357C78.605 357 77.821 356.612 77.373 355.836C76.925 355.06 76.701 353.972 76.701 352.572ZM81.657 352.572C81.657 351.876 81.609 351.288 81.513 350.808C81.425 350.32 81.237 349.928 80.949 349.632C80.669 349.336 80.261 349.188 79.725 349.188C79.181 349.188 78.765 349.336 78.477 349.632C78.197 349.928 78.009 350.32 77.913 350.808C77.825 351.288 77.781 351.876 77.781 352.572C77.781 353.292 77.825 353.896 77.913 354.384C78.009 354.872 78.197 355.264 78.477 355.56C78.765 355.856 79.181 356.004 79.725 356.004C80.261 356.004 80.669 355.856 80.949 355.56C81.237 355.264 81.425 354.872 81.513 354.384C81.609 353.896 81.657 353.292 81.657 352.572ZM84.2362 352.572C84.2362 351.196 84.4602 350.124 84.9082 349.356C85.3562 348.58 86.1402 348.192 87.2602 348.192C88.3722 348.192 89.1522 348.58 89.6002 349.356C90.0482 350.124 90.2722 351.196 90.2722 352.572C90.2722 353.972 90.0482 355.06 89.6002 355.836C89.1522 356.612 88.3722 357 87.2602 357C86.1402 357 85.3562 356.612 84.9082 355.836C84.4602 355.06 84.2362 353.972 84.2362 352.572ZM89.1922 352.572C89.1922 351.876 89.1442 351.288 89.0482 350.808C88.9602 350.32 88.7722 349.928 88.4842 349.632C88.2042 349.336 87.7962 349.188 87.2602 349.188C86.7162 349.188 86.3002 349.336 86.0122 349.632C85.7322 349.928 85.5442 350.32 85.4482 350.808C85.3602 351.288 85.3162 351.876 85.3162 352.572C85.3162 353.292 85.3602 353.896 85.4482 354.384C85.5442 354.872 85.7322 355.264 86.0122 355.56C86.3002 355.856 86.7162 356.004 87.2602 356.004C87.7962 356.004 88.2042 355.856 88.4842 355.56C88.7722 355.264 88.9602 354.872 89.0482 354.384C89.1442 353.896 89.1922 353.292 89.1922 352.572ZM91.7713 352.572C91.7713 351.196 91.9953 350.124 92.4433 349.356C92.8913 348.58 93.6753 348.192 94.7953 348.192C95.9073 348.192 96.6873 348.58 97.1353 349.356C97.5833 350.124 97.8073 351.196 97.8073 352.572C97.8073 353.972 97.5833 355.06 97.1353 355.836C96.6873 356.612 95.9073 357 94.7953 357C93.6753 357 92.8913 356.612 92.4433 355.836C91.9953 355.06 91.7713 353.972 91.7713 352.572ZM96.7273 352.572C96.7273 351.876 96.6793 351.288 96.5833 350.808C96.4953 350.32 96.3073 349.928 96.0193 349.632C95.7393 349.336 95.3313 349.188 94.7953 349.188C94.2513 349.188 93.8353 349.336 93.5473 349.632C93.2673 349.928 93.0793 350.32 92.9833 350.808C92.8953 351.288 92.8513 351.876 92.8513 352.572C92.8513 353.292 92.8953 353.896 92.9833 354.384C93.0793 354.872 93.2673 355.264 93.5473 355.56C93.8353 355.856 94.2513 356.004 94.7953 356.004C95.3313 356.004 95.7393 355.856 96.0193 355.56C96.3073 355.264 96.4953 354.872 96.5833 354.384C96.6793 353.896 96.7273 353.292 96.7273 352.572Z" fill="#9E9E9E"/>
<path d="M59.456 400.32V399.324H61.712V408H60.608V400.32H59.456ZM63.5878 403.572C63.5878 402.196 63.8118 401.124 64.2598 400.356C64.7078 399.58 65.4918 399.192 66.6118 399.192C67.7238 399.192 68.5038 399.58 68.9518 400.356C69.3997 401.124 69.6237 402.196 69.6237 403.572C69.6237 404.972 69.3997 406.06 68.9518 406.836C68.5038 407.612 67.7238 408 66.6118 408C65.4918 408 64.7078 407.612 64.2598 406.836C63.8118 406.06 63.5878 404.972 63.5878 403.572ZM68.5438 403.572C68.5438 402.876 68.4958 402.288 68.3998 401.808C68.3118 401.32 68.1238 400.928 67.8358 400.632C67.5558 400.336 67.1478 400.188 66.6118 400.188C66.0678 400.188 65.6518 400.336 65.3638 400.632C65.0838 400.928 64.8958 401.32 64.7998 401.808C64.7118 402.288 64.6678 402.876 64.6678 403.572C64.6678 404.292 64.7118 404.896 64.7998 405.384C64.8958 405.872 65.0838 406.264 65.3638 406.56C65.6518 406.856 66.0678 407.004 66.6118 407.004C67.1478 407.004 67.5558 406.856 67.8358 406.56C68.1238 406.264 68.3118 405.872 68.3998 405.384C68.4958 404.896 68.5438 404.292 68.5438 403.572ZM71.6509 408.072C71.4429 408.072 71.2669 408 71.1229 407.856C70.9789 407.712 70.9069 407.536 70.9069 407.328C70.9069 407.12 70.9789 406.944 71.1229 406.8C71.2669 406.656 71.4429 406.584 71.6509 406.584C71.8509 406.584 72.0189 406.656 72.1549 406.8C72.2989 406.944 72.3709 407.12 72.3709 407.328C72.3709 407.536 72.2989 407.712 72.1549 407.856C72.0189 408 71.8509 408.072 71.6509 408.072ZM73.6424 403.572C73.6424 402.196 73.8664 401.124 74.3144 400.356C74.7624 399.58 75.5464 399.192 76.6664 399.192C77.7784 399.192 78.5584 399.58 79.0064 400.356C79.4544 401.124 79.6784 402.196 79.6784 403.572C79.6784 404.972 79.4544 406.06 79.0064 406.836C78.5584 407.612 77.7784 408 76.6664 408C75.5464 408 74.7624 407.612 74.3144 406.836C73.8664 406.06 73.6424 404.972 73.6424 403.572ZM78.5984 403.572C78.5984 402.876 78.5504 402.288 78.4544 401.808C78.3664 401.32 78.1784 400.928 77.8904 400.632C77.6104 400.336 77.2024 400.188 76.6664 400.188C76.1224 400.188 75.7064 400.336 75.4184 400.632C75.1384 400.928 74.9504 401.32 74.8544 401.808C74.7664 402.288 74.7224 402.876 74.7224 403.572C74.7224 404.292 74.7664 404.896 74.8544 405.384C74.9504 405.872 75.1384 406.264 75.4184 406.56C75.7064 406.856 76.1224 407.004 76.6664 407.004C77.2024 407.004 77.6104 406.856 77.8904 406.56C78.1784 406.264 78.3664 405.872 78.4544 405.384C78.5504 404.896 78.5984 404.292 78.5984 403.572ZM81.1776 403.572C81.1776 402.196 81.4016 401.124 81.8496 400.356C82.2976 399.58 83.0816 399.192 84.2016 399.192C85.3136 399.192 86.0936 399.58 86.5416 400.356C86.9896 401.124 87.2136 402.196 87.2136 403.572C87.2136 404.972 86.9896 406.06 86.5416 406.836C86.0936 407.612 85.3136 408 84.2016 408C83.0816 408 82.2976 407.612 81.8496 406.836C81.4016 406.06 81.1776 404.972 81.1776 403.572ZM86.1336 403.572C86.1336 402.876 86.0856 402.288 85.9896 401.808C85.9016 401.32 85.7136 400.928 85.4256 400.632C85.1456 400.336 84.7376 400.188 84.2016 400.188C83.6576 400.188 83.2416 400.336 82.9536 400.632C82.6736 400.928 82.4856 401.32 82.3896 401.808C82.3016 402.288 82.2576 402.876 82.2576 403.572C82.2576 404.292 82.3016 404.896 82.3896 405.384C82.4856 405.872 82.6736 406.264 82.9536 406.56C83.2416 406.856 83.6576 407.004 84.2016 407.004C84.7376 407.004 85.1456 406.856 85.4256 406.56C85.7136 406.264 85.9016 405.872 85.9896 405.384C86.0856 404.896 86.1336 404.292 86.1336 403.572ZM88.7128 403.572C88.7128 402.196 88.9368 401.124 89.3848 400.356C89.8328 399.58 90.6168 399.192 91.7368 399.192C92.8488 399.192 93.6288 399.58 94.0768 400.356C94.5247 401.124 94.7487 402.196 94.7487 403.572C94.7487 404.972 94.5247 406.06 94.0768 406.836C93.6288 407.612 92.8488 408 91.7368 408C90.6168 408 89.8328 407.612 89.3848 406.836C88.9368 406.06 88.7128 404.972 88.7128 403.572ZM93.6688 403.572C93.6688 402.876 93.6208 402.288 93.5248 401.808C93.4368 401.32 93.2488 400.928 92.9608 400.632C92.6808 400.336 92.2728 400.188 91.7368 400.188C91.1928 400.188 90.7768 400.336 90.4888 400.632C90.2088 400.928 90.0208 401.32 89.9248 401.808C89.8368 402.288 89.7928 402.876 89.7928 403.572C89.7928 404.292 89.8368 404.896 89.9248 405.384C90.0208 405.872 90.2088 406.264 90.4888 406.56C90.7768 406.856 91.1928 407.004 91.7368 407.004C92.2728 407.004 92.6808 406.856 92.9608 406.56C93.2488 406.264 93.4368 405.872 93.5248 405.384C93.6208 404.896 93.6688 404.292 93.6688 403.572Z" fill="#9E9E9E"/>
<line x1="111" y1="403.5" x2="739" y2="403.5" stroke="#31353F"/>
<rect x="494" y="133" width="40" height="22" rx="11" fill="#3A6FF8"/>
<path d="M509.455 141.75V140.71H511.535V148H510.385V141.75H509.455ZM516.101 142.4C516.521 142.4 516.894 142.49 517.221 142.67C517.554 142.85 517.814 143.117 518.001 143.47C518.194 143.823 518.291 144.25 518.291 144.75V148H517.161V144.92C517.161 144.427 517.038 144.05 516.791 143.79C516.544 143.523 516.208 143.39 515.781 143.39C515.354 143.39 515.014 143.523 514.761 143.79C514.514 144.05 514.391 144.427 514.391 144.92V148H513.251V140.6H514.391V143.13C514.584 142.897 514.828 142.717 515.121 142.59C515.421 142.463 515.748 142.4 516.101 142.4Z" fill="#E4E4E4"/>
<rect x="544.5" y="133.5" width="42" height="21" rx="10.5" stroke="#31353F"/>
<path d="M559.864 142.51C559.904 141.89 560.141 141.407 560.574 141.06C561.014 140.713 561.574 140.54 562.254 140.54C562.721 140.54 563.124 140.623 563.464 140.79C563.804 140.957 564.061 141.183 564.234 141.47C564.408 141.757 564.494 142.08 564.494 142.44C564.494 142.853 564.384 143.207 564.164 143.5C563.944 143.793 563.681 143.99 563.374 144.09V144.13C563.768 144.25 564.074 144.47 564.294 144.79C564.514 145.103 564.624 145.507 564.624 146C564.624 146.393 564.534 146.743 564.354 147.05C564.174 147.357 563.908 147.6 563.554 147.78C563.201 147.953 562.778 148.04 562.284 148.04C561.564 148.04 560.971 147.857 560.504 147.49C560.044 147.117 559.798 146.583 559.764 145.89H560.864C560.891 146.243 561.028 146.533 561.274 146.76C561.521 146.98 561.854 147.09 562.274 147.09C562.681 147.09 562.994 146.98 563.214 146.76C563.434 146.533 563.544 146.243 563.544 145.89C563.544 145.423 563.394 145.093 563.094 144.9C562.801 144.7 562.348 144.6 561.734 144.6H561.474V143.66H561.744C562.284 143.653 562.694 143.563 562.974 143.39C563.261 143.217 563.404 142.943 563.404 142.57C563.404 142.25 563.301 141.997 563.094 141.81C562.888 141.617 562.594 141.52 562.214 141.52C561.841 141.52 561.551 141.617 561.344 141.81C561.138 141.997 561.014 142.23 560.974 142.51H559.864ZM568.822 142.4C569.242 142.4 569.615 142.49 569.942 142.67C570.275 142.85 570.535 143.117 570.722 143.47C570.915 143.823 571.012 144.25 571.012 144.75V148H569.882V144.92C569.882 144.427 569.758 144.05 569.512 143.79C569.265 143.523 568.928 143.39 568.502 143.39C568.075 143.39 567.735 143.523 567.482 143.79C567.235 144.05 567.112 144.427 567.112 144.92V148H565.972V140.6H567.112V143.13C567.305 142.897 567.548 142.717 567.842 142.59C568.142 142.463 568.468 142.4 568.822 142.4Z" fill="#9E9E9E"/>
<rect x="597.5" y="133.5" width="40" height="21" rx="10.5" stroke="#31353F"/>
<path d="M612.813 141.75V140.71H614.893V148H613.743V141.75H612.813ZM616.229 145.22C616.229 144.667 616.343 144.177 616.569 143.75C616.803 143.323 617.116 142.993 617.509 142.76C617.909 142.52 618.353 142.4 618.839 142.4C619.199 142.4 619.553 142.48 619.899 142.64C620.253 142.793 620.533 143 620.739 143.26V140.6H621.889V148H620.739V147.17C620.553 147.437 620.293 147.657 619.959 147.83C619.633 148.003 619.256 148.09 618.829 148.09C618.349 148.09 617.909 147.97 617.509 147.73C617.116 147.483 616.803 147.143 616.569 146.71C616.343 146.27 616.229 145.773 616.229 145.22ZM620.739 145.24C620.739 144.86 620.659 144.53 620.499 144.25C620.346 143.97 620.143 143.757 619.889 143.61C619.636 143.463 619.363 143.39 619.069 143.39C618.776 143.39 618.503 143.463 618.249 143.61C617.996 143.75 617.789 143.96 617.629 144.24C617.476 144.513 617.399 144.84 617.399 145.22C617.399 145.6 617.476 145.933 617.629 146.22C617.789 146.507 617.996 146.727 618.249 146.88C618.509 147.027 618.783 147.1 619.069 147.1C619.363 147.1 619.636 147.027 619.889 146.88C620.143 146.733 620.346 146.52 620.499 146.24C620.659 145.953 620.739 145.62 620.739 145.24Z" fill="#9E9E9E"/>
<rect x="648.5" y="133.5" width="41" height="21" rx="10.5" stroke="#31353F"/>
<path d="M663.576 141.75V140.71H665.656V148H664.506V141.75H663.576ZM674.772 142.49L673.062 148H671.862L670.752 143.93L669.642 148H668.442L666.722 142.49H667.882L669.032 146.92L670.202 142.49H671.392L672.512 146.9L673.652 142.49H674.772Z" fill="#9E9E9E"/>
<rect x="700.5" y="133.5" width="43" height="21" rx="10.5" stroke="#31353F"/>
<path d="M715.507 141.75V140.71H717.587V148H716.437V141.75H715.507ZM725.973 142.4C726.406 142.4 726.793 142.49 727.133 142.67C727.479 142.85 727.749 143.117 727.943 143.47C728.143 143.823 728.243 144.25 728.243 144.75V148H727.113V144.92C727.113 144.427 726.989 144.05 726.743 143.79C726.496 143.523 726.159 143.39 725.733 143.39C725.306 143.39 724.966 143.523 724.713 143.79C724.466 144.05 724.343 144.427 724.343 144.92V148H723.213V144.92C723.213 144.427 723.089 144.05 722.843 143.79C722.596 143.523 722.259 143.39 721.833 143.39C721.406 143.39 721.066 143.523 720.813 143.79C720.566 144.05 720.443 144.427 720.443 144.92V148H719.303V142.49H720.443V143.12C720.629 142.893 720.866 142.717 721.153 142.59C721.439 142.463 721.746 142.4 722.073 142.4C722.513 142.4 722.906 142.493 723.253 142.68C723.599 142.867 723.866 143.137 724.053 143.49C724.219 143.157 724.479 142.893 724.833 142.7C725.186 142.5 725.566 142.4 725.973 142.4Z" fill="#9E9E9E"/>
<rect x="647.5" y="59.5" width="86" height="31" rx="4.5" stroke="#31353F"/>
<path d="M661.562 77.94H662.05C662.537 77.94 662.943 77.505 662.943 76.98C662.943 76.3275 662.71 76.2 662.328 76.065L661.57 75.8025V77.94H661.562Z" fill="#FFC01E"/>
<path d="M660.978 67.4249C656.838 67.4399 653.485 70.8074 653.5 74.9474C653.515 79.0874 656.883 82.4399 661.023 82.4249C665.163 82.4099 668.515 79.0424 668.5 74.9024C668.485 70.7624 665.118 67.4174 660.978 67.4249ZM662.695 74.9999C663.28 75.2024 664.068 75.6374 664.068 76.9799C664.068 78.1349 663.16 79.0649 662.05 79.0649H661.563V79.4999C661.563 79.8074 661.308 80.0624 661 80.0624C660.693 80.0624 660.438 79.8074 660.438 79.4999V79.0649H660.168C658.938 79.0649 657.94 78.0299 657.94 76.7549C657.94 76.4474 658.195 76.1924 658.503 76.1924C658.81 76.1924 659.065 76.4474 659.065 76.7549C659.065 77.4074 659.56 77.9399 660.168 77.9399H660.438V75.4049L659.305 74.9999C658.72 74.7974 657.933 74.3624 657.933 73.0199C657.933 71.8649 658.84 70.9349 659.95 70.9349H660.438V70.4999C660.438 70.1924 660.693 69.9374 661 69.9374C661.308 69.9374 661.563 70.1924 661.563 70.4999V70.9349H661.833C663.063 70.9349 664.06 71.9699 664.06 73.2449C664.06 73.5524 663.805 73.8074 663.498 73.8074C663.19 73.8074 662.935 73.5524 662.935 73.2449C662.935 72.5924 662.44 72.0599 661.833 72.0599H661.563V74.5949L662.695 74.9999Z" fill="#FFC01E"/>
<path d="M659.065 73.0276C659.065 73.6801 659.297 73.8076 659.68 73.9426L660.437 74.2051V72.0601H659.95C659.462 72.0601 659.065 72.4951 659.065 73.0276Z" fill="#FFC01E"/>
<path opacity="0.6" d="M682.453 72.02V76.34C682.453 76.8133 682.576 77.1767 682.823 77.43C683.069 77.6767 683.416 77.8 683.863 77.8C684.316 77.8 684.666 77.6767 684.913 77.43C685.159 77.1767 685.283 76.8133 685.283 76.34V72.02H686.693V76.33C686.693 76.9233 686.563 77.4267 686.303 77.84C686.049 78.2467 685.706 78.5533 685.273 78.76C684.846 78.9667 684.369 79.07 683.843 79.07C683.323 79.07 682.849 78.9667 682.423 78.76C682.003 78.5533 681.669 78.2467 681.423 77.84C681.176 77.4267 681.053 76.9233 681.053 76.33V72.02H682.453ZM690.455 79.07C689.969 79.07 689.529 78.9867 689.135 78.82C688.749 78.6533 688.442 78.4133 688.215 78.1C687.989 77.7867 687.872 77.4167 687.865 76.99H689.365C689.385 77.2767 689.485 77.5033 689.665 77.67C689.852 77.8367 690.105 77.92 690.425 77.92C690.752 77.92 691.009 77.8433 691.195 77.69C691.382 77.53 691.475 77.3233 691.475 77.07C691.475 76.8633 691.412 76.6933 691.285 76.56C691.159 76.4267 690.999 76.3233 690.805 76.25C690.619 76.17 690.359 76.0833 690.025 75.99C689.572 75.8567 689.202 75.7267 688.915 75.6C688.635 75.4667 688.392 75.27 688.185 75.01C687.985 74.7433 687.885 74.39 687.885 73.95C687.885 73.5367 687.989 73.1767 688.195 72.87C688.402 72.5633 688.692 72.33 689.065 72.17C689.439 72.0033 689.865 71.92 690.345 71.92C691.065 71.92 691.649 72.0967 692.095 72.45C692.549 72.7967 692.799 73.2833 692.845 73.91H691.305C691.292 73.67 691.189 73.4733 690.995 73.32C690.809 73.16 690.559 73.08 690.245 73.08C689.972 73.08 689.752 73.15 689.585 73.29C689.425 73.43 689.345 73.6333 689.345 73.9C689.345 74.0867 689.405 74.2433 689.525 74.37C689.652 74.49 689.805 74.59 689.985 74.67C690.172 74.7433 690.432 74.83 690.765 74.93C691.219 75.0633 691.589 75.1967 691.875 75.33C692.162 75.4633 692.409 75.6633 692.615 75.93C692.822 76.1967 692.925 76.5467 692.925 76.98C692.925 77.3533 692.829 77.7 692.635 78.02C692.442 78.34 692.159 78.5967 691.785 78.79C691.412 78.9767 690.969 79.07 690.455 79.07ZM696.579 72.02C697.313 72.02 697.956 72.1633 698.509 72.45C699.069 72.7367 699.499 73.1467 699.799 73.68C700.106 74.2067 700.259 74.82 700.259 75.52C700.259 76.22 700.106 76.8333 699.799 77.36C699.499 77.88 699.069 78.2833 698.509 78.57C697.956 78.8567 697.313 79 696.579 79H694.139V72.02H696.579ZM696.529 77.81C697.263 77.81 697.829 77.61 698.229 77.21C698.629 76.81 698.829 76.2467 698.829 75.52C698.829 74.7933 698.629 74.2267 698.229 73.82C697.829 73.4067 697.263 73.2 696.529 73.2H695.539V77.81H696.529Z" fill="#E4E4E4"/>
<path d="M720 77.1825C719.858 77.1825 719.715 77.13 719.603 77.0175L716.955 74.37C716.738 74.1525 716.738 73.7925 716.955 73.575C717.173 73.3575 717.533 73.3575 717.75 73.575L720 75.825L722.25 73.575C722.468 73.3575 722.828 73.3575 723.045 73.575C723.263 73.7925 723.263 74.1525 723.045 74.37L720.398 77.0175C720.285 77.13 720.143 77.1825 720 77.1825Z" fill="white"/>
<rect x="600.5" y="59.5" width="31" height="31" rx="4.5" stroke="#31353F"/>
<path d="M611.875 83.0625C611.567 83.0625 611.312 82.8075 611.312 82.5V77.25C611.312 76.9425 611.567 76.6875 611.875 76.6875C612.183 76.6875 612.438 76.9425 612.438 77.25V82.5C612.438 82.8075 612.183 83.0625 611.875 83.0625Z" fill="#9E9E9E"/>
<path d="M611.875 70.3125C611.567 70.3125 611.312 70.0575 611.312 69.75V67.5C611.312 67.1925 611.567 66.9375 611.875 66.9375C612.183 66.9375 612.438 67.1925 612.438 67.5V69.75C612.438 70.0575 612.183 70.3125 611.875 70.3125Z" fill="#9E9E9E"/>
<path d="M620.125 83.0625C619.817 83.0625 619.562 82.8075 619.562 82.5V80.25C619.562 79.9425 619.817 79.6875 620.125 79.6875C620.433 79.6875 620.688 79.9425 620.688 80.25V82.5C620.688 82.8075 620.433 83.0625 620.125 83.0625Z" fill="#9E9E9E"/>
<path d="M620.125 73.3125C619.817 73.3125 619.562 73.0575 619.562 72.75V67.5C619.562 67.1925 619.817 66.9375 620.125 66.9375C620.433 66.9375 620.688 67.1925 620.688 67.5V72.75C620.688 73.0575 620.433 73.3125 620.125 73.3125Z" fill="#9E9E9E"/>
<path d="M612.625 77.8125H611.125C609.835 77.8125 609.062 77.04 609.062 75.75V71.25C609.062 69.96 609.835 69.1875 611.125 69.1875H612.625C613.915 69.1875 614.688 69.96 614.688 71.25V75.75C614.688 77.04 613.915 77.8125 612.625 77.8125ZM611.125 70.3125C610.457 70.3125 610.188 70.5825 610.188 71.25V75.75C610.188 76.4175 610.457 76.6875 611.125 76.6875H612.625C613.293 76.6875 613.562 76.4175 613.562 75.75V71.25C613.562 70.5825 613.293 70.3125 612.625 70.3125H611.125Z" fill="#9E9E9E"/>
<path d="M620.875 80.8125H619.375C618.085 80.8125 617.312 80.04 617.312 78.75V74.25C617.312 72.96 618.085 72.1875 619.375 72.1875H620.875C622.165 72.1875 622.938 72.96 622.938 74.25V78.75C622.938 80.04 622.165 80.8125 620.875 80.8125ZM619.375 73.3125C618.707 73.3125 618.438 73.5825 618.438 74.25V78.75C618.438 79.4175 618.707 79.6875 619.375 79.6875H620.875C621.543 79.6875 621.812 79.4175 621.812 78.75V74.25C621.812 73.5825 621.543 73.3125 620.875 73.3125H619.375Z" fill="#9E9E9E"/>
<g opacity="0.1">
<rect x="117" y="388" width="8" height="16" fill="#3A6FF8"/>
<rect x="130" y="382" width="8" height="22" fill="#3A6FF8"/>
<rect x="143" y="372" width="8" height="32" fill="#3A6FF8"/>
<rect x="156" y="387" width="8" height="17" fill="#3A6FF8"/>
<rect x="169" y="394" width="8" height="10" fill="#3A6FF8"/>
<rect x="182" y="391" width="8" height="13" fill="#3A6FF8"/>
<rect x="195" y="380" width="8" height="24" fill="#3A6FF8"/>
<rect x="208" y="390" width="8" height="14" fill="#3A6FF8"/>
<rect x="221" y="396" width="8" height="8" fill="#3A6FF8"/>
<rect x="234" y="388" width="8" height="16" fill="#3A6FF8"/>
<rect x="247" y="382" width="8" height="22" fill="#3A6FF8"/>
<rect x="260" y="372" width="8" height="32" fill="#3A6FF8"/>
<rect x="273" y="387" width="8" height="17" fill="#3A6FF8"/>
<rect x="286" y="394" width="8" height="10" fill="#3A6FF8"/>
<rect x="299" y="390" width="8" height="14" fill="#3A6FF8"/>
<rect x="312" y="396" width="8" height="8" fill="#3A6FF8"/>
<rect x="325" y="372" width="8" height="32" fill="#3A6FF8"/>
<rect x="338" y="387" width="8" height="17" fill="#3A6FF8"/>
<rect x="351" y="394" width="8" height="10" fill="#3A6FF8"/>
<rect x="364" y="391" width="8" height="13" fill="#3A6FF8"/>
<rect x="377" y="380" width="8" height="24" fill="#3A6FF8"/>
<rect x="390" y="388" width="8" height="16" fill="#3A6FF8"/>
<rect x="403" y="390" width="8" height="14" fill="#3A6FF8"/>
<rect x="416" y="396" width="8" height="8" fill="#3A6FF8"/>
<rect x="429" y="372" width="8" height="32" fill="#3A6FF8"/>
<rect x="442" y="387" width="8" height="17" fill="#3A6FF8"/>
<rect x="455" y="394" width="8" height="10" fill="#3A6FF8"/>
<rect x="468" y="390" width="8" height="14" fill="#3A6FF8"/>
<rect x="481" y="396" width="8" height="8" fill="#3A6FF8"/>
<rect x="494" y="372" width="8" height="32" fill="#3A6FF8"/>
<rect x="507" y="387" width="8" height="17" fill="#3A6FF8"/>
<rect x="520" y="394" width="8" height="10" fill="#3A6FF8"/>
<rect x="533" y="380" width="8" height="24" fill="#3A6FF8"/>
<rect x="546" y="390" width="8" height="14" fill="#3A6FF8"/>
<rect x="559" y="396" width="8" height="8" fill="#3A6FF8"/>
<rect x="572" y="388" width="8" height="16" fill="#3A6FF8"/>
<rect x="585" y="382" width="8" height="22" fill="#3A6FF8"/>
<rect x="598" y="372" width="8" height="32" fill="#3A6FF8"/>
<rect x="611" y="387" width="8" height="17" fill="#3A6FF8"/>
<rect x="624" y="394" width="8" height="10" fill="#3A6FF8"/>
<rect x="637" y="390" width="8" height="14" fill="#3A6FF8"/>
<rect x="650" y="396" width="8" height="8" fill="#3A6FF8"/>
<rect x="663" y="382" width="8" height="22" fill="#3A6FF8"/>
<rect x="676" y="372" width="8" height="32" fill="#3A6FF8"/>
<rect x="689" y="387" width="8" height="17" fill="#3A6FF8"/>
<rect x="702" y="394" width="8" height="10" fill="#3A6FF8"/>
<rect x="715" y="382" width="8" height="22" fill="#3A6FF8"/>
<rect x="728" y="372" width="8" height="32" fill="#3A6FF8"/>
</g>
<defs>
<filter id="filter0_d_1909_2110" x="0" y="0" width="805" height="507" filterUnits="userSpaceOnUse" color-interpolation-filters="sRGB">
<feFlood flood-opacity="0" result="BackgroundImageFix"/>
<feColorMatrix in="SourceAlpha" type="matrix" values="0 0 0 0 0 0 0 0 0 0 0 0 0 0 0 0 0 0 127 0" result="hardAlpha"/>
<feOffset dx="4" dy="4"/>
<feGaussianBlur stdDeviation="16.5"/>
<feComposite in2="hardAlpha" operator="out"/>
<feColorMatrix type="matrix" values="0 0 0 0 0 0 0 0 0 0 0 0 0 0 0 0 0 0 0.05 0"/>
<feBlend mode="normal" in2="BackgroundImageFix" result="effect1_dropShadow_1909_2110"/>
<feBlend mode="normal" in="SourceGraphic" in2="effect1_dropShadow_1909_2110" result="shape"/>
</filter>
</defs>
</svg>
