<svg width="324" height="244" viewBox="0 0 324 244" fill="none" xmlns="http://www.w3.org/2000/svg">
<g filter="url(#filter0_d_1909_2052)">
<rect x="29" y="29" width="258" height="178" rx="15" fill="#1B2028"/>
</g>
<path d="M265.009 72.485L262.602 70.0775L261.132 68.6C260.509 67.9775 259.497 67.9775 258.874 68.6L254.989 72.485C254.479 72.995 254.847 73.865 255.559 73.865H259.767H264.439C265.159 73.865 265.519 72.995 265.009 72.485Z" fill="#1ECB4F"/>
<path d="M56.288 171.87H53.642V174.586H51.794V171.87H49.148V170.162H51.794V167.446H53.642V170.162H56.288V171.87ZM58.4556 170.764C58.4556 169.149 58.7449 167.885 59.3236 166.97C59.9116 166.055 60.8823 165.598 62.2356 165.598C63.5889 165.598 64.5549 166.055 65.1336 166.97C65.7216 167.885 66.0156 169.149 66.0156 170.764C66.0156 172.388 65.7216 173.662 65.1336 174.586C64.5549 175.51 63.5889 175.972 62.2356 175.972C60.8823 175.972 59.9116 175.51 59.3236 174.586C58.7449 173.662 58.4556 172.388 58.4556 170.764ZM64.0836 170.764C64.0836 170.073 64.0369 169.495 63.9436 169.028C63.8596 168.552 63.6823 168.165 63.4116 167.866C63.1503 167.567 62.7583 167.418 62.2356 167.418C61.7129 167.418 61.3163 167.567 61.0456 167.866C60.7843 168.165 60.6069 168.552 60.5136 169.028C60.4296 169.495 60.3876 170.073 60.3876 170.764C60.3876 171.473 60.4296 172.071 60.5136 172.556C60.5976 173.032 60.7749 173.419 61.0456 173.718C61.3163 174.007 61.7129 174.152 62.2356 174.152C62.7583 174.152 63.1549 174.007 63.4256 173.718C63.6963 173.419 63.8736 173.032 63.9576 172.556C64.0416 172.071 64.0836 171.473 64.0836 170.764ZM68.8784 176.098C68.5237 176.098 68.2297 175.991 67.9964 175.776C67.7724 175.552 67.6604 175.277 67.6604 174.95C67.6604 174.623 67.7724 174.353 67.9964 174.138C68.2297 173.914 68.5237 173.802 68.8784 173.802C69.2237 173.802 69.5084 173.914 69.7324 174.138C69.9564 174.353 70.0684 174.623 70.0684 174.95C70.0684 175.277 69.9564 175.552 69.7324 175.776C69.5084 175.991 69.2237 176.098 68.8784 176.098ZM72.3191 173.788C73.2151 173.041 73.9291 172.421 74.4611 171.926C74.9931 171.422 75.4364 170.899 75.7911 170.358C76.1458 169.817 76.3231 169.285 76.3231 168.762C76.3231 168.286 76.2111 167.913 75.9871 167.642C75.7631 167.371 75.4178 167.236 74.9511 167.236C74.4844 167.236 74.1251 167.395 73.8731 167.712C73.6211 168.02 73.4904 168.445 73.4811 168.986H71.5771C71.6144 167.866 71.9458 167.017 72.5711 166.438C73.2058 165.859 74.0084 165.57 74.9791 165.57C76.0431 165.57 76.8598 165.855 77.4291 166.424C77.9984 166.984 78.2831 167.726 78.2831 168.65C78.2831 169.378 78.0871 170.073 77.6951 170.736C77.3031 171.399 76.8551 171.977 76.3511 172.472C75.8471 172.957 75.1891 173.545 74.3771 174.236H78.5071V175.86H71.5911V174.404L72.3191 173.788ZM86.8822 167.488H82.3462V169.882C82.5422 169.639 82.8222 169.443 83.1862 169.294C83.5502 169.135 83.9375 169.056 84.3482 169.056C85.0948 169.056 85.7062 169.219 86.1822 169.546C86.6582 169.873 87.0035 170.293 87.2182 170.806C87.4328 171.31 87.5402 171.851 87.5402 172.43C87.5402 173.503 87.2322 174.367 86.6162 175.02C86.0095 175.673 85.1415 176 84.0122 176C82.9482 176 82.0988 175.734 81.4642 175.202C80.8295 174.67 80.4702 173.975 80.3862 173.116H82.2902C82.3742 173.489 82.5608 173.788 82.8502 174.012C83.1488 174.236 83.5268 174.348 83.9842 174.348C84.5348 174.348 84.9502 174.175 85.2302 173.83C85.5102 173.485 85.6502 173.027 85.6502 172.458C85.6502 171.879 85.5055 171.441 85.2162 171.142C84.9362 170.834 84.5208 170.68 83.9702 170.68C83.5782 170.68 83.2515 170.778 82.9902 170.974C82.7288 171.17 82.5422 171.431 82.4302 171.758H80.5542V165.766H86.8822V167.488ZM89.0879 168.3C89.0879 167.591 89.2933 167.035 89.7039 166.634C90.1239 166.233 90.6606 166.032 91.3139 166.032C91.9673 166.032 92.4993 166.233 92.9099 166.634C93.3299 167.035 93.5399 167.591 93.5399 168.3C93.5399 169.019 93.3299 169.579 92.9099 169.98C92.4993 170.381 91.9673 170.582 91.3139 170.582C90.6606 170.582 90.1239 170.381 89.7039 169.98C89.2933 169.579 89.0879 169.019 89.0879 168.3ZM98.0759 166.2L92.5739 176H90.6699L96.1579 166.2H98.0759ZM91.2999 167.208C90.7866 167.208 90.5299 167.572 90.5299 168.3C90.5299 169.037 90.7866 169.406 91.2999 169.406C91.5519 169.406 91.7479 169.317 91.8879 169.14C92.0279 168.953 92.0979 168.673 92.0979 168.3C92.0979 167.572 91.8319 167.208 91.2999 167.208ZM95.2339 173.886C95.2339 173.167 95.4393 172.612 95.8499 172.22C96.2699 171.819 96.8066 171.618 97.4599 171.618C98.1133 171.618 98.6406 171.819 99.0419 172.22C99.4526 172.612 99.6579 173.167 99.6579 173.886C99.6579 174.605 99.4526 175.165 99.0419 175.566C98.6406 175.967 98.1133 176.168 97.4599 176.168C96.7973 176.168 96.2606 175.967 95.8499 175.566C95.4393 175.165 95.2339 174.605 95.2339 173.886ZM97.4459 172.794C96.9139 172.794 96.6479 173.158 96.6479 173.886C96.6479 174.623 96.9139 174.992 97.4459 174.992C97.9686 174.992 98.2299 174.623 98.2299 173.886C98.2299 173.158 97.9686 172.794 97.4459 172.794Z" fill="#1ECB4F"/>
<path d="M60.907 134.779C60.907 135.507 60.718 136.193 60.34 136.837C59.976 137.467 59.43 137.992 58.702 138.412C57.988 138.818 57.141 139.056 56.161 139.126V140.827H54.817V139.105C53.417 138.979 52.29 138.559 51.436 137.845C50.582 137.117 50.141 136.137 50.113 134.905H53.263C53.347 135.913 53.865 136.522 54.817 136.732V132.721C53.809 132.469 52.997 132.217 52.381 131.965C51.765 131.713 51.233 131.307 50.785 130.747C50.337 130.187 50.113 129.424 50.113 128.458C50.113 127.24 50.547 126.246 51.415 125.476C52.297 124.706 53.431 124.265 54.817 124.153V122.452H56.161V124.153C57.505 124.265 58.576 124.671 59.374 125.371C60.186 126.071 60.641 127.037 60.739 128.269H57.568C57.526 127.863 57.379 127.513 57.127 127.219C56.889 126.911 56.567 126.694 56.161 126.568V130.537C57.211 130.803 58.037 131.062 58.639 131.314C59.255 131.552 59.787 131.951 60.235 132.511C60.683 133.057 60.907 133.813 60.907 134.779ZM53.179 128.311C53.179 128.773 53.319 129.151 53.599 129.445C53.879 129.725 54.285 129.956 54.817 130.138V126.505C54.313 126.575 53.914 126.764 53.62 127.072C53.326 127.38 53.179 127.793 53.179 128.311ZM56.161 136.774C56.693 136.676 57.106 136.459 57.4 136.123C57.708 135.787 57.862 135.381 57.862 134.905C57.862 134.443 57.715 134.072 57.421 133.792C57.127 133.512 56.707 133.281 56.161 133.099V136.774ZM65.1972 135.682C66.5412 134.562 67.6122 133.631 68.4102 132.889C69.2082 132.133 69.8732 131.349 70.4052 130.537C70.9372 129.725 71.2032 128.927 71.2032 128.143C71.2032 127.429 71.0352 126.869 70.6992 126.463C70.3632 126.057 69.8452 125.854 69.1452 125.854C68.4452 125.854 67.9062 126.092 67.5282 126.568C67.1502 127.03 66.9542 127.667 66.9402 128.479H64.0842C64.1402 126.799 64.6372 125.525 65.5752 124.657C66.5272 123.789 67.7312 123.355 69.1872 123.355C70.7832 123.355 72.0082 123.782 72.8622 124.636C73.7162 125.476 74.1432 126.589 74.1432 127.975C74.1432 129.067 73.8492 130.11 73.2612 131.104C72.6732 132.098 72.0012 132.966 71.2452 133.708C70.4892 134.436 69.5022 135.318 68.2842 136.354H74.4792V138.79H64.1052V136.606L65.1972 135.682ZM79.3138 130.894C77.9138 130.166 77.2138 129.039 77.2138 127.513C77.2138 126.757 77.4028 126.071 77.7808 125.455C78.1728 124.825 78.7538 124.328 79.5238 123.964C80.3078 123.586 81.2598 123.397 82.3798 123.397C83.4998 123.397 84.4448 123.586 85.2148 123.964C85.9988 124.328 86.5798 124.825 86.9578 125.455C87.3498 126.071 87.5458 126.757 87.5458 127.513C87.5458 128.283 87.3568 128.962 86.9788 129.55C86.6008 130.124 86.0968 130.572 85.4668 130.894C86.2368 131.23 86.8388 131.72 87.2728 132.364C87.7068 133.008 87.9238 133.771 87.9238 134.653C87.9238 135.605 87.6788 136.438 87.1888 137.152C86.7128 137.852 86.0548 138.391 85.2148 138.769C84.3748 139.147 83.4298 139.336 82.3798 139.336C81.3298 139.336 80.3848 139.147 79.5448 138.769C78.7188 138.391 78.0608 137.852 77.5708 137.152C77.0948 136.438 76.8568 135.605 76.8568 134.653C76.8568 133.771 77.0738 133.008 77.5078 132.364C77.9418 131.706 78.5438 131.216 79.3138 130.894ZM84.6898 127.933C84.6898 127.247 84.4798 126.715 84.0598 126.337C83.6538 125.959 83.0938 125.77 82.3798 125.77C81.6798 125.77 81.1198 125.959 80.6998 126.337C80.2938 126.715 80.0908 127.254 80.0908 127.954C80.0908 128.584 80.3008 129.088 80.7208 129.466C81.1548 129.844 81.7078 130.033 82.3798 130.033C83.0518 130.033 83.6048 129.844 84.0388 129.466C84.4728 129.074 84.6898 128.563 84.6898 127.933ZM82.3798 132.175C81.5818 132.175 80.9308 132.378 80.4268 132.784C79.9368 133.19 79.6918 133.771 79.6918 134.527C79.6918 135.227 79.9298 135.801 80.4058 136.249C80.8958 136.683 81.5538 136.9 82.3798 136.9C83.2058 136.9 83.8568 136.676 84.3328 136.228C84.8088 135.78 85.0468 135.213 85.0468 134.527C85.0468 133.785 84.8018 133.211 84.3118 132.805C83.8218 132.385 83.1778 132.175 82.3798 132.175ZM94.215 135.913L91.758 141.814H89.868L91.233 135.913H94.215ZM97.342 135.682C98.686 134.562 99.757 133.631 100.555 132.889C101.353 132.133 102.018 131.349 102.55 130.537C103.082 129.725 103.348 128.927 103.348 128.143C103.348 127.429 103.18 126.869 102.844 126.463C102.508 126.057 101.99 125.854 101.29 125.854C100.59 125.854 100.051 126.092 99.673 126.568C99.295 127.03 99.099 127.667 99.085 128.479H96.229C96.285 126.799 96.782 125.525 97.72 124.657C98.672 123.789 99.876 123.355 101.332 123.355C102.928 123.355 104.153 123.782 105.007 124.636C105.861 125.476 106.288 126.589 106.288 127.975C106.288 129.067 105.994 130.11 105.406 131.104C104.818 132.098 104.146 132.966 103.39 133.708C102.634 134.436 101.647 135.318 100.429 136.354H106.624V138.79H96.25V136.606L97.342 135.682ZM112.299 134.695C112.411 135.311 112.663 135.787 113.055 136.123C113.461 136.445 114 136.606 114.672 136.606C115.54 136.606 116.17 136.249 116.562 135.535C116.954 134.807 117.15 133.589 117.15 131.881C116.828 132.329 116.373 132.679 115.785 132.931C115.211 133.183 114.588 133.309 113.916 133.309C113.02 133.309 112.208 133.127 111.48 132.763C110.766 132.385 110.199 131.832 109.779 131.104C109.359 130.362 109.149 129.466 109.149 128.416C109.149 126.862 109.611 125.63 110.535 124.72C111.459 123.796 112.719 123.334 114.315 123.334C116.303 123.334 117.703 123.971 118.515 125.245C119.341 126.519 119.754 128.437 119.754 130.999C119.754 132.819 119.593 134.31 119.271 135.472C118.963 136.634 118.424 137.516 117.654 138.118C116.898 138.72 115.862 139.021 114.546 139.021C113.51 139.021 112.628 138.825 111.9 138.433C111.172 138.027 110.612 137.502 110.22 136.858C109.842 136.2 109.625 135.479 109.569 134.695H112.299ZM114.525 130.915C115.253 130.915 115.827 130.691 116.247 130.243C116.667 129.795 116.877 129.193 116.877 128.437C116.877 127.611 116.653 126.974 116.205 126.526C115.771 126.064 115.176 125.833 114.42 125.833C113.664 125.833 113.062 126.071 112.614 126.547C112.18 127.009 111.963 127.625 111.963 128.395C111.963 129.137 112.173 129.746 112.593 130.222C113.027 130.684 113.671 130.915 114.525 130.915ZM122.105 126.4V123.691H127.166V139H124.142V126.4H122.105Z" fill="white"/>
<path d="M114.344 60.64V63.44H118.104V65.216H114.344V68.176H118.584V70H112.104V58.816H118.584V60.64H114.344ZM123.228 62.976V67.264C123.228 67.5627 123.297 67.7813 123.436 67.92C123.585 68.048 123.83 68.112 124.172 68.112H125.212V70H123.804C121.916 70 120.972 69.0827 120.972 67.248V62.976H119.916V61.136H120.972V58.944H123.228V61.136H125.212V62.976H123.228ZM131.815 61.008C132.487 61.008 133.084 61.1573 133.607 61.456C134.129 61.744 134.535 62.176 134.823 62.752C135.121 63.3173 135.271 64 135.271 64.8V70H133.031V65.104C133.031 64.4 132.855 63.8613 132.503 63.488C132.151 63.104 131.671 62.912 131.063 62.912C130.444 62.912 129.953 63.104 129.591 63.488C129.239 63.8613 129.063 64.4 129.063 65.104V70H126.823V58.16H129.063V62.24C129.351 61.856 129.735 61.5573 130.215 61.344C130.695 61.12 131.228 61.008 131.815 61.008ZM145.641 65.376C145.641 65.696 145.62 65.984 145.577 66.24H139.097C139.15 66.88 139.374 67.3813 139.769 67.744C140.164 68.1067 140.649 68.288 141.225 68.288C142.057 68.288 142.649 67.9307 143.001 67.216H145.417C145.161 68.0693 144.67 68.7733 143.945 69.328C143.22 69.872 142.329 70.144 141.273 70.144C140.42 70.144 139.652 69.9573 138.969 69.584C138.297 69.2 137.769 68.6613 137.385 67.968C137.012 67.2747 136.825 66.4747 136.825 65.568C136.825 64.6507 137.012 63.8453 137.385 63.152C137.758 62.4587 138.281 61.9253 138.953 61.552C139.625 61.1787 140.398 60.992 141.273 60.992C142.116 60.992 142.868 61.1733 143.529 61.536C144.201 61.8987 144.718 62.416 145.081 63.088C145.454 63.7493 145.641 64.512 145.641 65.376ZM143.321 64.736C143.31 64.16 143.102 63.7013 142.697 63.36C142.292 63.008 141.796 62.832 141.209 62.832C140.654 62.832 140.185 63.0027 139.801 63.344C139.428 63.6747 139.198 64.1387 139.113 64.736H143.321ZM149.516 62.512C149.804 62.0427 150.177 61.6747 150.636 61.408C151.105 61.1413 151.639 61.008 152.236 61.008V63.36H151.644C150.94 63.36 150.407 63.5253 150.044 63.856C149.692 64.1867 149.516 64.7627 149.516 65.584V70H147.276V61.136H149.516V62.512ZM161.985 65.376C161.985 65.696 161.963 65.984 161.921 66.24H155.441C155.494 66.88 155.718 67.3813 156.113 67.744C156.507 68.1067 156.993 68.288 157.569 68.288C158.401 68.288 158.993 67.9307 159.345 67.216H161.761C161.505 68.0693 161.014 68.7733 160.289 69.328C159.563 69.872 158.673 70.144 157.617 70.144C156.763 70.144 155.995 69.9573 155.313 69.584C154.641 69.2 154.113 68.6613 153.729 67.968C153.355 67.2747 153.169 66.4747 153.169 65.568C153.169 64.6507 153.355 63.8453 153.729 63.152C154.102 62.4587 154.625 61.9253 155.297 61.552C155.969 61.1787 156.742 60.992 157.617 60.992C158.459 60.992 159.211 61.1733 159.873 61.536C160.545 61.8987 161.062 62.416 161.425 63.088C161.798 63.7493 161.985 64.512 161.985 65.376ZM159.665 64.736C159.654 64.16 159.446 63.7013 159.041 63.36C158.635 63.008 158.139 62.832 157.553 62.832C156.998 62.832 156.529 63.0027 156.145 63.344C155.771 63.6747 155.542 64.1387 155.457 64.736H159.665ZM171.988 61.136V70H169.732V68.88C169.444 69.264 169.065 69.568 168.596 69.792C168.137 70.0053 167.636 70.112 167.092 70.112C166.398 70.112 165.785 69.968 165.252 69.68C164.718 69.3813 164.297 68.9493 163.988 68.384C163.689 67.808 163.54 67.1253 163.54 66.336V61.136H165.78V66.016C165.78 66.72 165.956 67.264 166.308 67.648C166.66 68.0213 167.14 68.208 167.748 68.208C168.366 68.208 168.852 68.0213 169.204 67.648C169.556 67.264 169.732 66.72 169.732 66.016V61.136H171.988ZM185.206 61.008C186.294 61.008 187.168 61.344 187.83 62.016C188.502 62.6773 188.838 63.6053 188.838 64.8V70H186.598V65.104C186.598 64.4107 186.422 63.8827 186.07 63.52C185.718 63.1467 185.238 62.96 184.63 62.96C184.022 62.96 183.536 63.1467 183.174 63.52C182.822 63.8827 182.646 64.4107 182.646 65.104V70H180.406V65.104C180.406 64.4107 180.23 63.8827 179.878 63.52C179.526 63.1467 179.046 62.96 178.438 62.96C177.819 62.96 177.328 63.1467 176.966 63.52C176.614 63.8827 176.438 64.4107 176.438 65.104V70H174.198V61.136H176.438V62.208C176.726 61.8347 177.094 61.5413 177.542 61.328C178 61.1147 178.502 61.008 179.046 61.008C179.739 61.008 180.358 61.1573 180.902 61.456C181.446 61.744 181.867 62.16 182.166 62.704C182.454 62.192 182.87 61.7813 183.414 61.472C183.968 61.1627 184.566 61.008 185.206 61.008Z" fill="white"/>
<path opacity="0.6" d="M113.016 87.524V90.32H116.064V91.22H113.016V94.1H116.424V95H111.924V86.624H116.424V87.524H113.016ZM123.224 86.636V87.524H120.944V95H119.852V87.524H117.56V86.636H123.224ZM131.013 86.636V95H129.921V91.208H125.661V95H124.569V86.636H125.661V90.308H129.921V86.636H131.013Z" fill="white"/>
<rect x="48" y="52" width="44" height="44" rx="10" fill="#31353F"/>
<path d="M66.7701 76.43L68.3801 77.15C69.4101 77.61 70.5901 77.61 71.6301 77.15L73.2401 76.43C74.6801 75.79 76.0101 77.53 75.0101 78.75L71.5501 82.98C70.7001 84.02 69.3101 84.02 68.4501 82.98L65.0001 78.75C63.9901 77.53 65.3201 75.79 66.7701 76.43Z" fill="#3A6FF8"/>
<path d="M66.5698 73.67C66.2698 73.89 66.3098 74.35 66.6498 74.52L68.9998 75.69C69.5498 75.97 70.4398 75.97 70.9798 75.69L73.3298 74.52C73.6598 74.35 73.6998 73.9 73.4098 73.67L70.2998 71.33C70.1198 71.2 69.8798 71.2 69.6998 71.33L66.5698 73.67Z" fill="#3A6FF8"/>
<path d="M75.8798 70.24L71.7098 65.04C71.6298 64.94 71.5398 64.85 71.4498 64.76C71.1898 64.51 70.8198 64.74 70.8198 65.1V69.4C70.8198 69.56 70.8898 69.71 71.0198 69.8L75.1698 72.92L75.3498 73.05C75.5298 73.18 75.7798 73.18 75.9298 73.02C76.6298 72.26 76.6198 71.16 75.8798 70.24Z" fill="#3A6FF8"/>
<path d="M64.1099 70.33L68.2599 65.05C68.3399 64.95 68.4199 64.86 68.5099 64.77C68.7699 64.52 69.1399 64.74 69.1399 65.11V69.48C69.1399 69.64 69.0699 69.78 68.9399 69.88L64.8099 73.05L64.6399 73.18C64.4599 73.31 64.2099 73.31 64.0499 73.14C63.3699 72.37 63.3799 71.27 64.1099 70.33Z" fill="#3A6FF8"/>
<g filter="url(#filter1_f_1909_2052)">
<circle cx="264" cy="146" r="5" fill="#3A6FF8"/>
</g>
<path d="M158 175.5L165.5 152.5L174 163L179 145.5L188 163L201.5 129L214.5 152.5L229 145.5L240.5 157L250.5 132.5L258 145.5H265" stroke="#3A6FF8" stroke-width="2" stroke-linecap="round"/>
<defs>
<filter id="filter0_d_1909_2052" x="0" y="0" width="324" height="244" filterUnits="userSpaceOnUse" color-interpolation-filters="sRGB">
<feFlood flood-opacity="0" result="BackgroundImageFix"/>
<feColorMatrix in="SourceAlpha" type="matrix" values="0 0 0 0 0 0 0 0 0 0 0 0 0 0 0 0 0 0 127 0" result="hardAlpha"/>
<feOffset dx="4" dy="4"/>
<feGaussianBlur stdDeviation="16.5"/>
<feComposite in2="hardAlpha" operator="out"/>
<feColorMatrix type="matrix" values="0 0 0 0 0 0 0 0 0 0 0 0 0 0 0 0 0 0 0.05 0"/>
<feBlend mode="normal" in2="BackgroundImageFix" result="effect1_dropShadow_1909_2052"/>
<feBlend mode="normal" in="SourceGraphic" in2="effect1_dropShadow_1909_2052" result="shape"/>
</filter>
<filter id="filter1_f_1909_2052" x="254" y="136" width="20" height="20" filterUnits="userSpaceOnUse" color-interpolation-filters="sRGB">
<feFlood flood-opacity="0" result="BackgroundImageFix"/>
<feBlend mode="normal" in="SourceGraphic" in2="BackgroundImageFix" result="shape"/>
<feGaussianBlur stdDeviation="2.5" result="effect1_foregroundBlur_1909_2052"/>
</filter>
</defs>
</svg>
