<svg width="738" height="173" viewBox="0 0 738 173" fill="none" xmlns="http://www.w3.org/2000/svg">
<rect width="738" height="173" rx="15" fill="#1B2028"/>
<rect x="641.5" y="30.5" width="72" height="31" rx="4.5" stroke="#31353F"/>
<path opacity="0.6" d="M658.225 43.02L655.665 50H653.965L651.405 43.02H652.905L654.825 48.57L656.735 43.02H658.225ZM659.774 43.8C659.527 43.8 659.321 43.7233 659.154 43.57C658.994 43.41 658.914 43.2133 658.914 42.98C658.914 42.7467 658.994 42.5533 659.154 42.4C659.321 42.24 659.527 42.16 659.774 42.16C660.021 42.16 660.224 42.24 660.384 42.4C660.551 42.5533 660.634 42.7467 660.634 42.98C660.634 43.2133 660.551 43.41 660.384 43.57C660.224 43.7233 660.021 43.8 659.774 43.8ZM660.464 44.46V50H659.064V44.46H660.464ZM666.997 47.11C666.997 47.31 666.984 47.49 666.957 47.65H662.907C662.941 48.05 663.081 48.3633 663.327 48.59C663.574 48.8167 663.877 48.93 664.237 48.93C664.757 48.93 665.127 48.7067 665.347 48.26H666.857C666.697 48.7933 666.391 49.2333 665.937 49.58C665.484 49.92 664.927 50.09 664.267 50.09C663.734 50.09 663.254 49.9733 662.827 49.74C662.407 49.5 662.077 49.1633 661.837 48.73C661.604 48.2967 661.487 47.7967 661.487 47.23C661.487 46.6567 661.604 46.1533 661.837 45.72C662.071 45.2867 662.397 44.9533 662.817 44.72C663.237 44.4867 663.721 44.37 664.267 44.37C664.794 44.37 665.264 44.4833 665.677 44.71C666.097 44.9367 666.421 45.26 666.647 45.68C666.881 46.0933 666.997 46.57 666.997 47.11ZM665.547 46.71C665.541 46.35 665.411 46.0633 665.157 45.85C664.904 45.63 664.594 45.52 664.227 45.52C663.881 45.52 663.587 45.6267 663.347 45.84C663.114 46.0467 662.971 46.3367 662.917 46.71H665.547ZM675.699 44.46L674.079 50H672.569L671.559 46.13L670.549 50H669.029L667.399 44.46H668.819L669.799 48.68L670.859 44.46H672.339L673.379 48.67L674.359 44.46H675.699ZM686.449 43.02V50H685.049V45.46L683.179 50H682.119L680.239 45.46V50H678.839V43.02H680.429L682.649 48.21L684.869 43.02H686.449ZM690.294 50.09C689.76 50.09 689.28 49.9733 688.854 49.74C688.427 49.5 688.09 49.1633 687.844 48.73C687.604 48.2967 687.484 47.7967 687.484 47.23C687.484 46.6633 687.607 46.1633 687.854 45.73C688.107 45.2967 688.45 44.9633 688.884 44.73C689.317 44.49 689.8 44.37 690.334 44.37C690.867 44.37 691.35 44.49 691.784 44.73C692.217 44.9633 692.557 45.2967 692.804 45.73C693.057 46.1633 693.184 46.6633 693.184 47.23C693.184 47.7967 693.054 48.2967 692.794 48.73C692.54 49.1633 692.194 49.5 691.754 49.74C691.32 49.9733 690.834 50.09 690.294 50.09ZM690.294 48.87C690.547 48.87 690.784 48.81 691.004 48.69C691.23 48.5633 691.41 48.3767 691.544 48.13C691.677 47.8833 691.744 47.5833 691.744 47.23C691.744 46.7033 691.604 46.3 691.324 46.02C691.05 45.7333 690.714 45.59 690.314 45.59C689.914 45.59 689.577 45.7333 689.304 46.02C689.037 46.3 688.904 46.7033 688.904 47.23C688.904 47.7567 689.034 48.1633 689.294 48.45C689.56 48.73 689.894 48.87 690.294 48.87ZM695.611 45.32C695.791 45.0267 696.024 44.7967 696.311 44.63C696.604 44.4633 696.937 44.38 697.311 44.38V45.85H696.941C696.501 45.85 696.167 45.9533 695.941 46.16C695.721 46.3667 695.611 46.7267 695.611 47.24V50H694.211V44.46H695.611V45.32ZM703.403 47.11C703.403 47.31 703.39 47.49 703.363 47.65H699.313C699.347 48.05 699.487 48.3633 699.733 48.59C699.98 48.8167 700.283 48.93 700.643 48.93C701.163 48.93 701.533 48.7067 701.753 48.26H703.263C703.103 48.7933 702.797 49.2333 702.343 49.58C701.89 49.92 701.333 50.09 700.673 50.09C700.14 50.09 699.66 49.9733 699.233 49.74C698.813 49.5 698.483 49.1633 698.243 48.73C698.01 48.2967 697.893 47.7967 697.893 47.23C697.893 46.6567 698.01 46.1533 698.243 45.72C698.477 45.2867 698.803 44.9533 699.223 44.72C699.643 44.4867 700.127 44.37 700.673 44.37C701.2 44.37 701.67 44.4833 702.083 44.71C702.503 44.9367 702.827 45.26 703.053 45.68C703.287 46.0933 703.403 46.57 703.403 47.11ZM701.953 46.71C701.947 46.35 701.817 46.0633 701.563 45.85C701.31 45.63 701 45.52 700.633 45.52C700.287 45.52 699.993 45.6267 699.753 45.84C699.52 46.0467 699.377 46.3367 699.323 46.71H701.953Z" fill="#E4E4E4"/>
<path opacity="0.8" d="M469.378 134.326C469.378 134.774 469.266 135.203 469.042 135.614C468.818 136.015 468.487 136.351 468.048 136.622C467.619 136.893 467.101 137.047 466.494 137.084V138.218H465.738V137.084C464.889 137.009 464.198 136.739 463.666 136.272C463.134 135.796 462.863 135.194 462.854 134.466H464.212C464.249 134.858 464.394 135.199 464.646 135.488C464.907 135.777 465.271 135.959 465.738 136.034V132.534C465.113 132.375 464.609 132.212 464.226 132.044C463.843 131.876 463.517 131.615 463.246 131.26C462.975 130.905 462.84 130.429 462.84 129.832C462.84 129.076 463.101 128.451 463.624 127.956C464.156 127.461 464.861 127.186 465.738 127.13V125.968H466.494V127.13C467.287 127.195 467.927 127.452 468.412 127.9C468.897 128.339 469.177 128.913 469.252 129.622H467.894C467.847 129.295 467.703 129.001 467.46 128.74C467.217 128.469 466.895 128.292 466.494 128.208V131.624C467.11 131.783 467.609 131.946 467.992 132.114C468.384 132.273 468.711 132.529 468.972 132.884C469.243 133.239 469.378 133.719 469.378 134.326ZM464.142 129.762C464.142 130.219 464.277 130.569 464.548 130.812C464.819 131.055 465.215 131.255 465.738 131.414V128.18C465.253 128.227 464.865 128.385 464.576 128.656C464.287 128.917 464.142 129.286 464.142 129.762ZM466.494 136.048C466.998 135.992 467.39 135.81 467.67 135.502C467.959 135.194 468.104 134.825 468.104 134.396C468.104 133.939 467.964 133.589 467.684 133.346C467.404 133.094 467.007 132.893 466.494 132.744V136.048ZM477.499 129.286C477.294 128.25 476.654 127.732 475.581 127.732C474.75 127.732 474.13 128.054 473.719 128.698C473.308 129.333 473.108 130.383 473.117 131.848C473.332 131.363 473.686 130.985 474.181 130.714C474.685 130.434 475.245 130.294 475.861 130.294C476.822 130.294 477.588 130.593 478.157 131.19C478.736 131.787 479.025 132.613 479.025 133.668C479.025 134.303 478.899 134.872 478.647 135.376C478.404 135.88 478.031 136.281 477.527 136.58C477.032 136.879 476.43 137.028 475.721 137.028C474.76 137.028 474.008 136.813 473.467 136.384C472.926 135.955 472.548 135.362 472.333 134.606C472.118 133.85 472.011 132.917 472.011 131.806C472.011 128.381 473.206 126.668 475.595 126.668C476.51 126.668 477.228 126.915 477.751 127.41C478.274 127.905 478.582 128.53 478.675 129.286H477.499ZM475.595 131.372C475.194 131.372 474.816 131.456 474.461 131.624C474.106 131.783 473.817 132.03 473.593 132.366C473.378 132.693 473.271 133.094 473.271 133.57C473.271 134.279 473.476 134.858 473.887 135.306C474.298 135.745 474.886 135.964 475.651 135.964C476.304 135.964 476.822 135.763 477.205 135.362C477.597 134.951 477.793 134.401 477.793 133.71C477.793 132.982 477.606 132.413 477.233 132.002C476.86 131.582 476.314 131.372 475.595 131.372ZM487.478 127.984H482.564V131.176C482.778 130.877 483.096 130.635 483.516 130.448C483.936 130.252 484.388 130.154 484.874 130.154C485.648 130.154 486.278 130.317 486.764 130.644C487.249 130.961 487.594 131.377 487.8 131.89C488.014 132.394 488.122 132.931 488.122 133.5C488.122 134.172 487.996 134.774 487.744 135.306C487.492 135.838 487.104 136.258 486.582 136.566C486.068 136.874 485.429 137.028 484.664 137.028C483.684 137.028 482.89 136.776 482.284 136.272C481.677 135.768 481.308 135.096 481.178 134.256H482.424C482.545 134.788 482.802 135.203 483.194 135.502C483.586 135.801 484.08 135.95 484.678 135.95C485.415 135.95 485.97 135.731 486.344 135.292C486.717 134.844 486.904 134.256 486.904 133.528C486.904 132.8 486.717 132.24 486.344 131.848C485.97 131.447 485.42 131.246 484.692 131.246C484.197 131.246 483.763 131.367 483.39 131.61C483.026 131.843 482.76 132.165 482.592 132.576H481.388V126.864H487.478V127.984ZM490.711 137.084C490.468 137.084 490.263 137 490.095 136.832C489.927 136.664 489.843 136.459 489.843 136.216C489.843 135.973 489.927 135.768 490.095 135.6C490.263 135.432 490.468 135.348 490.711 135.348C490.944 135.348 491.14 135.432 491.299 135.6C491.467 135.768 491.551 135.973 491.551 136.216C491.551 136.459 491.467 136.664 491.299 136.832C491.14 137 490.944 137.084 490.711 137.084ZM493.16 135.978C494.346 135.026 495.274 134.247 495.946 133.64C496.618 133.024 497.183 132.385 497.64 131.722C498.107 131.05 498.34 130.392 498.34 129.748C498.34 129.141 498.191 128.665 497.892 128.32C497.603 127.965 497.132 127.788 496.478 127.788C495.844 127.788 495.349 127.989 494.994 128.39C494.649 128.782 494.462 129.309 494.434 129.972H493.202C493.24 128.927 493.557 128.119 494.154 127.55C494.752 126.981 495.522 126.696 496.464 126.696C497.426 126.696 498.186 126.962 498.746 127.494C499.316 128.026 499.6 128.759 499.6 129.692C499.6 130.467 499.367 131.223 498.9 131.96C498.443 132.688 497.92 133.332 497.332 133.892C496.744 134.443 495.993 135.087 495.078 135.824H499.894V136.888H493.16V135.978ZM501.647 131.834C501.647 130.229 501.908 128.978 502.431 128.082C502.954 127.177 503.868 126.724 505.175 126.724C506.472 126.724 507.382 127.177 507.905 128.082C508.428 128.978 508.689 130.229 508.689 131.834C508.689 133.467 508.428 134.737 507.905 135.642C507.382 136.547 506.472 137 505.175 137C503.868 137 502.954 136.547 502.431 135.642C501.908 134.737 501.647 133.467 501.647 131.834ZM507.429 131.834C507.429 131.022 507.373 130.336 507.261 129.776C507.158 129.207 506.939 128.749 506.603 128.404C506.276 128.059 505.8 127.886 505.175 127.886C504.54 127.886 504.055 128.059 503.719 128.404C503.392 128.749 503.173 129.207 503.061 129.776C502.958 130.336 502.907 131.022 502.907 131.834C502.907 132.674 502.958 133.379 503.061 133.948C503.173 134.517 503.392 134.975 503.719 135.32C504.055 135.665 504.54 135.838 505.175 135.838C505.8 135.838 506.276 135.665 506.603 135.32C506.939 134.975 507.158 134.517 507.261 133.948C507.373 133.379 507.429 132.674 507.429 131.834ZM520.826 127.312V137H519.552V129.776L516.332 137H515.436L512.202 129.762V137H510.928V127.312H512.3L515.884 135.32L519.468 127.312H520.826Z" fill="white"/>
<path opacity="0.8" d="M336.378 134.326C336.378 134.774 336.266 135.203 336.042 135.614C335.818 136.015 335.487 136.351 335.048 136.622C334.619 136.893 334.101 137.047 333.494 137.084V138.218H332.738V137.084C331.889 137.009 331.198 136.739 330.666 136.272C330.134 135.796 329.863 135.194 329.854 134.466H331.212C331.249 134.858 331.394 135.199 331.646 135.488C331.907 135.777 332.271 135.959 332.738 136.034V132.534C332.113 132.375 331.609 132.212 331.226 132.044C330.843 131.876 330.517 131.615 330.246 131.26C329.975 130.905 329.84 130.429 329.84 129.832C329.84 129.076 330.101 128.451 330.624 127.956C331.156 127.461 331.861 127.186 332.738 127.13V125.968H333.494V127.13C334.287 127.195 334.927 127.452 335.412 127.9C335.897 128.339 336.177 128.913 336.252 129.622H334.894C334.847 129.295 334.703 129.001 334.46 128.74C334.217 128.469 333.895 128.292 333.494 128.208V131.624C334.11 131.783 334.609 131.946 334.992 132.114C335.384 132.273 335.711 132.529 335.972 132.884C336.243 133.239 336.378 133.719 336.378 134.326ZM331.142 129.762C331.142 130.219 331.277 130.569 331.548 130.812C331.819 131.055 332.215 131.255 332.738 131.414V128.18C332.253 128.227 331.865 128.385 331.576 128.656C331.287 128.917 331.142 129.286 331.142 129.762ZM333.494 136.048C333.998 135.992 334.39 135.81 334.67 135.502C334.959 135.194 335.104 134.825 335.104 134.396C335.104 133.939 334.964 133.589 334.684 133.346C334.404 133.094 334.007 132.893 333.494 132.744V136.048ZM338.829 129.426C338.894 128.567 339.226 127.895 339.823 127.41C340.42 126.925 341.195 126.682 342.147 126.682C342.782 126.682 343.328 126.799 343.785 127.032C344.252 127.256 344.602 127.564 344.835 127.956C345.078 128.348 345.199 128.791 345.199 129.286C345.199 129.865 345.031 130.364 344.695 130.784C344.368 131.204 343.939 131.475 343.407 131.596V131.666C344.014 131.815 344.494 132.109 344.849 132.548C345.204 132.987 345.381 133.561 345.381 134.27C345.381 134.802 345.26 135.283 345.017 135.712C344.774 136.132 344.41 136.463 343.925 136.706C343.44 136.949 342.856 137.07 342.175 137.07C341.186 137.07 340.374 136.813 339.739 136.3C339.104 135.777 338.75 135.04 338.675 134.088H339.907C339.972 134.648 340.201 135.105 340.593 135.46C340.985 135.815 341.508 135.992 342.161 135.992C342.814 135.992 343.309 135.824 343.645 135.488C343.99 135.143 344.163 134.699 344.163 134.158C344.163 133.458 343.93 132.954 343.463 132.646C342.996 132.338 342.292 132.184 341.349 132.184H341.027V131.12H341.363C342.222 131.111 342.87 130.971 343.309 130.7C343.748 130.42 343.967 129.991 343.967 129.412C343.967 128.917 343.804 128.521 343.477 128.222C343.16 127.923 342.702 127.774 342.105 127.774C341.526 127.774 341.06 127.923 340.705 128.222C340.35 128.521 340.14 128.922 340.075 129.426H338.829ZM347.997 137.084C347.754 137.084 347.549 137 347.381 136.832C347.213 136.664 347.129 136.459 347.129 136.216C347.129 135.973 347.213 135.768 347.381 135.6C347.549 135.432 347.754 135.348 347.997 135.348C348.23 135.348 348.426 135.432 348.585 135.6C348.753 135.768 348.837 135.973 348.837 136.216C348.837 136.459 348.753 136.664 348.585 136.832C348.426 137 348.23 137.084 347.997 137.084ZM357.055 127.984H352.141V131.176C352.355 130.877 352.673 130.635 353.093 130.448C353.513 130.252 353.965 130.154 354.451 130.154C355.225 130.154 355.855 130.317 356.341 130.644C356.826 130.961 357.171 131.377 357.377 131.89C357.591 132.394 357.699 132.931 357.699 133.5C357.699 134.172 357.573 134.774 357.321 135.306C357.069 135.838 356.681 136.258 356.159 136.566C355.645 136.874 355.006 137.028 354.241 137.028C353.261 137.028 352.467 136.776 351.861 136.272C351.254 135.768 350.885 135.096 350.755 134.256H352.001C352.122 134.788 352.379 135.203 352.771 135.502C353.163 135.801 353.657 135.95 354.255 135.95C354.992 135.95 355.547 135.731 355.921 135.292C356.294 134.844 356.481 134.256 356.481 133.528C356.481 132.8 356.294 132.24 355.921 131.848C355.547 131.447 354.997 131.246 354.269 131.246C353.774 131.246 353.34 131.367 352.967 131.61C352.603 131.843 352.337 132.165 352.169 132.576H350.965V126.864H357.055V127.984ZM365.314 129.286C365.108 128.25 364.469 127.732 363.396 127.732C362.565 127.732 361.944 128.054 361.534 128.698C361.123 129.333 360.922 130.383 360.932 131.848C361.146 131.363 361.501 130.985 361.996 130.714C362.5 130.434 363.06 130.294 363.676 130.294C364.637 130.294 365.402 130.593 365.972 131.19C366.55 131.787 366.84 132.613 366.84 133.668C366.84 134.303 366.714 134.872 366.462 135.376C366.219 135.88 365.846 136.281 365.342 136.58C364.847 136.879 364.245 137.028 363.536 137.028C362.574 137.028 361.823 136.813 361.282 136.384C360.74 135.955 360.362 135.362 360.148 134.606C359.933 133.85 359.826 132.917 359.826 131.806C359.826 128.381 361.02 126.668 363.41 126.668C364.324 126.668 365.043 126.915 365.566 127.41C366.088 127.905 366.396 128.53 366.49 129.286H365.314ZM363.41 131.372C363.008 131.372 362.63 131.456 362.276 131.624C361.921 131.783 361.632 132.03 361.408 132.366C361.193 132.693 361.086 133.094 361.086 133.57C361.086 134.279 361.291 134.858 361.702 135.306C362.112 135.745 362.7 135.964 363.466 135.964C364.119 135.964 364.637 135.763 365.02 135.362C365.412 134.951 365.608 134.401 365.608 133.71C365.608 132.982 365.421 132.413 365.048 132.002C364.674 131.582 364.128 131.372 363.41 131.372ZM368.838 131.834C368.838 130.229 369.1 128.978 369.622 128.082C370.145 127.177 371.06 126.724 372.366 126.724C373.664 126.724 374.574 127.177 375.096 128.082C375.619 128.978 375.88 130.229 375.88 131.834C375.88 133.467 375.619 134.737 375.096 135.642C374.574 136.547 373.664 137 372.366 137C371.06 137 370.145 136.547 369.622 135.642C369.1 134.737 368.838 133.467 368.838 131.834ZM374.62 131.834C374.62 131.022 374.564 130.336 374.452 129.776C374.35 129.207 374.13 128.749 373.794 128.404C373.468 128.059 372.992 127.886 372.366 127.886C371.732 127.886 371.246 128.059 370.91 128.404C370.584 128.749 370.364 129.207 370.252 129.776C370.15 130.336 370.098 131.022 370.098 131.834C370.098 132.674 370.15 133.379 370.252 133.948C370.364 134.517 370.584 134.975 370.91 135.32C371.246 135.665 371.732 135.838 372.366 135.838C372.992 135.838 373.468 135.665 373.794 135.32C374.13 134.975 374.35 134.517 374.452 133.948C374.564 133.379 374.62 132.674 374.62 131.834ZM388.017 127.312V137H386.743V129.776L383.523 137H382.627L379.393 129.762V137H378.119V127.312H379.491L383.075 135.32L386.659 127.312H388.017Z" fill="white"/>
<path opacity="0.8" d="M209.568 132.618H206.74V135.516H205.256V132.618H202.428V131.274H205.256V128.376H206.74V131.274H209.568V132.618ZM211.624 128.25V126.794H214.536V137H212.926V128.25H211.624ZM217.611 134.83C218.507 134.055 219.211 133.421 219.725 132.926C220.247 132.422 220.681 131.899 221.027 131.358C221.372 130.817 221.545 130.275 221.545 129.734C221.545 129.174 221.409 128.735 221.139 128.418C220.877 128.101 220.462 127.942 219.893 127.942C219.342 127.942 218.913 128.119 218.605 128.474C218.306 128.819 218.147 129.286 218.129 129.874H216.589C216.617 128.81 216.934 127.998 217.541 127.438C218.157 126.869 218.936 126.584 219.879 126.584C220.896 126.584 221.689 126.864 222.259 127.424C222.837 127.984 223.127 128.731 223.127 129.664C223.127 130.336 222.954 130.985 222.609 131.61C222.273 132.226 221.867 132.781 221.391 133.276C220.924 133.761 220.327 134.326 219.599 134.97L218.969 135.53H223.407V136.86H216.603V135.698L217.611 134.83ZM225.663 137.098C225.373 137.098 225.131 137 224.935 136.804C224.739 136.608 224.641 136.365 224.641 136.076C224.641 135.787 224.739 135.544 224.935 135.348C225.131 135.152 225.373 135.054 225.663 135.054C225.943 135.054 226.181 135.152 226.377 135.348C226.573 135.544 226.671 135.787 226.671 136.076C226.671 136.365 226.573 136.608 226.377 136.804C226.181 137 225.943 137.098 225.663 137.098ZM228.186 131.764C228.186 130.149 228.456 128.889 228.998 127.984C229.548 127.069 230.491 126.612 231.826 126.612C233.16 126.612 234.098 127.069 234.64 127.984C235.19 128.889 235.466 130.149 235.466 131.764C235.466 133.397 235.19 134.676 234.64 135.6C234.098 136.515 233.16 136.972 231.826 136.972C230.491 136.972 229.548 136.515 228.998 135.6C228.456 134.676 228.186 133.397 228.186 131.764ZM233.898 131.764C233.898 131.008 233.846 130.369 233.744 129.846C233.65 129.323 233.454 128.899 233.156 128.572C232.857 128.236 232.414 128.068 231.826 128.068C231.238 128.068 230.794 128.236 230.496 128.572C230.197 128.899 229.996 129.323 229.894 129.846C229.8 130.369 229.754 131.008 229.754 131.764C229.754 132.548 229.8 133.206 229.894 133.738C229.987 134.27 230.183 134.699 230.482 135.026C230.79 135.353 231.238 135.516 231.826 135.516C232.414 135.516 232.857 135.353 233.156 135.026C233.464 134.699 233.664 134.27 233.758 133.738C233.851 133.206 233.898 132.548 233.898 131.764ZM237.154 131.764C237.154 130.149 237.425 128.889 237.966 127.984C238.517 127.069 239.46 126.612 240.794 126.612C242.129 126.612 243.067 127.069 243.608 127.984C244.159 128.889 244.434 130.149 244.434 131.764C244.434 133.397 244.159 134.676 243.608 135.6C243.067 136.515 242.129 136.972 240.794 136.972C239.46 136.972 238.517 136.515 237.966 135.6C237.425 134.676 237.154 133.397 237.154 131.764ZM242.866 131.764C242.866 131.008 242.815 130.369 242.712 129.846C242.619 129.323 242.423 128.899 242.124 128.572C241.826 128.236 241.382 128.068 240.794 128.068C240.206 128.068 239.763 128.236 239.464 128.572C239.166 128.899 238.965 129.323 238.862 129.846C238.769 130.369 238.722 131.008 238.722 131.764C238.722 132.548 238.769 133.206 238.862 133.738C238.956 134.27 239.152 134.699 239.45 135.026C239.758 135.353 240.206 135.516 240.794 135.516C241.382 135.516 241.826 135.353 242.124 135.026C242.432 134.699 242.633 134.27 242.726 133.738C242.82 133.206 242.866 132.548 242.866 131.764ZM245.871 129.258C245.871 128.577 246.067 128.045 246.459 127.662C246.861 127.27 247.374 127.074 247.999 127.074C248.625 127.074 249.133 127.27 249.525 127.662C249.927 128.045 250.127 128.577 250.127 129.258C250.127 129.939 249.927 130.476 249.525 130.868C249.133 131.26 248.625 131.456 247.999 131.456C247.374 131.456 246.861 131.26 246.459 130.868C246.067 130.476 245.871 129.939 245.871 129.258ZM254.411 127.256L248.825 137H247.257L252.843 127.256H254.411ZM247.999 128.04C247.411 128.04 247.117 128.446 247.117 129.258C247.117 130.079 247.411 130.49 247.999 130.49C248.279 130.49 248.494 130.392 248.643 130.196C248.802 129.991 248.881 129.678 248.881 129.258C248.881 128.446 248.587 128.04 247.999 128.04ZM251.569 134.984C251.569 134.303 251.765 133.771 252.157 133.388C252.559 132.996 253.072 132.8 253.697 132.8C254.313 132.8 254.817 132.996 255.209 133.388C255.611 133.771 255.811 134.303 255.811 134.984C255.811 135.665 255.611 136.202 255.209 136.594C254.817 136.986 254.313 137.182 253.697 137.182C253.072 137.182 252.559 136.986 252.157 136.594C251.765 136.202 251.569 135.665 251.569 134.984ZM253.683 133.766C253.095 133.766 252.801 134.172 252.801 134.984C252.801 135.796 253.095 136.202 253.683 136.202C254.271 136.202 254.565 135.796 254.565 134.984C254.565 134.172 254.271 133.766 253.683 133.766Z" fill="#1ECB4F"/>
<path opacity="0.8" d="M78.258 132.002C78.7807 132.095 79.224 132.371 79.588 132.828C79.952 133.285 80.134 133.803 80.134 134.382C80.134 134.877 80.0033 135.325 79.742 135.726C79.49 136.118 79.1213 136.431 78.636 136.664C78.1507 136.888 77.586 137 76.942 137H73.05V127.27H76.76C77.4227 127.27 77.992 127.382 78.468 127.606C78.944 127.83 79.3033 128.133 79.546 128.516C79.7887 128.889 79.91 129.309 79.91 129.776C79.91 130.336 79.7607 130.803 79.462 131.176C79.1633 131.549 78.762 131.825 78.258 132.002ZM74.646 131.358H76.62C77.1427 131.358 77.5487 131.241 77.838 131.008C78.1367 130.765 78.286 130.42 78.286 129.972C78.286 129.533 78.1367 129.193 77.838 128.95C77.5487 128.698 77.1427 128.572 76.62 128.572H74.646V131.358ZM76.802 135.698C77.3433 135.698 77.768 135.567 78.076 135.306C78.384 135.045 78.538 134.681 78.538 134.214C78.538 133.738 78.3747 133.36 78.048 133.08C77.7213 132.8 77.2873 132.66 76.746 132.66H74.646V135.698H76.802ZM82.9604 128.264C82.671 128.264 82.4284 128.166 82.2324 127.97C82.0364 127.774 81.9384 127.531 81.9384 127.242C81.9384 126.953 82.0364 126.71 82.2324 126.514C82.4284 126.318 82.671 126.22 82.9604 126.22C83.2404 126.22 83.4784 126.318 83.6744 126.514C83.8704 126.71 83.9684 126.953 83.9684 127.242C83.9684 127.531 83.8704 127.774 83.6744 127.97C83.4784 128.166 83.2404 128.264 82.9604 128.264ZM83.7444 129.286V137H82.1484V129.286H83.7444ZM87.9818 130.588V134.858C87.9818 135.147 88.0471 135.357 88.1778 135.488C88.3178 135.609 88.5511 135.67 88.8778 135.67H89.8578V137H88.5978C87.8791 137 87.3284 136.832 86.9458 136.496C86.5631 136.16 86.3718 135.614 86.3718 134.858V130.588H85.4618V129.286H86.3718V127.368H87.9818V129.286H89.8578V130.588H87.9818ZM91.0768 133.136C91.0768 132.343 91.2354 131.647 91.5528 131.05C91.8794 130.443 92.3274 129.977 92.8968 129.65C93.4661 129.323 94.1194 129.16 94.8568 129.16C95.7901 129.16 96.5601 129.384 97.1668 129.832C97.7828 130.271 98.1981 130.901 98.4128 131.722H96.6908C96.5508 131.339 96.3268 131.041 96.0188 130.826C95.7108 130.611 95.3234 130.504 94.8568 130.504C94.2034 130.504 93.6808 130.737 93.2888 131.204C92.9061 131.661 92.7148 132.305 92.7148 133.136C92.7148 133.967 92.9061 134.615 93.2888 135.082C93.6808 135.549 94.2034 135.782 94.8568 135.782C95.7808 135.782 96.3921 135.376 96.6908 134.564H98.4128C98.1888 135.348 97.7688 135.973 97.1528 136.44C96.5368 136.897 95.7714 137.126 94.8568 137.126C94.1194 137.126 93.4661 136.963 92.8968 136.636C92.3274 136.3 91.8794 135.833 91.5528 135.236C91.2354 134.629 91.0768 133.929 91.0768 133.136ZM103.629 137.126C102.901 137.126 102.243 136.963 101.655 136.636C101.067 136.3 100.605 135.833 100.269 135.236C99.9333 134.629 99.7653 133.929 99.7653 133.136C99.7653 132.352 99.9379 131.657 100.283 131.05C100.629 130.443 101.1 129.977 101.697 129.65C102.295 129.323 102.962 129.16 103.699 129.16C104.437 129.16 105.104 129.323 105.701 129.65C106.299 129.977 106.77 130.443 107.115 131.05C107.461 131.657 107.633 132.352 107.633 133.136C107.633 133.92 107.456 134.615 107.101 135.222C106.747 135.829 106.261 136.3 105.645 136.636C105.039 136.963 104.367 137.126 103.629 137.126ZM103.629 135.74C104.04 135.74 104.423 135.642 104.777 135.446C105.141 135.25 105.435 134.956 105.659 134.564C105.883 134.172 105.995 133.696 105.995 133.136C105.995 132.576 105.888 132.105 105.673 131.722C105.459 131.33 105.174 131.036 104.819 130.84C104.465 130.644 104.082 130.546 103.671 130.546C103.261 130.546 102.878 130.644 102.523 130.84C102.178 131.036 101.903 131.33 101.697 131.722C101.492 132.105 101.389 132.576 101.389 133.136C101.389 133.967 101.599 134.611 102.019 135.068C102.449 135.516 102.985 135.74 103.629 135.74ZM110.303 128.264C110.014 128.264 109.771 128.166 109.575 127.97C109.379 127.774 109.281 127.531 109.281 127.242C109.281 126.953 109.379 126.71 109.575 126.514C109.771 126.318 110.014 126.22 110.303 126.22C110.583 126.22 110.821 126.318 111.017 126.514C111.213 126.71 111.311 126.953 111.311 127.242C111.311 127.531 111.213 127.774 111.017 127.97C110.821 128.166 110.583 128.264 110.303 128.264ZM111.087 129.286V137H109.491V129.286H111.087ZM117.354 129.16C117.961 129.16 118.502 129.286 118.978 129.538C119.464 129.79 119.842 130.163 120.112 130.658C120.383 131.153 120.518 131.75 120.518 132.45V137H118.936V132.688C118.936 131.997 118.764 131.47 118.418 131.106C118.073 130.733 117.602 130.546 117.004 130.546C116.407 130.546 115.931 130.733 115.576 131.106C115.231 131.47 115.058 131.997 115.058 132.688V137H113.462V129.286H115.058V130.168C115.32 129.851 115.651 129.603 116.052 129.426C116.463 129.249 116.897 129.16 117.354 129.16Z" fill="white"/>
<path opacity="0.8" d="M595.378 134.326C595.378 134.774 595.266 135.203 595.042 135.614C594.818 136.015 594.487 136.351 594.048 136.622C593.619 136.893 593.101 137.047 592.494 137.084V138.218H591.738V137.084C590.889 137.009 590.198 136.739 589.666 136.272C589.134 135.796 588.863 135.194 588.854 134.466H590.212C590.249 134.858 590.394 135.199 590.646 135.488C590.907 135.777 591.271 135.959 591.738 136.034V132.534C591.113 132.375 590.609 132.212 590.226 132.044C589.843 131.876 589.517 131.615 589.246 131.26C588.975 130.905 588.84 130.429 588.84 129.832C588.84 129.076 589.101 128.451 589.624 127.956C590.156 127.461 590.861 127.186 591.738 127.13V125.968H592.494V127.13C593.287 127.195 593.927 127.452 594.412 127.9C594.897 128.339 595.177 128.913 595.252 129.622H593.894C593.847 129.295 593.703 129.001 593.46 128.74C593.217 128.469 592.895 128.292 592.494 128.208V131.624C593.11 131.783 593.609 131.946 593.992 132.114C594.384 132.273 594.711 132.529 594.972 132.884C595.243 133.239 595.378 133.719 595.378 134.326ZM590.142 129.762C590.142 130.219 590.277 130.569 590.548 130.812C590.819 131.055 591.215 131.255 591.738 131.414V128.18C591.253 128.227 590.865 128.385 590.576 128.656C590.287 128.917 590.142 129.286 590.142 129.762ZM592.494 136.048C592.998 135.992 593.39 135.81 593.67 135.502C593.959 135.194 594.104 134.825 594.104 134.396C594.104 133.939 593.964 133.589 593.684 133.346C593.404 133.094 593.007 132.893 592.494 132.744V136.048ZM597.549 134.746V133.78L602.463 126.976H603.989V133.64H605.389V134.746H603.989V137H602.729V134.746H597.549ZM602.785 128.306L599.019 133.64H602.785V128.306ZM608.79 131.736C608.267 131.531 607.866 131.232 607.586 130.84C607.306 130.448 607.166 129.972 607.166 129.412C607.166 128.908 607.292 128.455 607.544 128.054C607.796 127.643 608.169 127.321 608.664 127.088C609.168 126.845 609.774 126.724 610.484 126.724C611.193 126.724 611.795 126.845 612.29 127.088C612.794 127.321 613.172 127.643 613.424 128.054C613.685 128.455 613.816 128.908 613.816 129.412C613.816 129.953 613.671 130.429 613.382 130.84C613.092 131.241 612.696 131.54 612.192 131.736C612.77 131.913 613.228 132.226 613.564 132.674C613.909 133.113 614.082 133.645 614.082 134.27C614.082 134.877 613.932 135.409 613.634 135.866C613.335 136.314 612.91 136.664 612.36 136.916C611.818 137.159 611.193 137.28 610.484 137.28C609.774 137.28 609.149 137.159 608.608 136.916C608.076 136.664 607.66 136.314 607.362 135.866C607.063 135.409 606.914 134.877 606.914 134.27C606.914 133.645 607.082 133.108 607.418 132.66C607.754 132.212 608.211 131.904 608.79 131.736ZM612.584 129.566C612.584 128.997 612.397 128.558 612.024 128.25C611.65 127.942 611.137 127.788 610.484 127.788C609.84 127.788 609.331 127.942 608.958 128.25C608.584 128.558 608.398 129.001 608.398 129.58C608.398 130.103 608.589 130.523 608.972 130.84C609.364 131.157 609.868 131.316 610.484 131.316C611.109 131.316 611.613 131.157 611.996 130.84C612.388 130.513 612.584 130.089 612.584 129.566ZM610.484 132.296C609.793 132.296 609.228 132.459 608.79 132.786C608.351 133.103 608.132 133.584 608.132 134.228C608.132 134.825 608.342 135.306 608.762 135.67C609.191 136.034 609.765 136.216 610.484 136.216C611.202 136.216 611.772 136.034 612.192 135.67C612.612 135.306 612.822 134.825 612.822 134.228C612.822 133.603 612.607 133.127 612.178 132.8C611.748 132.464 611.184 132.296 610.484 132.296ZM616.67 137.084C616.427 137.084 616.222 137 616.054 136.832C615.886 136.664 615.802 136.459 615.802 136.216C615.802 135.973 615.886 135.768 616.054 135.6C616.222 135.432 616.427 135.348 616.67 135.348C616.903 135.348 617.099 135.432 617.258 135.6C617.426 135.768 617.51 135.973 617.51 136.216C617.51 136.459 617.426 136.664 617.258 136.832C617.099 137 616.903 137.084 616.67 137.084ZM619.273 131.834C619.273 130.229 619.534 128.978 620.057 128.082C620.58 127.177 621.494 126.724 622.801 126.724C624.098 126.724 625.008 127.177 625.531 128.082C626.054 128.978 626.315 130.229 626.315 131.834C626.315 133.467 626.054 134.737 625.531 135.642C625.008 136.547 624.098 137 622.801 137C621.494 137 620.58 136.547 620.057 135.642C619.534 134.737 619.273 133.467 619.273 131.834ZM625.055 131.834C625.055 131.022 624.999 130.336 624.887 129.776C624.784 129.207 624.565 128.749 624.229 128.404C623.902 128.059 623.426 127.886 622.801 127.886C622.166 127.886 621.681 128.059 621.345 128.404C621.018 128.749 620.799 129.207 620.687 129.776C620.584 130.336 620.533 131.022 620.533 131.834C620.533 132.674 620.584 133.379 620.687 133.948C620.799 134.517 621.018 134.975 621.345 135.32C621.681 135.665 622.166 135.838 622.801 135.838C623.426 135.838 623.902 135.665 624.229 135.32C624.565 134.975 624.784 134.517 624.887 133.948C624.999 133.379 625.055 132.674 625.055 131.834ZM628.316 129.426C628.382 128.567 628.713 127.895 629.31 127.41C629.908 126.925 630.682 126.682 631.634 126.682C632.269 126.682 632.815 126.799 633.272 127.032C633.739 127.256 634.089 127.564 634.322 127.956C634.565 128.348 634.686 128.791 634.686 129.286C634.686 129.865 634.518 130.364 634.182 130.784C633.856 131.204 633.426 131.475 632.894 131.596V131.666C633.501 131.815 633.982 132.109 634.336 132.548C634.691 132.987 634.868 133.561 634.868 134.27C634.868 134.802 634.747 135.283 634.504 135.712C634.262 136.132 633.898 136.463 633.412 136.706C632.927 136.949 632.344 137.07 631.662 137.07C630.673 137.07 629.861 136.813 629.226 136.3C628.592 135.777 628.237 135.04 628.162 134.088H629.394C629.46 134.648 629.688 135.105 630.08 135.46C630.472 135.815 630.995 135.992 631.648 135.992C632.302 135.992 632.796 135.824 633.132 135.488C633.478 135.143 633.65 134.699 633.65 134.158C633.65 133.458 633.417 132.954 632.95 132.646C632.484 132.338 631.779 132.184 630.836 132.184H630.514V131.12H630.85C631.709 131.111 632.358 130.971 632.796 130.7C633.235 130.42 633.454 129.991 633.454 129.412C633.454 128.917 633.291 128.521 632.964 128.222C632.647 127.923 632.19 127.774 631.592 127.774C631.014 127.774 630.547 127.923 630.192 128.222C629.838 128.521 629.628 128.922 629.562 129.426H628.316ZM636.714 135.978C637.9 135.026 638.828 134.247 639.5 133.64C640.172 133.024 640.737 132.385 641.194 131.722C641.661 131.05 641.894 130.392 641.894 129.748C641.894 129.141 641.745 128.665 641.446 128.32C641.157 127.965 640.686 127.788 640.032 127.788C639.398 127.788 638.903 127.989 638.548 128.39C638.203 128.782 638.016 129.309 637.988 129.972H636.756C636.794 128.927 637.111 128.119 637.708 127.55C638.306 126.981 639.076 126.696 640.018 126.696C640.98 126.696 641.74 126.962 642.3 127.494C642.87 128.026 643.154 128.759 643.154 129.692C643.154 130.467 642.921 131.223 642.454 131.96C641.997 132.688 641.474 133.332 640.886 133.892C640.298 134.443 639.547 135.087 638.632 135.824H643.448V136.888H636.714V135.978ZM646.727 135.236L645.159 139.002H644.305L645.327 135.236H646.727ZM648.228 129.426C648.294 128.567 648.625 127.895 649.222 127.41C649.82 126.925 650.594 126.682 651.546 126.682C652.181 126.682 652.727 126.799 653.184 127.032C653.651 127.256 654.001 127.564 654.234 127.956C654.477 128.348 654.598 128.791 654.598 129.286C654.598 129.865 654.43 130.364 654.094 130.784C653.768 131.204 653.338 131.475 652.806 131.596V131.666C653.413 131.815 653.894 132.109 654.248 132.548C654.603 132.987 654.78 133.561 654.78 134.27C654.78 134.802 654.659 135.283 654.416 135.712C654.174 136.132 653.81 136.463 653.324 136.706C652.839 136.949 652.256 137.07 651.574 137.07C650.585 137.07 649.773 136.813 649.138 136.3C648.504 135.777 648.149 135.04 648.074 134.088H649.306C649.372 134.648 649.6 135.105 649.992 135.46C650.384 135.815 650.907 135.992 651.56 135.992C652.214 135.992 652.708 135.824 653.044 135.488C653.39 135.143 653.562 134.699 653.562 134.158C653.562 133.458 653.329 132.954 652.862 132.646C652.396 132.338 651.691 132.184 650.748 132.184H650.426V131.12H650.762C651.621 131.111 652.27 130.971 652.708 130.7C653.147 130.42 653.366 129.991 653.366 129.412C653.366 128.917 653.203 128.521 652.876 128.222C652.559 127.923 652.102 127.774 651.504 127.774C650.926 127.774 650.459 127.923 650.104 128.222C649.75 128.521 649.54 128.922 649.474 129.426H648.228ZM656.627 135.978C657.812 135.026 658.741 134.247 659.413 133.64C660.085 133.024 660.649 132.385 661.107 131.722C661.573 131.05 661.807 130.392 661.807 129.748C661.807 129.141 661.657 128.665 661.359 128.32C661.069 127.965 660.598 127.788 659.945 127.788C659.31 127.788 658.815 127.989 658.461 128.39C658.115 128.782 657.929 129.309 657.901 129.972H656.669C656.706 128.927 657.023 128.119 657.621 127.55C658.218 126.981 658.988 126.696 659.931 126.696C660.892 126.696 661.653 126.962 662.213 127.494C662.782 128.026 663.067 128.759 663.067 129.692C663.067 130.467 662.833 131.223 662.367 131.96C661.909 132.688 661.387 133.332 660.799 133.892C660.211 134.443 659.459 135.087 658.545 135.824H663.361V136.888H656.627V135.978Z" fill="white"/>
<path d="M49.9584 133H48.9317H42.7051V136.773H44.4517H49.9584C51.2251 136.773 52.2651 135.92 52.2651 134.88C52.2651 133.84 51.2251 133 49.9584 133Z" fill="#FFC01E"/>
<path d="M46.0003 118.667C38.6403 118.667 32.667 124.64 32.667 132C32.667 139.36 38.6403 145.333 46.0003 145.333C53.3603 145.333 59.3337 139.36 59.3337 132C59.3337 124.64 53.3603 118.667 46.0003 118.667ZM49.9603 138.773H47.7603V140.667C47.7603 141.213 47.307 141.667 46.7603 141.667C46.2137 141.667 45.7603 141.213 45.7603 140.667V138.773H44.4537H44.147V140.667C44.147 141.213 43.6937 141.667 43.147 141.667C42.6003 141.667 42.147 141.213 42.147 140.667V138.773H41.707H39.4003C38.8537 138.773 38.4003 138.32 38.4003 137.773C38.4003 137.227 38.8537 136.773 39.4003 136.773H40.707V132V127.227H39.4003C38.8537 127.227 38.4003 126.773 38.4003 126.227C38.4003 125.68 38.8537 125.227 39.4003 125.227H41.707H42.147V123.333C42.147 122.787 42.6003 122.333 43.147 122.333C43.6937 122.333 44.147 122.787 44.147 123.333V125.227H44.4537H45.7603V123.333C45.7603 122.787 46.2137 122.333 46.7603 122.333C47.307 122.333 47.7603 122.787 47.7603 123.333V125.227H48.9337C51.0003 125.227 52.827 127.04 52.827 129.12C52.827 130.013 52.507 130.827 52.0003 131.493C53.347 132.147 54.267 133.427 54.267 134.907C54.267 137.027 52.3337 138.773 49.9603 138.773Z" fill="#FFC01E"/>
<path d="M50.8251 129.107C50.8251 128.227 49.9984 127.214 48.9317 127.214H44.4517H42.7051V130.987H48.9317C49.9717 131 50.8251 130.147 50.8251 129.107Z" fill="#FFC01E"/>
<path d="M695 130.75C694.31 130.75 693.75 131.31 693.75 132C693.75 132.69 694.31 133.25 695 133.25C695.69 133.25 696.25 132.69 696.25 132C696.25 131.31 695.69 130.75 695 130.75Z" fill="white"/>
<path d="M709 130.75C708.31 130.75 707.75 131.31 707.75 132C707.75 132.69 708.31 133.25 709 133.25C709.69 133.25 710.25 132.69 710.25 132C710.25 131.31 709.69 130.75 709 130.75Z" fill="white"/>
<path d="M702 130.75C701.31 130.75 700.75 131.31 700.75 132C700.75 132.69 701.31 133.25 702 133.25C702.69 133.25 703.25 132.69 703.25 132C703.25 131.31 702.69 130.75 702 130.75Z" fill="white"/>
<path d="M34.389 50.669H39.219V53H31.449V38.342H34.389V50.669ZM42.5787 39.98C42.0607 39.98 41.6267 39.819 41.2767 39.497C40.9407 39.161 40.7727 38.748 40.7727 38.258C40.7727 37.768 40.9407 37.362 41.2767 37.04C41.6267 36.704 42.0607 36.536 42.5787 36.536C43.0967 36.536 43.5237 36.704 43.8597 37.04C44.2097 37.362 44.3847 37.768 44.3847 38.258C44.3847 38.748 44.2097 39.161 43.8597 39.497C43.5237 39.819 43.0967 39.98 42.5787 39.98ZM44.0277 41.366V53H41.0877V41.366H44.0277ZM51.7834 50.291L54.7234 41.366H57.8524L53.5474 53H49.9774L45.6934 41.366H48.8434L51.7834 50.291ZM70.3187 46.931C70.3187 47.351 70.2907 47.729 70.2347 48.065H61.7297C61.7997 48.905 62.0937 49.563 62.6117 50.039C63.1297 50.515 63.7667 50.753 64.5227 50.753C65.6147 50.753 66.3917 50.284 66.8537 49.346H70.0247C69.6887 50.466 69.0447 51.39 68.0927 52.118C67.1407 52.832 65.9717 53.189 64.5857 53.189C63.4657 53.189 62.4577 52.944 61.5617 52.454C60.6797 51.95 59.9867 51.243 59.4827 50.333C58.9927 49.423 58.7477 48.373 58.7477 47.183C58.7477 45.979 58.9927 44.922 59.4827 44.012C59.9727 43.102 60.6587 42.402 61.5407 41.912C62.4227 41.422 63.4377 41.177 64.5857 41.177C65.6917 41.177 66.6787 41.415 67.5467 41.891C68.4287 42.367 69.1077 43.046 69.5837 43.928C70.0737 44.796 70.3187 45.797 70.3187 46.931ZM67.2737 46.091C67.2597 45.335 66.9867 44.733 66.4547 44.285C65.9227 43.823 65.2717 43.592 64.5017 43.592C63.7737 43.592 63.1577 43.816 62.6537 44.264C62.1637 44.698 61.8627 45.307 61.7507 46.091H67.2737ZM93.4495 38.342V53H90.5095V43.466L86.5825 53H84.3565L80.4085 43.466V53H77.4685V38.342H80.8075L85.4695 49.241L90.1315 38.342H93.4495ZM95.6002 47.141C95.6002 45.965 95.8312 44.922 96.2932 44.012C96.7692 43.102 97.4062 42.402 98.2042 41.912C99.0162 41.422 99.9192 41.177 100.913 41.177C101.781 41.177 102.537 41.352 103.181 41.702C103.839 42.052 104.364 42.493 104.756 43.025V41.366H107.717V53H104.756V51.299C104.378 51.845 103.853 52.3 103.181 52.664C102.523 53.014 101.76 53.189 100.892 53.189C99.9122 53.189 99.0162 52.937 98.2042 52.433C97.4062 51.929 96.7692 51.222 96.2932 50.312C95.8312 49.388 95.6002 48.331 95.6002 47.141ZM104.756 47.183C104.756 46.469 104.616 45.86 104.336 45.356C104.056 44.838 103.678 44.446 103.202 44.18C102.726 43.9 102.215 43.76 101.669 43.76C101.123 43.76 100.619 43.893 100.157 44.159C99.6952 44.425 99.3172 44.817 99.0232 45.335C98.7432 45.839 98.6032 46.441 98.6032 47.141C98.6032 47.841 98.7432 48.457 99.0232 48.989C99.3172 49.507 99.6952 49.906 100.157 50.186C100.633 50.466 101.137 50.606 101.669 50.606C102.215 50.606 102.726 50.473 103.202 50.207C103.678 49.927 104.056 49.535 104.336 49.031C104.616 48.513 104.756 47.897 104.756 47.183ZM113.529 43.172C113.907 42.556 114.397 42.073 114.999 41.723C115.615 41.373 116.315 41.198 117.099 41.198V44.285H116.322C115.398 44.285 114.698 44.502 114.222 44.936C113.76 45.37 113.529 46.126 113.529 47.204V53H110.589V41.366H113.529V43.172ZM125.967 53L122.019 48.044V53H119.079V37.46H122.019V46.301L125.925 41.366H129.747L124.623 47.204L129.789 53H125.967ZM142.158 46.931C142.158 47.351 142.13 47.729 142.074 48.065H133.569C133.639 48.905 133.933 49.563 134.451 50.039C134.969 50.515 135.606 50.753 136.362 50.753C137.454 50.753 138.231 50.284 138.693 49.346H141.864C141.528 50.466 140.884 51.39 139.932 52.118C138.98 52.832 137.811 53.189 136.425 53.189C135.305 53.189 134.297 52.944 133.401 52.454C132.519 51.95 131.826 51.243 131.322 50.333C130.832 49.423 130.587 48.373 130.587 47.183C130.587 45.979 130.832 44.922 131.322 44.012C131.812 43.102 132.498 42.402 133.38 41.912C134.262 41.422 135.277 41.177 136.425 41.177C137.531 41.177 138.518 41.415 139.386 41.891C140.268 42.367 140.947 43.046 141.423 43.928C141.913 44.796 142.158 45.797 142.158 46.931ZM139.113 46.091C139.099 45.335 138.826 44.733 138.294 44.285C137.762 43.823 137.111 43.592 136.341 43.592C135.613 43.592 134.997 43.816 134.493 44.264C134.003 44.698 133.702 45.307 133.59 46.091H139.113ZM147.726 43.781V49.409C147.726 49.801 147.817 50.088 147.999 50.27C148.195 50.438 148.517 50.522 148.965 50.522H150.33V53H148.482C146.004 53 144.765 51.796 144.765 49.388V43.781H143.379V41.366H144.765V38.489H147.726V41.366H150.33V43.781H147.726Z" fill="white"/>
<path d="M338.408 86.696V95H337.316V88.808L334.556 95H333.788L331.016 88.796V95H329.924V86.696H331.1L334.172 93.56L337.244 86.696H338.408ZM339.852 91.688C339.852 91.016 339.988 90.428 340.26 89.924C340.532 89.412 340.904 89.016 341.376 88.736C341.856 88.456 342.388 88.316 342.972 88.316C343.548 88.316 344.048 88.44 344.472 88.688C344.896 88.936 345.212 89.248 345.42 89.624V88.424H346.524V95H345.42V93.776C345.204 94.16 344.88 94.48 344.448 94.736C344.024 94.984 343.528 95.108 342.96 95.108C342.376 95.108 341.848 94.964 341.376 94.676C340.904 94.388 340.532 93.984 340.26 93.464C339.988 92.944 339.852 92.352 339.852 91.688ZM345.42 91.7C345.42 91.204 345.32 90.772 345.12 90.404C344.92 90.036 344.648 89.756 344.304 89.564C343.968 89.364 343.596 89.264 343.188 89.264C342.78 89.264 342.408 89.36 342.072 89.552C341.736 89.744 341.468 90.024 341.268 90.392C341.068 90.76 340.968 91.192 340.968 91.688C340.968 92.192 341.068 92.632 341.268 93.008C341.468 93.376 341.736 93.66 342.072 93.86C342.408 94.052 342.78 94.148 343.188 94.148C343.596 94.148 343.968 94.052 344.304 93.86C344.648 93.66 344.92 93.376 345.12 93.008C345.32 92.632 345.42 92.196 345.42 91.7ZM349.461 89.492C349.653 89.116 349.925 88.824 350.277 88.616C350.637 88.408 351.073 88.304 351.585 88.304V89.432H351.297C350.073 89.432 349.461 90.096 349.461 91.424V95H348.369V88.424H349.461V89.492ZM354.178 89.324V93.2C354.178 93.52 354.246 93.748 354.382 93.884C354.518 94.012 354.754 94.076 355.09 94.076H355.894V95H354.91C354.302 95 353.846 94.86 353.542 94.58C353.238 94.3 353.086 93.84 353.086 93.2V89.324H352.234V88.424H353.086V86.768H354.178V88.424H355.894V89.324H354.178ZM360.889 95L358.309 92.096V95H357.217V86.12H358.309V91.34L360.841 88.424H362.365L359.269 91.7L362.377 95H360.889ZM369.393 91.46C369.393 91.668 369.381 91.888 369.357 92.12H364.101C364.141 92.768 364.361 93.276 364.761 93.644C365.169 94.004 365.661 94.184 366.237 94.184C366.709 94.184 367.101 94.076 367.413 93.86C367.733 93.636 367.957 93.34 368.085 92.972H369.261C369.085 93.604 368.733 94.12 368.205 94.52C367.677 94.912 367.021 95.108 366.237 95.108C365.613 95.108 365.053 94.968 364.557 94.688C364.069 94.408 363.685 94.012 363.405 93.5C363.125 92.98 362.985 92.38 362.985 91.7C362.985 91.02 363.121 90.424 363.393 89.912C363.665 89.4 364.045 89.008 364.533 88.736C365.029 88.456 365.597 88.316 366.237 88.316C366.861 88.316 367.413 88.452 367.893 88.724C368.373 88.996 368.741 89.372 368.997 89.852C369.261 90.324 369.393 90.86 369.393 91.46ZM368.265 91.232C368.265 90.816 368.173 90.46 367.989 90.164C367.805 89.86 367.553 89.632 367.233 89.48C366.921 89.32 366.573 89.24 366.189 89.24C365.637 89.24 365.165 89.416 364.773 89.768C364.389 90.12 364.169 90.608 364.113 91.232H368.265ZM372.166 89.324V93.2C372.166 93.52 372.234 93.748 372.37 93.884C372.506 94.012 372.742 94.076 373.078 94.076H373.882V95H372.898C372.29 95 371.834 94.86 371.53 94.58C371.226 94.3 371.074 93.84 371.074 93.2V89.324H370.222V88.424H371.074V86.768H372.166V88.424H373.882V89.324H372.166ZM377.996 90.812C377.996 89.996 378.18 89.264 378.548 88.616C378.916 87.96 379.416 87.448 380.048 87.08C380.688 86.712 381.396 86.528 382.172 86.528C383.084 86.528 383.88 86.748 384.56 87.188C385.24 87.628 385.736 88.252 386.048 89.06H384.74C384.508 88.556 384.172 88.168 383.732 87.896C383.3 87.624 382.78 87.488 382.172 87.488C381.588 87.488 381.064 87.624 380.6 87.896C380.136 88.168 379.772 88.556 379.508 89.06C379.244 89.556 379.112 90.14 379.112 90.812C379.112 91.476 379.244 92.06 379.508 92.564C379.772 93.06 380.136 93.444 380.6 93.716C381.064 93.988 381.588 94.124 382.172 94.124C382.78 94.124 383.3 93.992 383.732 93.728C384.172 93.456 384.508 93.068 384.74 92.564H386.048C385.736 93.364 385.24 93.984 384.56 94.424C383.88 94.856 383.084 95.072 382.172 95.072C381.396 95.072 380.688 94.892 380.048 94.532C379.416 94.164 378.916 93.656 378.548 93.008C378.18 92.36 377.996 91.628 377.996 90.812ZM387.266 91.688C387.266 91.016 387.402 90.428 387.674 89.924C387.946 89.412 388.318 89.016 388.79 88.736C389.27 88.456 389.802 88.316 390.386 88.316C390.962 88.316 391.462 88.44 391.886 88.688C392.31 88.936 392.626 89.248 392.834 89.624V88.424H393.938V95H392.834V93.776C392.618 94.16 392.294 94.48 391.862 94.736C391.438 94.984 390.942 95.108 390.374 95.108C389.79 95.108 389.262 94.964 388.79 94.676C388.318 94.388 387.946 93.984 387.674 93.464C387.402 92.944 387.266 92.352 387.266 91.688ZM392.834 91.7C392.834 91.204 392.734 90.772 392.534 90.404C392.334 90.036 392.062 89.756 391.718 89.564C391.382 89.364 391.01 89.264 390.602 89.264C390.194 89.264 389.822 89.36 389.486 89.552C389.15 89.744 388.882 90.024 388.682 90.392C388.482 90.76 388.382 91.192 388.382 91.688C388.382 92.192 388.482 92.632 388.682 93.008C388.882 93.376 389.15 93.66 389.486 93.86C389.822 94.052 390.194 94.148 390.602 94.148C391.01 94.148 391.382 94.052 391.718 93.86C392.062 93.66 392.334 93.376 392.534 93.008C392.734 92.632 392.834 92.196 392.834 91.7ZM396.875 89.636C397.091 89.26 397.411 88.948 397.835 88.7C398.267 88.444 398.767 88.316 399.335 88.316C399.919 88.316 400.447 88.456 400.919 88.736C401.399 89.016 401.775 89.412 402.047 89.924C402.319 90.428 402.455 91.016 402.455 91.688C402.455 92.352 402.319 92.944 402.047 93.464C401.775 93.984 401.399 94.388 400.919 94.676C400.447 94.964 399.919 95.108 399.335 95.108C398.775 95.108 398.279 94.984 397.847 94.736C397.423 94.48 397.099 94.164 396.875 93.788V98.12H395.783V88.424H396.875V89.636ZM401.339 91.688C401.339 91.192 401.239 90.76 401.039 90.392C400.839 90.024 400.567 89.744 400.223 89.552C399.887 89.36 399.515 89.264 399.107 89.264C398.707 89.264 398.335 89.364 397.991 89.564C397.655 89.756 397.383 90.04 397.175 90.416C396.975 90.784 396.875 91.212 396.875 91.7C396.875 92.196 396.975 92.632 397.175 93.008C397.383 93.376 397.655 93.66 397.991 93.86C398.335 94.052 398.707 94.148 399.107 94.148C399.515 94.148 399.887 94.052 400.223 93.86C400.567 93.66 400.839 93.376 401.039 93.008C401.239 92.632 401.339 92.192 401.339 91.688Z" fill="#9E9E9E"/>
<path d="M203.516 90.812C203.516 89.996 203.7 89.264 204.068 88.616C204.436 87.96 204.936 87.448 205.568 87.08C206.208 86.712 206.916 86.528 207.692 86.528C208.604 86.528 209.4 86.748 210.08 87.188C210.76 87.628 211.256 88.252 211.568 89.06H210.26C210.028 88.556 209.692 88.168 209.252 87.896C208.82 87.624 208.3 87.488 207.692 87.488C207.108 87.488 206.584 87.624 206.12 87.896C205.656 88.168 205.292 88.556 205.028 89.06C204.764 89.556 204.632 90.14 204.632 90.812C204.632 91.476 204.764 92.06 205.028 92.564C205.292 93.06 205.656 93.444 206.12 93.716C206.584 93.988 207.108 94.124 207.692 94.124C208.3 94.124 208.82 93.992 209.252 93.728C209.692 93.456 210.028 93.068 210.26 92.564H211.568C211.256 93.364 210.76 93.984 210.08 94.424C209.4 94.856 208.604 95.072 207.692 95.072C206.916 95.072 206.208 94.892 205.568 94.532C204.936 94.164 204.436 93.656 204.068 93.008C203.7 92.36 203.516 91.628 203.516 90.812ZM216.458 88.304C216.954 88.304 217.402 88.412 217.802 88.628C218.202 88.836 218.514 89.152 218.738 89.576C218.97 90 219.086 90.516 219.086 91.124V95H218.006V91.28C218.006 90.624 217.842 90.124 217.514 89.78C217.186 89.428 216.738 89.252 216.17 89.252C215.594 89.252 215.134 89.432 214.79 89.792C214.454 90.152 214.286 90.676 214.286 91.364V95H213.194V86.12H214.286V89.36C214.502 89.024 214.798 88.764 215.174 88.58C215.558 88.396 215.986 88.304 216.458 88.304ZM220.461 91.688C220.461 91.016 220.597 90.428 220.869 89.924C221.141 89.412 221.513 89.016 221.985 88.736C222.465 88.456 222.997 88.316 223.581 88.316C224.157 88.316 224.657 88.44 225.081 88.688C225.505 88.936 225.821 89.248 226.029 89.624V88.424H227.133V95H226.029V93.776C225.813 94.16 225.489 94.48 225.057 94.736C224.633 94.984 224.137 95.108 223.569 95.108C222.985 95.108 222.457 94.964 221.985 94.676C221.513 94.388 221.141 93.984 220.869 93.464C220.597 92.944 220.461 92.352 220.461 91.688ZM226.029 91.7C226.029 91.204 225.929 90.772 225.729 90.404C225.529 90.036 225.257 89.756 224.913 89.564C224.577 89.364 224.205 89.264 223.797 89.264C223.389 89.264 223.017 89.36 222.681 89.552C222.345 89.744 222.077 90.024 221.877 90.392C221.677 90.76 221.577 91.192 221.577 91.688C221.577 92.192 221.677 92.632 221.877 93.008C222.077 93.376 222.345 93.66 222.681 93.86C223.017 94.052 223.389 94.148 223.797 94.148C224.205 94.148 224.577 94.052 224.913 93.86C225.257 93.66 225.529 93.376 225.729 93.008C225.929 92.632 226.029 92.196 226.029 91.7ZM232.183 88.304C232.983 88.304 233.631 88.548 234.127 89.036C234.623 89.516 234.871 90.212 234.871 91.124V95H233.791V91.28C233.791 90.624 233.627 90.124 233.299 89.78C232.971 89.428 232.523 89.252 231.955 89.252C231.379 89.252 230.919 89.432 230.575 89.792C230.239 90.152 230.071 90.676 230.071 91.364V95H228.979V88.424H230.071V89.36C230.287 89.024 230.579 88.764 230.947 88.58C231.323 88.396 231.735 88.304 232.183 88.304ZM239.366 88.316C239.934 88.316 240.43 88.44 240.854 88.688C241.286 88.936 241.606 89.248 241.814 89.624V88.424H242.918V95.144C242.918 95.744 242.79 96.276 242.534 96.74C242.278 97.212 241.91 97.58 241.43 97.844C240.958 98.108 240.406 98.24 239.774 98.24C238.91 98.24 238.19 98.036 237.614 97.628C237.038 97.22 236.698 96.664 236.594 95.96H237.674C237.794 96.36 238.042 96.68 238.418 96.92C238.794 97.168 239.246 97.292 239.774 97.292C240.374 97.292 240.862 97.104 241.238 96.728C241.622 96.352 241.814 95.824 241.814 95.144V93.764C241.598 94.148 241.278 94.468 240.854 94.724C240.43 94.98 239.934 95.108 239.366 95.108C238.782 95.108 238.25 94.964 237.77 94.676C237.298 94.388 236.926 93.984 236.654 93.464C236.382 92.944 236.246 92.352 236.246 91.688C236.246 91.016 236.382 90.428 236.654 89.924C236.926 89.412 237.298 89.016 237.77 88.736C238.25 88.456 238.782 88.316 239.366 88.316ZM241.814 91.7C241.814 91.204 241.714 90.772 241.514 90.404C241.314 90.036 241.042 89.756 240.698 89.564C240.362 89.364 239.99 89.264 239.582 89.264C239.174 89.264 238.802 89.36 238.466 89.552C238.13 89.744 237.862 90.024 237.662 90.392C237.462 90.76 237.362 91.192 237.362 91.688C237.362 92.192 237.462 92.632 237.662 93.008C237.862 93.376 238.13 93.66 238.466 93.86C238.802 94.052 239.174 94.148 239.582 94.148C239.99 94.148 240.362 94.052 240.698 93.86C241.042 93.66 241.314 93.376 241.514 93.008C241.714 92.632 241.814 92.196 241.814 91.7ZM250.764 91.46C250.764 91.668 250.752 91.888 250.728 92.12H245.472C245.512 92.768 245.732 93.276 246.132 93.644C246.54 94.004 247.032 94.184 247.608 94.184C248.08 94.184 248.472 94.076 248.784 93.86C249.104 93.636 249.328 93.34 249.456 92.972H250.632C250.456 93.604 250.104 94.12 249.576 94.52C249.048 94.912 248.392 95.108 247.608 95.108C246.984 95.108 246.424 94.968 245.928 94.688C245.44 94.408 245.056 94.012 244.776 93.5C244.496 92.98 244.356 92.38 244.356 91.7C244.356 91.02 244.492 90.424 244.764 89.912C245.036 89.4 245.416 89.008 245.904 88.736C246.4 88.456 246.968 88.316 247.608 88.316C248.232 88.316 248.784 88.452 249.264 88.724C249.744 88.996 250.112 89.372 250.368 89.852C250.632 90.324 250.764 90.86 250.764 91.46ZM249.636 91.232C249.636 90.816 249.544 90.46 249.36 90.164C249.176 89.86 248.924 89.632 248.604 89.48C248.292 89.32 247.944 89.24 247.56 89.24C247.008 89.24 246.536 89.416 246.144 89.768C245.76 90.12 245.54 90.608 245.484 91.232H249.636Z" fill="#9E9E9E"/>
<path d="M594.516 89.084C594.516 89.78 594.276 90.36 593.796 90.824C593.324 91.28 592.6 91.508 591.624 91.508H590.016V95H588.924V86.636H591.624C592.568 86.636 593.284 86.864 593.772 87.32C594.268 87.776 594.516 88.364 594.516 89.084ZM591.624 90.608C592.232 90.608 592.68 90.476 592.968 90.212C593.256 89.948 593.4 89.572 593.4 89.084C593.4 88.052 592.808 87.536 591.624 87.536H590.016V90.608H591.624ZM596.965 89.492C597.157 89.116 597.429 88.824 597.781 88.616C598.141 88.408 598.577 88.304 599.089 88.304V89.432H598.801C597.577 89.432 596.965 90.096 596.965 91.424V95H595.873V88.424H596.965V89.492ZM600.914 87.356C600.706 87.356 600.53 87.284 600.386 87.14C600.242 86.996 600.17 86.82 600.17 86.612C600.17 86.404 600.242 86.228 600.386 86.084C600.53 85.94 600.706 85.868 600.914 85.868C601.114 85.868 601.282 85.94 601.418 86.084C601.562 86.228 601.634 86.404 601.634 86.612C601.634 86.82 601.562 86.996 601.418 87.14C601.282 87.284 601.114 87.356 600.914 87.356ZM601.442 88.424V95H600.35V88.424H601.442ZM602.895 91.7C602.895 91.02 603.031 90.428 603.303 89.924C603.575 89.412 603.951 89.016 604.431 88.736C604.919 88.456 605.475 88.316 606.099 88.316C606.907 88.316 607.571 88.512 608.091 88.904C608.619 89.296 608.967 89.84 609.135 90.536H607.959C607.847 90.136 607.627 89.82 607.299 89.588C606.979 89.356 606.579 89.24 606.099 89.24C605.475 89.24 604.971 89.456 604.587 89.888C604.203 90.312 604.011 90.916 604.011 91.7C604.011 92.492 604.203 93.104 604.587 93.536C604.971 93.968 605.475 94.184 606.099 94.184C606.579 94.184 606.979 94.072 607.299 93.848C607.619 93.624 607.839 93.304 607.959 92.888H609.135C608.959 93.56 608.607 94.1 608.079 94.508C607.551 94.908 606.891 95.108 606.099 95.108C605.475 95.108 604.919 94.968 604.431 94.688C603.951 94.408 603.575 94.012 603.303 93.5C603.031 92.988 602.895 92.388 602.895 91.7ZM616.592 91.46C616.592 91.668 616.58 91.888 616.556 92.12H611.3C611.34 92.768 611.56 93.276 611.96 93.644C612.368 94.004 612.86 94.184 613.436 94.184C613.908 94.184 614.3 94.076 614.612 93.86C614.932 93.636 615.156 93.34 615.284 92.972H616.46C616.284 93.604 615.932 94.12 615.404 94.52C614.876 94.912 614.22 95.108 613.436 95.108C612.812 95.108 612.252 94.968 611.756 94.688C611.268 94.408 610.884 94.012 610.604 93.5C610.324 92.98 610.184 92.38 610.184 91.7C610.184 91.02 610.32 90.424 610.592 89.912C610.864 89.4 611.244 89.008 611.732 88.736C612.228 88.456 612.796 88.316 613.436 88.316C614.06 88.316 614.612 88.452 615.092 88.724C615.572 88.996 615.94 89.372 616.196 89.852C616.46 90.324 616.592 90.86 616.592 91.46ZM615.464 91.232C615.464 90.816 615.372 90.46 615.188 90.164C615.004 89.86 614.752 89.632 614.432 89.48C614.12 89.32 613.772 89.24 613.388 89.24C612.836 89.24 612.364 89.416 611.972 89.768C611.588 90.12 611.368 90.608 611.312 91.232H615.464Z" fill="#9E9E9E"/>
<path d="M465.612 94.124C466.628 93.308 467.424 92.64 468 92.12C468.576 91.592 469.06 91.044 469.452 90.476C469.852 89.9 470.052 89.336 470.052 88.784C470.052 88.264 469.924 87.856 469.668 87.56C469.42 87.256 469.016 87.104 468.456 87.104C467.912 87.104 467.488 87.276 467.184 87.62C466.888 87.956 466.728 88.408 466.704 88.976H465.648C465.68 88.08 465.952 87.388 466.464 86.9C466.976 86.412 467.636 86.168 468.444 86.168C469.268 86.168 469.92 86.396 470.4 86.852C470.888 87.308 471.132 87.936 471.132 88.736C471.132 89.4 470.932 90.048 470.532 90.68C470.14 91.304 469.692 91.856 469.188 92.336C468.684 92.808 468.04 93.36 467.256 93.992H471.384V94.904H465.612V94.124ZM472.382 93.068V92.24L476.594 86.408H477.902V92.12H479.102V93.068H477.902V95H476.822V93.068H472.382ZM476.87 87.548L473.642 92.12H476.87V87.548ZM483.637 88.304C484.133 88.304 484.581 88.412 484.981 88.628C485.381 88.836 485.693 89.152 485.917 89.576C486.149 90 486.265 90.516 486.265 91.124V95H485.185V91.28C485.185 90.624 485.021 90.124 484.693 89.78C484.365 89.428 483.917 89.252 483.349 89.252C482.773 89.252 482.313 89.432 481.969 89.792C481.633 90.152 481.465 90.676 481.465 91.364V95H480.373V86.12H481.465V89.36C481.681 89.024 481.977 88.764 482.353 88.58C482.737 88.396 483.165 88.304 483.637 88.304ZM498.16 86.636L495.004 95H493.744L490.588 86.636H491.752L494.38 93.848L497.008 86.636H498.16ZM502.226 95.108C501.61 95.108 501.05 94.968 500.546 94.688C500.05 94.408 499.658 94.012 499.37 93.5C499.09 92.98 498.95 92.38 498.95 91.7C498.95 91.028 499.094 90.436 499.382 89.924C499.678 89.404 500.078 89.008 500.582 88.736C501.086 88.456 501.65 88.316 502.274 88.316C502.898 88.316 503.462 88.456 503.966 88.736C504.47 89.008 504.866 89.4 505.154 89.912C505.45 90.424 505.598 91.02 505.598 91.7C505.598 92.38 505.446 92.98 505.142 93.5C504.846 94.012 504.442 94.408 503.93 94.688C503.418 94.968 502.85 95.108 502.226 95.108ZM502.226 94.148C502.618 94.148 502.986 94.056 503.33 93.872C503.674 93.688 503.95 93.412 504.158 93.044C504.374 92.676 504.482 92.228 504.482 91.7C504.482 91.172 504.378 90.724 504.17 90.356C503.962 89.988 503.69 89.716 503.354 89.54C503.018 89.356 502.654 89.264 502.262 89.264C501.862 89.264 501.494 89.356 501.158 89.54C500.83 89.716 500.566 89.988 500.366 90.356C500.166 90.724 500.066 91.172 500.066 91.7C500.066 92.236 500.162 92.688 500.354 93.056C500.554 93.424 500.818 93.7 501.146 93.884C501.474 94.06 501.834 94.148 502.226 94.148ZM508.125 86.12V95H507.033V86.12H508.125ZM515.819 88.424V95H514.727V94.028C514.519 94.364 514.227 94.628 513.851 94.82C513.483 95.004 513.075 95.096 512.627 95.096C512.115 95.096 511.655 94.992 511.247 94.784C510.839 94.568 510.515 94.248 510.275 93.824C510.043 93.4 509.927 92.884 509.927 92.276V88.424H511.007V92.132C511.007 92.78 511.171 93.28 511.499 93.632C511.827 93.976 512.275 94.148 512.843 94.148C513.427 94.148 513.887 93.968 514.223 93.608C514.559 93.248 514.727 92.724 514.727 92.036V88.424H515.819ZM525.57 88.304C526.082 88.304 526.538 88.412 526.938 88.628C527.338 88.836 527.654 89.152 527.886 89.576C528.118 90 528.234 90.516 528.234 91.124V95H527.154V91.28C527.154 90.624 526.99 90.124 526.662 89.78C526.342 89.428 525.906 89.252 525.354 89.252C524.786 89.252 524.334 89.436 523.998 89.804C523.662 90.164 523.494 90.688 523.494 91.376V95H522.414V91.28C522.414 90.624 522.25 90.124 521.922 89.78C521.602 89.428 521.166 89.252 520.614 89.252C520.046 89.252 519.594 89.436 519.258 89.804C518.922 90.164 518.754 90.688 518.754 91.376V95H517.662V88.424H518.754V89.372C518.97 89.028 519.258 88.764 519.618 88.58C519.986 88.396 520.39 88.304 520.83 88.304C521.382 88.304 521.87 88.428 522.294 88.676C522.718 88.924 523.034 89.288 523.242 89.768C523.426 89.304 523.73 88.944 524.154 88.688C524.578 88.432 525.05 88.304 525.57 88.304ZM536.026 91.46C536.026 91.668 536.014 91.888 535.99 92.12H530.734C530.774 92.768 530.994 93.276 531.394 93.644C531.802 94.004 532.294 94.184 532.87 94.184C533.342 94.184 533.734 94.076 534.046 93.86C534.366 93.636 534.59 93.34 534.718 92.972H535.894C535.718 93.604 535.366 94.12 534.838 94.52C534.31 94.912 533.654 95.108 532.87 95.108C532.246 95.108 531.686 94.968 531.19 94.688C530.702 94.408 530.318 94.012 530.038 93.5C529.758 92.98 529.618 92.38 529.618 91.7C529.618 91.02 529.754 90.424 530.026 89.912C530.298 89.4 530.678 89.008 531.166 88.736C531.662 88.456 532.23 88.316 532.87 88.316C533.494 88.316 534.046 88.452 534.526 88.724C535.006 88.996 535.374 89.372 535.63 89.852C535.894 90.324 536.026 90.86 536.026 91.46ZM534.898 91.232C534.898 90.816 534.806 90.46 534.622 90.164C534.438 89.86 534.186 89.632 533.866 89.48C533.554 89.32 533.206 89.24 532.822 89.24C532.27 89.24 531.798 89.416 531.406 89.768C531.022 90.12 530.802 90.608 530.746 91.232H534.898Z" fill="#9E9E9E"/>
<path d="M33.516 90.812C33.516 89.996 33.7 89.264 34.068 88.616C34.436 87.96 34.936 87.448 35.568 87.08C36.208 86.712 36.916 86.528 37.692 86.528C38.604 86.528 39.4 86.748 40.08 87.188C40.76 87.628 41.256 88.252 41.568 89.06H40.26C40.028 88.556 39.692 88.168 39.252 87.896C38.82 87.624 38.3 87.488 37.692 87.488C37.108 87.488 36.584 87.624 36.12 87.896C35.656 88.168 35.292 88.556 35.028 89.06C34.764 89.556 34.632 90.14 34.632 90.812C34.632 91.476 34.764 92.06 35.028 92.564C35.292 93.06 35.656 93.444 36.12 93.716C36.584 93.988 37.108 94.124 37.692 94.124C38.3 94.124 38.82 93.992 39.252 93.728C39.692 93.456 40.028 93.068 40.26 92.564H41.568C41.256 93.364 40.76 93.984 40.08 94.424C39.4 94.856 38.604 95.072 37.692 95.072C36.916 95.072 36.208 94.892 35.568 94.532C34.936 94.164 34.436 93.656 34.068 93.008C33.7 92.36 33.516 91.628 33.516 90.812ZM46.0615 95.108C45.4455 95.108 44.8855 94.968 44.3815 94.688C43.8855 94.408 43.4935 94.012 43.2055 93.5C42.9255 92.98 42.7855 92.38 42.7855 91.7C42.7855 91.028 42.9295 90.436 43.2175 89.924C43.5135 89.404 43.9135 89.008 44.4175 88.736C44.9215 88.456 45.4855 88.316 46.1095 88.316C46.7335 88.316 47.2975 88.456 47.8015 88.736C48.3055 89.008 48.7015 89.4 48.9895 89.912C49.2855 90.424 49.4335 91.02 49.4335 91.7C49.4335 92.38 49.2815 92.98 48.9775 93.5C48.6815 94.012 48.2775 94.408 47.7655 94.688C47.2535 94.968 46.6855 95.108 46.0615 95.108ZM46.0615 94.148C46.4535 94.148 46.8215 94.056 47.1655 93.872C47.5095 93.688 47.7855 93.412 47.9935 93.044C48.2095 92.676 48.3175 92.228 48.3175 91.7C48.3175 91.172 48.2135 90.724 48.0055 90.356C47.7975 89.988 47.5255 89.716 47.1895 89.54C46.8535 89.356 46.4895 89.264 46.0975 89.264C45.6975 89.264 45.3295 89.356 44.9935 89.54C44.6655 89.716 44.4015 89.988 44.2015 90.356C44.0015 90.724 43.9015 91.172 43.9015 91.7C43.9015 92.236 43.9975 92.688 44.1895 93.056C44.3895 93.424 44.6535 93.7 44.9815 93.884C45.3095 94.06 45.6695 94.148 46.0615 94.148ZM51.4333 87.356C51.2253 87.356 51.0493 87.284 50.9053 87.14C50.7613 86.996 50.6893 86.82 50.6893 86.612C50.6893 86.404 50.7613 86.228 50.9053 86.084C51.0493 85.94 51.2253 85.868 51.4333 85.868C51.6333 85.868 51.8013 85.94 51.9373 86.084C52.0813 86.228 52.1533 86.404 52.1533 86.612C52.1533 86.82 52.0813 86.996 51.9373 87.14C51.8013 87.284 51.6333 87.356 51.4333 87.356ZM51.9613 88.424V95H50.8693V88.424H51.9613ZM57.0264 88.304C57.8264 88.304 58.4744 88.548 58.9704 89.036C59.4664 89.516 59.7144 90.212 59.7144 91.124V95H58.6344V91.28C58.6344 90.624 58.4704 90.124 58.1424 89.78C57.8144 89.428 57.3664 89.252 56.7984 89.252C56.2224 89.252 55.7624 89.432 55.4184 89.792C55.0824 90.152 54.9144 90.676 54.9144 91.364V95H53.8224V88.424H54.9144V89.36C55.1304 89.024 55.4224 88.764 55.7904 88.58C56.1664 88.396 56.5784 88.304 57.0264 88.304Z" fill="#9E9E9E"/>
</svg>
