<svg width="324" height="244" viewBox="0 0 324 244" fill="none" xmlns="http://www.w3.org/2000/svg">
<g filter="url(#filter0_d_1909_2072)">
<rect x="29" y="29" width="258" height="178" rx="15" fill="#1B2028"/>
</g>
<path d="M265.009 72.485L262.602 70.0775L261.132 68.6C260.509 67.9775 259.497 67.9775 258.874 68.6L254.989 72.485C254.479 72.995 254.847 73.865 255.559 73.865H259.767H264.439C265.159 73.865 265.519 72.995 265.009 72.485Z" fill="#1ECB4F"/>
<path d="M56.288 171.87H53.642V174.586H51.794V171.87H49.148V170.162H51.794V167.446H53.642V170.162H56.288V171.87ZM58.4556 170.764C58.4556 169.149 58.7449 167.885 59.3236 166.97C59.9116 166.055 60.8823 165.598 62.2356 165.598C63.5889 165.598 64.5549 166.055 65.1336 166.97C65.7216 167.885 66.0156 169.149 66.0156 170.764C66.0156 172.388 65.7216 173.662 65.1336 174.586C64.5549 175.51 63.5889 175.972 62.2356 175.972C60.8823 175.972 59.9116 175.51 59.3236 174.586C58.7449 173.662 58.4556 172.388 58.4556 170.764ZM64.0836 170.764C64.0836 170.073 64.0369 169.495 63.9436 169.028C63.8596 168.552 63.6823 168.165 63.4116 167.866C63.1503 167.567 62.7583 167.418 62.2356 167.418C61.7129 167.418 61.3163 167.567 61.0456 167.866C60.7843 168.165 60.6069 168.552 60.5136 169.028C60.4296 169.495 60.3876 170.073 60.3876 170.764C60.3876 171.473 60.4296 172.071 60.5136 172.556C60.5976 173.032 60.7749 173.419 61.0456 173.718C61.3163 174.007 61.7129 174.152 62.2356 174.152C62.7583 174.152 63.1549 174.007 63.4256 173.718C63.6963 173.419 63.8736 173.032 63.9576 172.556C64.0416 172.071 64.0836 171.473 64.0836 170.764ZM68.8784 176.098C68.5237 176.098 68.2297 175.991 67.9964 175.776C67.7724 175.552 67.6604 175.277 67.6604 174.95C67.6604 174.623 67.7724 174.353 67.9964 174.138C68.2297 173.914 68.5237 173.802 68.8784 173.802C69.2237 173.802 69.5084 173.914 69.7324 174.138C69.9564 174.353 70.0684 174.623 70.0684 174.95C70.0684 175.277 69.9564 175.552 69.7324 175.776C69.5084 175.991 69.2237 176.098 68.8784 176.098ZM72.3191 173.788C73.2151 173.041 73.9291 172.421 74.4611 171.926C74.9931 171.422 75.4364 170.899 75.7911 170.358C76.1458 169.817 76.3231 169.285 76.3231 168.762C76.3231 168.286 76.2111 167.913 75.9871 167.642C75.7631 167.371 75.4178 167.236 74.9511 167.236C74.4844 167.236 74.1251 167.395 73.8731 167.712C73.6211 168.02 73.4904 168.445 73.4811 168.986H71.5771C71.6144 167.866 71.9458 167.017 72.5711 166.438C73.2058 165.859 74.0084 165.57 74.9791 165.57C76.0431 165.57 76.8598 165.855 77.4291 166.424C77.9984 166.984 78.2831 167.726 78.2831 168.65C78.2831 169.378 78.0871 170.073 77.6951 170.736C77.3031 171.399 76.8551 171.977 76.3511 172.472C75.8471 172.957 75.1891 173.545 74.3771 174.236H78.5071V175.86H71.5911V174.404L72.3191 173.788ZM86.8822 167.488H82.3462V169.882C82.5422 169.639 82.8222 169.443 83.1862 169.294C83.5502 169.135 83.9375 169.056 84.3482 169.056C85.0948 169.056 85.7062 169.219 86.1822 169.546C86.6582 169.873 87.0035 170.293 87.2182 170.806C87.4328 171.31 87.5402 171.851 87.5402 172.43C87.5402 173.503 87.2322 174.367 86.6162 175.02C86.0095 175.673 85.1415 176 84.0122 176C82.9482 176 82.0988 175.734 81.4642 175.202C80.8295 174.67 80.4702 173.975 80.3862 173.116H82.2902C82.3742 173.489 82.5608 173.788 82.8502 174.012C83.1488 174.236 83.5268 174.348 83.9842 174.348C84.5348 174.348 84.9502 174.175 85.2302 173.83C85.5102 173.485 85.6502 173.027 85.6502 172.458C85.6502 171.879 85.5055 171.441 85.2162 171.142C84.9362 170.834 84.5208 170.68 83.9702 170.68C83.5782 170.68 83.2515 170.778 82.9902 170.974C82.7288 171.17 82.5422 171.431 82.4302 171.758H80.5542V165.766H86.8822V167.488ZM89.0879 168.3C89.0879 167.591 89.2933 167.035 89.7039 166.634C90.1239 166.233 90.6606 166.032 91.3139 166.032C91.9673 166.032 92.4993 166.233 92.9099 166.634C93.3299 167.035 93.5399 167.591 93.5399 168.3C93.5399 169.019 93.3299 169.579 92.9099 169.98C92.4993 170.381 91.9673 170.582 91.3139 170.582C90.6606 170.582 90.1239 170.381 89.7039 169.98C89.2933 169.579 89.0879 169.019 89.0879 168.3ZM98.0759 166.2L92.5739 176H90.6699L96.1579 166.2H98.0759ZM91.2999 167.208C90.7866 167.208 90.5299 167.572 90.5299 168.3C90.5299 169.037 90.7866 169.406 91.2999 169.406C91.5519 169.406 91.7479 169.317 91.8879 169.14C92.0279 168.953 92.0979 168.673 92.0979 168.3C92.0979 167.572 91.8319 167.208 91.2999 167.208ZM95.2339 173.886C95.2339 173.167 95.4393 172.612 95.8499 172.22C96.2699 171.819 96.8066 171.618 97.4599 171.618C98.1133 171.618 98.6406 171.819 99.0419 172.22C99.4526 172.612 99.6579 173.167 99.6579 173.886C99.6579 174.605 99.4526 175.165 99.0419 175.566C98.6406 175.967 98.1133 176.168 97.4599 176.168C96.7973 176.168 96.2606 175.967 95.8499 175.566C95.4393 175.165 95.2339 174.605 95.2339 173.886ZM97.4459 172.794C96.9139 172.794 96.6479 173.158 96.6479 173.886C96.6479 174.623 96.9139 174.992 97.4459 174.992C97.9686 174.992 98.2299 174.623 98.2299 173.886C98.2299 173.158 97.9686 172.794 97.4459 172.794Z" fill="#1ECB4F"/>
<path d="M60.907 134.779C60.907 135.507 60.718 136.193 60.34 136.837C59.976 137.467 59.43 137.992 58.702 138.412C57.988 138.818 57.141 139.056 56.161 139.126V140.827H54.817V139.105C53.417 138.979 52.29 138.559 51.436 137.845C50.582 137.117 50.141 136.137 50.113 134.905H53.263C53.347 135.913 53.865 136.522 54.817 136.732V132.721C53.809 132.469 52.997 132.217 52.381 131.965C51.765 131.713 51.233 131.307 50.785 130.747C50.337 130.187 50.113 129.424 50.113 128.458C50.113 127.24 50.547 126.246 51.415 125.476C52.297 124.706 53.431 124.265 54.817 124.153V122.452H56.161V124.153C57.505 124.265 58.576 124.671 59.374 125.371C60.186 126.071 60.641 127.037 60.739 128.269H57.568C57.526 127.863 57.379 127.513 57.127 127.219C56.889 126.911 56.567 126.694 56.161 126.568V130.537C57.211 130.803 58.037 131.062 58.639 131.314C59.255 131.552 59.787 131.951 60.235 132.511C60.683 133.057 60.907 133.813 60.907 134.779ZM53.179 128.311C53.179 128.773 53.319 129.151 53.599 129.445C53.879 129.725 54.285 129.956 54.817 130.138V126.505C54.313 126.575 53.914 126.764 53.62 127.072C53.326 127.38 53.179 127.793 53.179 128.311ZM56.161 136.774C56.693 136.676 57.106 136.459 57.4 136.123C57.708 135.787 57.862 135.381 57.862 134.905C57.862 134.443 57.715 134.072 57.421 133.792C57.127 133.512 56.707 133.281 56.161 133.099V136.774ZM66.8352 130.894C65.4352 130.166 64.7352 129.039 64.7352 127.513C64.7352 126.757 64.9242 126.071 65.3022 125.455C65.6942 124.825 66.2752 124.328 67.0452 123.964C67.8292 123.586 68.7812 123.397 69.9012 123.397C71.0212 123.397 71.9662 123.586 72.7362 123.964C73.5202 124.328 74.1012 124.825 74.4792 125.455C74.8712 126.071 75.0672 126.757 75.0672 127.513C75.0672 128.283 74.8782 128.962 74.5002 129.55C74.1222 130.124 73.6182 130.572 72.9882 130.894C73.7582 131.23 74.3602 131.72 74.7942 132.364C75.2282 133.008 75.4452 133.771 75.4452 134.653C75.4452 135.605 75.2002 136.438 74.7102 137.152C74.2342 137.852 73.5762 138.391 72.7362 138.769C71.8962 139.147 70.9512 139.336 69.9012 139.336C68.8512 139.336 67.9062 139.147 67.0662 138.769C66.2402 138.391 65.5822 137.852 65.0922 137.152C64.6162 136.438 64.3782 135.605 64.3782 134.653C64.3782 133.771 64.5952 133.008 65.0292 132.364C65.4632 131.706 66.0652 131.216 66.8352 130.894ZM72.2112 127.933C72.2112 127.247 72.0012 126.715 71.5812 126.337C71.1752 125.959 70.6152 125.77 69.9012 125.77C69.2012 125.77 68.6412 125.959 68.2212 126.337C67.8152 126.715 67.6122 127.254 67.6122 127.954C67.6122 128.584 67.8222 129.088 68.2422 129.466C68.6762 129.844 69.2292 130.033 69.9012 130.033C70.5732 130.033 71.1262 129.844 71.5602 129.466C71.9942 129.074 72.2112 128.563 72.2112 127.933ZM69.9012 132.175C69.1032 132.175 68.4522 132.378 67.9482 132.784C67.4582 133.19 67.2132 133.771 67.2132 134.527C67.2132 135.227 67.4512 135.801 67.9272 136.249C68.4172 136.683 69.0752 136.9 69.9012 136.9C70.7272 136.9 71.3782 136.676 71.8542 136.228C72.3302 135.78 72.5682 135.213 72.5682 134.527C72.5682 133.785 72.3232 133.211 71.8332 132.805C71.3432 132.385 70.6992 132.175 69.9012 132.175ZM81.7364 135.913L79.2794 141.814H77.3894L78.7544 135.913H81.7364ZM84.8634 135.682C86.2074 134.562 87.2784 133.631 88.0764 132.889C88.8744 132.133 89.5394 131.349 90.0714 130.537C90.6034 129.725 90.8694 128.927 90.8694 128.143C90.8694 127.429 90.7014 126.869 90.3654 126.463C90.0294 126.057 89.5114 125.854 88.8114 125.854C88.1114 125.854 87.5724 126.092 87.1944 126.568C86.8164 127.03 86.6204 127.667 86.6064 128.479H83.7504C83.8064 126.799 84.3034 125.525 85.2414 124.657C86.1934 123.789 87.3974 123.355 88.8534 123.355C90.4494 123.355 91.6744 123.782 92.5284 124.636C93.3824 125.476 93.8094 126.589 93.8094 127.975C93.8094 129.067 93.5154 130.11 92.9274 131.104C92.3394 132.098 91.6674 132.966 90.9114 133.708C90.1554 134.436 89.1684 135.318 87.9504 136.354H94.1454V138.79H83.7714V136.606L84.8634 135.682ZM99.82 134.695C99.932 135.311 100.184 135.787 100.576 136.123C100.982 136.445 101.521 136.606 102.193 136.606C103.061 136.606 103.691 136.249 104.083 135.535C104.475 134.807 104.671 133.589 104.671 131.881C104.349 132.329 103.894 132.679 103.306 132.931C102.732 133.183 102.109 133.309 101.437 133.309C100.541 133.309 99.729 133.127 99.001 132.763C98.287 132.385 97.72 131.832 97.3 131.104C96.88 130.362 96.67 129.466 96.67 128.416C96.67 126.862 97.132 125.63 98.056 124.72C98.98 123.796 100.24 123.334 101.836 123.334C103.824 123.334 105.224 123.971 106.036 125.245C106.862 126.519 107.275 128.437 107.275 130.999C107.275 132.819 107.114 134.31 106.792 135.472C106.484 136.634 105.945 137.516 105.175 138.118C104.419 138.72 103.383 139.021 102.067 139.021C101.031 139.021 100.149 138.825 99.421 138.433C98.693 138.027 98.133 137.502 97.741 136.858C97.363 136.2 97.146 135.479 97.09 134.695H99.82ZM102.046 130.915C102.774 130.915 103.348 130.691 103.768 130.243C104.188 129.795 104.398 129.193 104.398 128.437C104.398 127.611 104.174 126.974 103.726 126.526C103.292 126.064 102.697 125.833 101.941 125.833C101.185 125.833 100.583 126.071 100.135 126.547C99.701 127.009 99.484 127.625 99.484 128.395C99.484 129.137 99.694 129.746 100.114 130.222C100.548 130.684 101.192 130.915 102.046 130.915ZM109.627 126.4V123.691H114.688V139H111.664V126.4H109.627Z" fill="white"/>
<path d="M114.344 68.224H118.024V70H112.104V58.832H114.344V68.224ZM120.584 60.08C120.189 60.08 119.858 59.9573 119.592 59.712C119.336 59.456 119.208 59.1413 119.208 58.768C119.208 58.3947 119.336 58.0853 119.592 57.84C119.858 57.584 120.189 57.456 120.584 57.456C120.978 57.456 121.304 57.584 121.56 57.84C121.826 58.0853 121.96 58.3947 121.96 58.768C121.96 59.1413 121.826 59.456 121.56 59.712C121.304 59.9573 120.978 60.08 120.584 60.08ZM121.688 61.136V70H119.448V61.136H121.688ZM126.509 62.976V67.264C126.509 67.5627 126.578 67.7813 126.717 67.92C126.866 68.048 127.112 68.112 127.453 68.112H128.493V70H127.085C125.197 70 124.253 69.0827 124.253 67.248V62.976H123.197V61.136H124.253V58.944H126.509V61.136H128.493V62.976H126.509ZM138.344 65.376C138.344 65.696 138.323 65.984 138.28 66.24H131.8C131.853 66.88 132.077 67.3813 132.472 67.744C132.867 68.1067 133.352 68.288 133.928 68.288C134.76 68.288 135.352 67.9307 135.704 67.216H138.12C137.864 68.0693 137.373 68.7733 136.648 69.328C135.923 69.872 135.032 70.144 133.976 70.144C133.123 70.144 132.355 69.9573 131.672 69.584C131 69.2 130.472 68.6613 130.088 67.968C129.715 67.2747 129.528 66.4747 129.528 65.568C129.528 64.6507 129.715 63.8453 130.088 63.152C130.461 62.4587 130.984 61.9253 131.656 61.552C132.328 61.1787 133.101 60.992 133.976 60.992C134.819 60.992 135.571 61.1733 136.232 61.536C136.904 61.8987 137.421 62.416 137.784 63.088C138.157 63.7493 138.344 64.512 138.344 65.376ZM136.024 64.736C136.013 64.16 135.805 63.7013 135.4 63.36C134.995 63.008 134.499 62.832 133.912 62.832C133.357 62.832 132.888 63.0027 132.504 63.344C132.131 63.6747 131.901 64.1387 131.816 64.736H136.024ZM139.403 65.568C139.403 64.6507 139.59 63.8507 139.963 63.168C140.336 62.4747 140.854 61.9413 141.515 61.568C142.176 61.184 142.934 60.992 143.787 60.992C144.886 60.992 145.792 61.2693 146.507 61.824C147.232 62.368 147.718 63.136 147.963 64.128H145.547C145.419 63.744 145.2 63.4453 144.891 63.232C144.592 63.008 144.219 62.896 143.771 62.896C143.131 62.896 142.624 63.1307 142.251 63.6C141.878 64.0587 141.691 64.7147 141.691 65.568C141.691 66.4107 141.878 67.0667 142.251 67.536C142.624 67.9947 143.131 68.224 143.771 68.224C144.678 68.224 145.27 67.8187 145.547 67.008H147.963C147.718 67.968 147.232 68.7307 146.507 69.296C145.782 69.8613 144.875 70.144 143.787 70.144C142.934 70.144 142.176 69.9573 141.515 69.584C140.854 69.2 140.336 68.6667 139.963 67.984C139.59 67.2907 139.403 66.4853 139.403 65.568ZM153.54 70.144C152.687 70.144 151.919 69.9573 151.236 69.584C150.553 69.2 150.015 68.6613 149.62 67.968C149.236 67.2747 149.044 66.4747 149.044 65.568C149.044 64.6613 149.241 63.8613 149.636 63.168C150.041 62.4747 150.591 61.9413 151.284 61.568C151.977 61.184 152.751 60.992 153.604 60.992C154.457 60.992 155.231 61.184 155.924 61.568C156.617 61.9413 157.161 62.4747 157.556 63.168C157.961 63.8613 158.164 64.6613 158.164 65.568C158.164 66.4747 157.956 67.2747 157.54 67.968C157.135 68.6613 156.58 69.2 155.876 69.584C155.183 69.9573 154.404 70.144 153.54 70.144ZM153.54 68.192C153.945 68.192 154.324 68.096 154.676 67.904C155.039 67.7013 155.327 67.4027 155.54 67.008C155.753 66.6133 155.86 66.1333 155.86 65.568C155.86 64.7253 155.636 64.08 155.188 63.632C154.751 63.1733 154.212 62.944 153.572 62.944C152.932 62.944 152.393 63.1733 151.956 63.632C151.529 64.08 151.316 64.7253 151.316 65.568C151.316 66.4107 151.524 67.0613 151.94 67.52C152.367 67.968 152.9 68.192 153.54 68.192ZM160.943 60.08C160.548 60.08 160.218 59.9573 159.951 59.712C159.695 59.456 159.567 59.1413 159.567 58.768C159.567 58.3947 159.695 58.0853 159.951 57.84C160.218 57.584 160.548 57.456 160.943 57.456C161.338 57.456 161.663 57.584 161.919 57.84C162.186 58.0853 162.319 58.3947 162.319 58.768C162.319 59.1413 162.186 59.456 161.919 59.712C161.663 59.9573 161.338 60.08 160.943 60.08ZM162.047 61.136V70H159.807V61.136H162.047ZM169.172 61.008C170.228 61.008 171.082 61.344 171.732 62.016C172.383 62.6773 172.708 63.6053 172.708 64.8V70H170.468V65.104C170.468 64.4 170.292 63.8613 169.94 63.488C169.588 63.104 169.108 62.912 168.5 62.912C167.882 62.912 167.391 63.104 167.028 63.488C166.676 63.8613 166.5 64.4 166.5 65.104V70H164.26V61.136H166.5V62.24C166.799 61.856 167.178 61.5573 167.636 61.344C168.106 61.12 168.618 61.008 169.172 61.008Z" fill="white"/>
<path opacity="0.6" d="M113.016 86.636V95H111.924V86.636H113.016ZM120.025 86.636V87.524H117.745V95H116.653V87.524H114.361V86.636H120.025ZM120.961 90.812C120.961 89.996 121.145 89.264 121.513 88.616C121.881 87.96 122.381 87.448 123.013 87.08C123.653 86.712 124.361 86.528 125.137 86.528C126.049 86.528 126.845 86.748 127.525 87.188C128.205 87.628 128.701 88.252 129.013 89.06H127.705C127.473 88.556 127.137 88.168 126.697 87.896C126.265 87.624 125.745 87.488 125.137 87.488C124.553 87.488 124.029 87.624 123.565 87.896C123.101 88.168 122.737 88.556 122.473 89.06C122.209 89.556 122.077 90.14 122.077 90.812C122.077 91.476 122.209 92.06 122.473 92.564C122.737 93.06 123.101 93.444 123.565 93.716C124.029 93.988 124.553 94.124 125.137 94.124C125.745 94.124 126.265 93.992 126.697 93.728C127.137 93.456 127.473 93.068 127.705 92.564H129.013C128.701 93.364 128.205 93.984 127.525 94.424C126.845 94.856 126.049 95.072 125.137 95.072C124.361 95.072 123.653 94.892 123.013 94.532C122.381 94.164 121.881 93.656 121.513 93.008C121.145 92.36 120.961 91.628 120.961 90.812Z" fill="white"/>
<rect x="48" y="52" width="44" height="44" rx="10" fill="#31353F"/>
<path d="M70 64C64.48 64 60 68.48 60 74C60 79.52 64.48 84 70 84C75.52 84 80 79.52 80 74C80 68.48 75.52 64 70 64ZM73.82 78.32C73.73 78.8 73.32 79.14 72.84 79.14H67.3C66.64 79.14 66.16 78.5 66.34 77.87L67.18 74.92L65.47 75.26C65.42 75.27 65.37 75.27 65.32 75.27C64.97 75.27 64.66 75.02 64.59 74.67C64.51 74.26 64.77 73.87 65.18 73.79L67.65 73.3L68.96 68.73C69.02 68.52 69.22 68.37 69.44 68.37H70.8C71.46 68.37 71.94 68.99 71.77 69.63L70.96 72.64L72.89 72.25C73.29 72.17 73.69 72.43 73.77 72.84C73.85 73.25 73.59 73.64 73.18 73.72L70.52 74.25L69.97 76.3H73C73.62 76.3 74.09 76.86 73.98 77.48L73.82 78.32Z" fill="#64CFF9"/>
<g filter="url(#filter1_f_1909_2072)">
<circle cx="264" cy="146" r="5" fill="#64CFF9"/>
</g>
<path d="M158 175.5L165.5 152.5L174 163L179 145.5L188 163L201.5 129L214.5 152.5L229 145.5L240.5 157L250.5 132.5L258 145.5H265" stroke="#64CFF9" stroke-width="2" stroke-linecap="round"/>
<defs>
<filter id="filter0_d_1909_2072" x="0" y="0" width="324" height="244" filterUnits="userSpaceOnUse" color-interpolation-filters="sRGB">
<feFlood flood-opacity="0" result="BackgroundImageFix"/>
<feColorMatrix in="SourceAlpha" type="matrix" values="0 0 0 0 0 0 0 0 0 0 0 0 0 0 0 0 0 0 127 0" result="hardAlpha"/>
<feOffset dx="4" dy="4"/>
<feGaussianBlur stdDeviation="16.5"/>
<feComposite in2="hardAlpha" operator="out"/>
<feColorMatrix type="matrix" values="0 0 0 0 0 0 0 0 0 0 0 0 0 0 0 0 0 0 0.05 0"/>
<feBlend mode="normal" in2="BackgroundImageFix" result="effect1_dropShadow_1909_2072"/>
<feBlend mode="normal" in="SourceGraphic" in2="effect1_dropShadow_1909_2072" result="shape"/>
</filter>
<filter id="filter1_f_1909_2072" x="254" y="136" width="20" height="20" filterUnits="userSpaceOnUse" color-interpolation-filters="sRGB">
<feFlood flood-opacity="0" result="BackgroundImageFix"/>
<feBlend mode="normal" in="SourceGraphic" in2="BackgroundImageFix" result="shape"/>
<feGaussianBlur stdDeviation="2.5" result="effect1_foregroundBlur_1909_2072"/>
</filter>
</defs>
</svg>
