<svg width="319" height="244" viewBox="0 0 319 244" fill="none" xmlns="http://www.w3.org/2000/svg">
<g filter="url(#filter0_d_1909_2090)">
<rect x="29" y="29" width="258" height="178" rx="15" fill="#1B2028"/>
</g>
<path d="M254.991 69.515L257.398 71.9225L258.868 73.4C259.491 74.0225 260.503 74.0225 261.126 73.4L265.011 69.515C265.521 69.005 265.153 68.135 264.441 68.135L260.233 68.135L255.561 68.135C254.841 68.135 254.481 69.005 254.991 69.515Z" fill="#F46D22"/>
<path d="M54.93 170.176V171.828H48.994V170.176H54.93ZM57.1841 170.764C57.1841 169.149 57.4734 167.885 58.0521 166.97C58.6401 166.055 59.6108 165.598 60.9641 165.598C62.3174 165.598 63.2834 166.055 63.8621 166.97C64.4501 167.885 64.7441 169.149 64.7441 170.764C64.7441 172.388 64.4501 173.662 63.8621 174.586C63.2834 175.51 62.3174 175.972 60.9641 175.972C59.6108 175.972 58.6401 175.51 58.0521 174.586C57.4734 173.662 57.1841 172.388 57.1841 170.764ZM62.8121 170.764C62.8121 170.073 62.7654 169.495 62.6721 169.028C62.5881 168.552 62.4108 168.165 62.1401 167.866C61.8788 167.567 61.4868 167.418 60.9641 167.418C60.4414 167.418 60.0448 167.567 59.7741 167.866C59.5128 168.165 59.3354 168.552 59.2421 169.028C59.1581 169.495 59.1161 170.073 59.1161 170.764C59.1161 171.473 59.1581 172.071 59.2421 172.556C59.3261 173.032 59.5034 173.419 59.7741 173.718C60.0448 174.007 60.4414 174.152 60.9641 174.152C61.4868 174.152 61.8834 174.007 62.1541 173.718C62.4248 173.419 62.6021 173.032 62.6861 172.556C62.7701 172.071 62.8121 171.473 62.8121 170.764ZM67.6069 176.098C67.2522 176.098 66.9582 175.991 66.7249 175.776C66.5009 175.552 66.3889 175.277 66.3889 174.95C66.3889 174.623 66.5009 174.353 66.7249 174.138C66.9582 173.914 67.2522 173.802 67.6069 173.802C67.9522 173.802 68.2369 173.914 68.4609 174.138C68.6849 174.353 68.7969 174.623 68.7969 174.95C68.7969 175.277 68.6849 175.552 68.4609 175.776C68.2369 175.991 67.9522 176.098 67.6069 176.098ZM71.0476 173.788C71.9436 173.041 72.6576 172.421 73.1896 171.926C73.7216 171.422 74.1649 170.899 74.5196 170.358C74.8743 169.817 75.0516 169.285 75.0516 168.762C75.0516 168.286 74.9396 167.913 74.7156 167.642C74.4916 167.371 74.1463 167.236 73.6796 167.236C73.2129 167.236 72.8536 167.395 72.6016 167.712C72.3496 168.02 72.2189 168.445 72.2096 168.986H70.3056C70.3429 167.866 70.6743 167.017 71.2996 166.438C71.9343 165.859 72.7369 165.57 73.7076 165.57C74.7716 165.57 75.5883 165.855 76.1576 166.424C76.7269 166.984 77.0116 167.726 77.0116 168.65C77.0116 169.378 76.8156 170.073 76.4236 170.736C76.0316 171.399 75.5836 171.977 75.0796 172.472C74.5756 172.957 73.9176 173.545 73.1056 174.236H77.2356V175.86H70.3196V174.404L71.0476 173.788ZM85.6107 167.488H81.0747V169.882C81.2707 169.639 81.5507 169.443 81.9147 169.294C82.2787 169.135 82.666 169.056 83.0767 169.056C83.8233 169.056 84.4347 169.219 84.9107 169.546C85.3867 169.873 85.732 170.293 85.9467 170.806C86.1613 171.31 86.2687 171.851 86.2687 172.43C86.2687 173.503 85.9607 174.367 85.3447 175.02C84.738 175.673 83.87 176 82.7407 176C81.6767 176 80.8273 175.734 80.1927 175.202C79.558 174.67 79.1987 173.975 79.1147 173.116H81.0187C81.1027 173.489 81.2893 173.788 81.5787 174.012C81.8773 174.236 82.2553 174.348 82.7127 174.348C83.2633 174.348 83.6787 174.175 83.9587 173.83C84.2387 173.485 84.3787 173.027 84.3787 172.458C84.3787 171.879 84.234 171.441 83.9447 171.142C83.6647 170.834 83.2493 170.68 82.6987 170.68C82.3067 170.68 81.98 170.778 81.7187 170.974C81.4573 171.17 81.2707 171.431 81.1587 171.758H79.2827V165.766H85.6107V167.488ZM87.8164 168.3C87.8164 167.591 88.0218 167.035 88.4324 166.634C88.8524 166.233 89.3891 166.032 90.0424 166.032C90.6958 166.032 91.2278 166.233 91.6384 166.634C92.0584 167.035 92.2684 167.591 92.2684 168.3C92.2684 169.019 92.0584 169.579 91.6384 169.98C91.2278 170.381 90.6958 170.582 90.0424 170.582C89.3891 170.582 88.8524 170.381 88.4324 169.98C88.0218 169.579 87.8164 169.019 87.8164 168.3ZM96.8044 166.2L91.3024 176H89.3984L94.8864 166.2H96.8044ZM90.0284 167.208C89.5151 167.208 89.2584 167.572 89.2584 168.3C89.2584 169.037 89.5151 169.406 90.0284 169.406C90.2804 169.406 90.4764 169.317 90.6164 169.14C90.7564 168.953 90.8264 168.673 90.8264 168.3C90.8264 167.572 90.5604 167.208 90.0284 167.208ZM93.9624 173.886C93.9624 173.167 94.1678 172.612 94.5784 172.22C94.9984 171.819 95.5351 171.618 96.1884 171.618C96.8418 171.618 97.3691 171.819 97.7704 172.22C98.1811 172.612 98.3864 173.167 98.3864 173.886C98.3864 174.605 98.1811 175.165 97.7704 175.566C97.3691 175.967 96.8418 176.168 96.1884 176.168C95.5258 176.168 94.9891 175.967 94.5784 175.566C94.1678 175.165 93.9624 174.605 93.9624 173.886ZM96.1744 172.794C95.6424 172.794 95.3764 173.158 95.3764 173.886C95.3764 174.623 95.6424 174.992 96.1744 174.992C96.6971 174.992 96.9584 174.623 96.9584 173.886C96.9584 173.158 96.6971 172.794 96.1744 172.794Z" fill="#F46D22"/>
<path d="M60.907 134.779C60.907 135.507 60.718 136.193 60.34 136.837C59.976 137.467 59.43 137.992 58.702 138.412C57.988 138.818 57.141 139.056 56.161 139.126V140.827H54.817V139.105C53.417 138.979 52.29 138.559 51.436 137.845C50.582 137.117 50.141 136.137 50.113 134.905H53.263C53.347 135.913 53.865 136.522 54.817 136.732V132.721C53.809 132.469 52.997 132.217 52.381 131.965C51.765 131.713 51.233 131.307 50.785 130.747C50.337 130.187 50.113 129.424 50.113 128.458C50.113 127.24 50.547 126.246 51.415 125.476C52.297 124.706 53.431 124.265 54.817 124.153V122.452H56.161V124.153C57.505 124.265 58.576 124.671 59.374 125.371C60.186 126.071 60.641 127.037 60.739 128.269H57.568C57.526 127.863 57.379 127.513 57.127 127.219C56.889 126.911 56.567 126.694 56.161 126.568V130.537C57.211 130.803 58.037 131.062 58.639 131.314C59.255 131.552 59.787 131.951 60.235 132.511C60.683 133.057 60.907 133.813 60.907 134.779ZM53.179 128.311C53.179 128.773 53.319 129.151 53.599 129.445C53.879 129.725 54.285 129.956 54.817 130.138V126.505C54.313 126.575 53.914 126.764 53.62 127.072C53.326 127.38 53.179 127.793 53.179 128.311ZM56.161 136.774C56.693 136.676 57.106 136.459 57.4 136.123C57.708 135.787 57.862 135.381 57.862 134.905C57.862 134.443 57.715 134.072 57.421 133.792C57.127 133.512 56.707 133.281 56.161 133.099V136.774ZM63.9162 126.4V123.691H68.9772V139H65.9532V126.4H63.9162ZM72.1756 136.018V133.708L79.0426 123.88H82.4656V133.456H84.3136V136.018H82.4656V139H79.5256V136.018H72.1756ZM79.7146 127.03L75.4096 133.456H79.7146V127.03ZM90.1544 135.913L87.6974 141.814H85.8074L87.1724 135.913H90.1544ZM93.2815 135.682C94.6255 134.562 95.6965 133.631 96.4945 132.889C97.2925 132.133 97.9575 131.349 98.4895 130.537C99.0215 129.725 99.2875 128.927 99.2875 128.143C99.2875 127.429 99.1195 126.869 98.7835 126.463C98.4475 126.057 97.9295 125.854 97.2295 125.854C96.5295 125.854 95.9905 126.092 95.6125 126.568C95.2345 127.03 95.0385 127.667 95.0245 128.479H92.1685C92.2245 126.799 92.7215 125.525 93.6595 124.657C94.6115 123.789 95.8155 123.355 97.2715 123.355C98.8675 123.355 100.092 123.782 100.946 124.636C101.8 125.476 102.227 126.589 102.227 127.975C102.227 129.067 101.933 130.11 101.345 131.104C100.757 132.098 100.085 132.966 99.3295 133.708C98.5735 134.436 97.5865 135.318 96.3685 136.354H102.563V138.79H92.1895V136.606L93.2815 135.682ZM108.238 134.695C108.35 135.311 108.602 135.787 108.994 136.123C109.4 136.445 109.939 136.606 110.611 136.606C111.479 136.606 112.109 136.249 112.501 135.535C112.893 134.807 113.089 133.589 113.089 131.881C112.767 132.329 112.312 132.679 111.724 132.931C111.15 133.183 110.527 133.309 109.855 133.309C108.959 133.309 108.147 133.127 107.419 132.763C106.705 132.385 106.138 131.832 105.718 131.104C105.298 130.362 105.088 129.466 105.088 128.416C105.088 126.862 105.55 125.63 106.474 124.72C107.398 123.796 108.658 123.334 110.254 123.334C112.242 123.334 113.642 123.971 114.454 125.245C115.28 126.519 115.693 128.437 115.693 130.999C115.693 132.819 115.532 134.31 115.21 135.472C114.902 136.634 114.363 137.516 113.593 138.118C112.837 138.72 111.801 139.021 110.485 139.021C109.449 139.021 108.567 138.825 107.839 138.433C107.111 138.027 106.551 137.502 106.159 136.858C105.781 136.2 105.564 135.479 105.508 134.695H108.238ZM110.464 130.915C111.192 130.915 111.766 130.691 112.186 130.243C112.606 129.795 112.816 129.193 112.816 128.437C112.816 127.611 112.592 126.974 112.144 126.526C111.71 126.064 111.115 125.833 110.359 125.833C109.603 125.833 109.001 126.071 108.553 126.547C108.119 127.009 107.902 127.625 107.902 128.395C107.902 129.137 108.112 129.746 108.532 130.222C108.966 130.684 109.61 130.915 110.464 130.915ZM118.045 126.4V123.691H123.106V139H120.082V126.4H118.045Z" fill="white"/>
<path d="M115.96 70.112C115.181 70.112 114.477 69.9787 113.848 69.712C113.229 69.4453 112.739 69.0613 112.376 68.56C112.013 68.0587 111.827 67.4667 111.816 66.784H114.216C114.248 67.2427 114.408 67.6053 114.696 67.872C114.995 68.1387 115.4 68.272 115.912 68.272C116.435 68.272 116.845 68.1493 117.144 67.904C117.443 67.648 117.592 67.3173 117.592 66.912C117.592 66.5813 117.491 66.3093 117.288 66.096C117.085 65.8827 116.829 65.7173 116.52 65.6C116.221 65.472 115.805 65.3333 115.272 65.184C114.547 64.9707 113.955 64.7627 113.496 64.56C113.048 64.3467 112.659 64.032 112.328 63.616C112.008 63.1893 111.848 62.624 111.848 61.92C111.848 61.2587 112.013 60.6827 112.344 60.192C112.675 59.7013 113.139 59.328 113.736 59.072C114.333 58.8053 115.016 58.672 115.784 58.672C116.936 58.672 117.869 58.9547 118.584 59.52C119.309 60.0747 119.709 60.8533 119.784 61.856H117.32C117.299 61.472 117.133 61.1573 116.824 60.912C116.525 60.656 116.125 60.528 115.624 60.528C115.187 60.528 114.835 60.64 114.568 60.864C114.312 61.088 114.184 61.4133 114.184 61.84C114.184 62.1387 114.28 62.3893 114.472 62.592C114.675 62.784 114.92 62.944 115.208 63.072C115.507 63.1893 115.923 63.328 116.456 63.488C117.181 63.7013 117.773 63.9147 118.232 64.128C118.691 64.3413 119.085 64.6613 119.416 65.088C119.747 65.5147 119.912 66.0747 119.912 66.768C119.912 67.3653 119.757 67.92 119.448 68.432C119.139 68.944 118.685 69.3547 118.088 69.664C117.491 69.9627 116.781 70.112 115.96 70.112ZM125.79 70.144C124.937 70.144 124.169 69.9573 123.486 69.584C122.803 69.2 122.265 68.6613 121.87 67.968C121.486 67.2747 121.294 66.4747 121.294 65.568C121.294 64.6613 121.491 63.8613 121.886 63.168C122.291 62.4747 122.841 61.9413 123.534 61.568C124.227 61.184 125.001 60.992 125.854 60.992C126.707 60.992 127.481 61.184 128.174 61.568C128.867 61.9413 129.411 62.4747 129.806 63.168C130.211 63.8613 130.414 64.6613 130.414 65.568C130.414 66.4747 130.206 67.2747 129.79 67.968C129.385 68.6613 128.83 69.2 128.126 69.584C127.433 69.9573 126.654 70.144 125.79 70.144ZM125.79 68.192C126.195 68.192 126.574 68.096 126.926 67.904C127.289 67.7013 127.577 67.4027 127.79 67.008C128.003 66.6133 128.11 66.1333 128.11 65.568C128.11 64.7253 127.886 64.08 127.438 63.632C127.001 63.1733 126.462 62.944 125.822 62.944C125.182 62.944 124.643 63.1733 124.206 63.632C123.779 64.08 123.566 64.7253 123.566 65.568C123.566 66.4107 123.774 67.0613 124.19 67.52C124.617 67.968 125.15 68.192 125.79 68.192ZM134.297 58.16V70H132.057V58.16H134.297ZM135.934 65.536C135.934 64.64 136.11 63.8453 136.462 63.152C136.825 62.4587 137.31 61.9253 137.918 61.552C138.537 61.1787 139.225 60.992 139.982 60.992C140.644 60.992 141.22 61.1253 141.71 61.392C142.212 61.6587 142.612 61.9947 142.91 62.4V61.136H145.166V70H142.91V68.704C142.622 69.12 142.222 69.4667 141.71 69.744C141.209 70.0107 140.628 70.144 139.966 70.144C139.22 70.144 138.537 69.952 137.918 69.568C137.31 69.184 136.825 68.6453 136.462 67.952C136.11 67.248 135.934 66.4427 135.934 65.536ZM142.91 65.568C142.91 65.024 142.804 64.56 142.59 64.176C142.377 63.7813 142.089 63.4827 141.726 63.28C141.364 63.0667 140.974 62.96 140.558 62.96C140.142 62.96 139.758 63.0613 139.406 63.264C139.054 63.4667 138.766 63.7653 138.542 64.16C138.329 64.544 138.222 65.0027 138.222 65.536C138.222 66.0693 138.329 66.5387 138.542 66.944C138.766 67.3387 139.054 67.6427 139.406 67.856C139.769 68.0693 140.153 68.176 140.558 68.176C140.974 68.176 141.364 68.0747 141.726 67.872C142.089 67.6587 142.377 67.36 142.59 66.976C142.804 66.5813 142.91 66.112 142.91 65.568ZM152.266 61.008C153.322 61.008 154.175 61.344 154.826 62.016C155.477 62.6773 155.802 63.6053 155.802 64.8V70H153.562V65.104C153.562 64.4 153.386 63.8613 153.034 63.488C152.682 63.104 152.202 62.912 151.594 62.912C150.975 62.912 150.485 63.104 150.122 63.488C149.77 63.8613 149.594 64.4 149.594 65.104V70H147.354V61.136H149.594V62.24C149.893 61.856 150.271 61.5573 150.73 61.344C151.199 61.12 151.711 61.008 152.266 61.008ZM157.356 65.536C157.356 64.64 157.532 63.8453 157.884 63.152C158.247 62.4587 158.732 61.9253 159.34 61.552C159.959 61.1787 160.647 60.992 161.404 60.992C162.065 60.992 162.641 61.1253 163.132 61.392C163.633 61.6587 164.033 61.9947 164.332 62.4V61.136H166.588V70H164.332V68.704C164.044 69.12 163.644 69.4667 163.132 69.744C162.631 70.0107 162.049 70.144 161.388 70.144C160.641 70.144 159.959 69.952 159.34 69.568C158.732 69.184 158.247 68.6453 157.884 67.952C157.532 67.248 157.356 66.4427 157.356 65.536ZM164.332 65.568C164.332 65.024 164.225 64.56 164.012 64.176C163.799 63.7813 163.511 63.4827 163.148 63.28C162.785 63.0667 162.396 62.96 161.98 62.96C161.564 62.96 161.18 63.0613 160.828 63.264C160.476 63.4667 160.188 63.7653 159.964 64.16C159.751 64.544 159.644 65.0027 159.644 65.536C159.644 66.0693 159.751 66.5387 159.964 66.944C160.188 67.3387 160.476 67.6427 160.828 67.856C161.191 68.0693 161.575 68.176 161.98 68.176C162.396 68.176 162.785 68.0747 163.148 67.872C163.511 67.6587 163.799 67.36 164.012 66.976C164.225 66.5813 164.332 66.112 164.332 65.568Z" fill="white"/>
<path opacity="0.6" d="M114.576 95.084C114.024 95.084 113.528 94.988 113.088 94.796C112.656 94.596 112.316 94.324 112.068 93.98C111.82 93.628 111.692 93.224 111.684 92.768H112.848C112.888 93.16 113.048 93.492 113.328 93.764C113.616 94.028 114.032 94.16 114.576 94.16C115.096 94.16 115.504 94.032 115.8 93.776C116.104 93.512 116.256 93.176 116.256 92.768C116.256 92.448 116.168 92.188 115.992 91.988C115.816 91.788 115.596 91.636 115.332 91.532C115.068 91.428 114.712 91.316 114.264 91.196C113.712 91.052 113.268 90.908 112.932 90.764C112.604 90.62 112.32 90.396 112.08 90.092C111.848 89.78 111.732 89.364 111.732 88.844C111.732 88.388 111.848 87.984 112.08 87.632C112.312 87.28 112.636 87.008 113.052 86.816C113.476 86.624 113.96 86.528 114.504 86.528C115.288 86.528 115.928 86.724 116.424 87.116C116.928 87.508 117.212 88.028 117.276 88.676H116.076C116.036 88.356 115.868 88.076 115.572 87.836C115.276 87.588 114.884 87.464 114.396 87.464C113.94 87.464 113.568 87.584 113.28 87.824C112.992 88.056 112.848 88.384 112.848 88.808C112.848 89.112 112.932 89.36 113.1 89.552C113.276 89.744 113.488 89.892 113.736 89.996C113.992 90.092 114.348 90.204 114.804 90.332C115.356 90.484 115.8 90.636 116.136 90.788C116.472 90.932 116.76 91.16 117 91.472C117.24 91.776 117.36 92.192 117.36 92.72C117.36 93.128 117.252 93.512 117.036 93.872C116.82 94.232 116.5 94.524 116.076 94.748C115.652 94.972 115.152 95.084 114.576 95.084ZM122.759 95.084C121.983 95.084 121.275 94.904 120.635 94.544C119.995 94.176 119.487 93.668 119.111 93.02C118.743 92.364 118.559 91.628 118.559 90.812C118.559 89.996 118.743 89.264 119.111 88.616C119.487 87.96 119.995 87.452 120.635 87.092C121.275 86.724 121.983 86.54 122.759 86.54C123.543 86.54 124.255 86.724 124.895 87.092C125.535 87.452 126.039 87.956 126.407 88.604C126.775 89.252 126.959 89.988 126.959 90.812C126.959 91.636 126.775 92.372 126.407 93.02C126.039 93.668 125.535 94.176 124.895 94.544C124.255 94.904 123.543 95.084 122.759 95.084ZM122.759 94.136C123.343 94.136 123.867 94 124.331 93.728C124.803 93.456 125.171 93.068 125.435 92.564C125.707 92.06 125.843 91.476 125.843 90.812C125.843 90.14 125.707 89.556 125.435 89.06C125.171 88.556 124.807 88.168 124.343 87.896C123.879 87.624 123.351 87.488 122.759 87.488C122.167 87.488 121.639 87.624 121.175 87.896C120.711 88.168 120.343 88.556 120.071 89.06C119.807 89.556 119.675 90.14 119.675 90.812C119.675 91.476 119.807 92.06 120.071 92.564C120.343 93.068 120.711 93.456 121.175 93.728C121.647 94 122.175 94.136 122.759 94.136ZM129.493 94.112H132.421V95H128.401V86.636H129.493V94.112Z" fill="white"/>
<rect x="48" y="52" width="44" height="44" rx="10" fill="#31353F"/>
<path d="M78.0002 65.5H63.5002C63.1902 65.5 62.8902 65.65 62.7002 65.9L61.2002 67.9C60.7102 68.56 61.1802 69.5 62.0002 69.5H76.5002C76.8102 69.5 77.1102 69.35 77.3002 69.1L78.8002 67.1C79.2902 66.44 78.8202 65.5 78.0002 65.5Z" fill="#1ECB4F"/>
<path d="M62.0002 72H76.5002C76.8102 72 77.1102 72.15 77.3002 72.4L78.8002 74.4C79.2902 75.06 78.8202 76 78.0002 76H63.5002C63.1902 76 62.8902 75.85 62.7002 75.6L61.2002 73.6C60.7102 72.94 61.1802 72 62.0002 72Z" fill="#1ECB4F"/>
<path d="M78.0002 78.5H63.5002C63.1902 78.5 62.8902 78.65 62.7002 78.9L61.2002 80.9C60.7102 81.56 61.1802 82.5 62.0002 82.5H76.5002C76.8102 82.5 77.1102 82.35 77.3002 82.1L78.8002 80.1C79.2902 79.44 78.8202 78.5 78.0002 78.5Z" fill="#1ECB4F"/>
<g filter="url(#filter1_f_1909_2090)">
<circle cx="264" cy="146" r="5" fill="#1ECB4F"/>
</g>
<path d="M158 175.5L165.5 152.5L174 163L179 145.5L188 163L201.5 129L214.5 152.5L229 145.5L240.5 157L250.5 132.5L258 145.5H265" stroke="#1ECB4F" stroke-width="2" stroke-linecap="round"/>
<defs>
<filter id="filter0_d_1909_2090" x="0" y="0" width="324" height="244" filterUnits="userSpaceOnUse" color-interpolation-filters="sRGB">
<feFlood flood-opacity="0" result="BackgroundImageFix"/>
<feColorMatrix in="SourceAlpha" type="matrix" values="0 0 0 0 0 0 0 0 0 0 0 0 0 0 0 0 0 0 127 0" result="hardAlpha"/>
<feOffset dx="4" dy="4"/>
<feGaussianBlur stdDeviation="16.5"/>
<feComposite in2="hardAlpha" operator="out"/>
<feColorMatrix type="matrix" values="0 0 0 0 0 0 0 0 0 0 0 0 0 0 0 0 0 0 0.05 0"/>
<feBlend mode="normal" in2="BackgroundImageFix" result="effect1_dropShadow_1909_2090"/>
<feBlend mode="normal" in="SourceGraphic" in2="effect1_dropShadow_1909_2090" result="shape"/>
</filter>
<filter id="filter1_f_1909_2090" x="254" y="136" width="20" height="20" filterUnits="userSpaceOnUse" color-interpolation-filters="sRGB">
<feFlood flood-opacity="0" result="BackgroundImageFix"/>
<feBlend mode="normal" in="SourceGraphic" in2="BackgroundImageFix" result="shape"/>
<feGaussianBlur stdDeviation="2.5" result="effect1_foregroundBlur_1909_2090"/>
</filter>
</defs>
</svg>
